{
.appVersion = "850";
copyright = "Copyright (c) 2012, Eduardo Tunni (http://www.tipo.net.ar), with Reserved Font Name Changa"";
customParameters = (
{
name = licenseURL;
value = "http://scripts.sil.org/OFL";
},
{
name = trademark;
value = "Changa is a trademark of Eduardo Rodriguez Tunni.";
},
{
name = license;
value = "This Font Software is licensed under the SIL Open Font License, Version 1.1. This license is available with a FAQ at: http://scripts.sil.org/OFL";
},
{
name = openTypeOS2VendorID;
value = TIPO;
}
);
date = "2016-02-27 15:08:35 +0000";
designer = "Eduardo Rodriguez Tunni";
designerURL = "http://www.tipo.net.ar";
familyName = "Changa";
featurePrefixes = (
{
automatic = 1;
code = "languagesystem DFLT dflt;\012languagesystem arab dflt;\012languagesystem latn dflt;\012languagesystem latn CAT;\012languagesystem latn ROM;\012languagesystem latn MOL;\012languagesystem latn KAZ;\012languagesystem latn TAT;\012languagesystem latn TRK;\012languagesystem latn CRT;\012languagesystem latn AZE;\012languagesystem arab URD;\012";
name = Languagesystems;
}
);
features = (
{
automatic = 1;
code = "feature ccmp;\012feature locl;\012feature subs;\012feature sups;\012feature numr;\012feature dnom;\012feature frac;\012feature ordn;\012feature init;\012feature medi;\012feature fina;\012feature rlig;\012";
name = aalt;
},
{
automatic = 1;

glyphs = (
{
color = 10;
glyphname = A;
layers = (
{
anchors = (
{
name = bottom;
position = "{272, 0}";
},
{
name = ogonek;
position = "{527, 0}";
},
{
name = top;
position = "{272, 625}";
}
);
hints = (
{
horizontal = 1;
origin = "{1, 3}";
target = "{1, 2}";
},
{
horizontal = 1;
origin = "{0, 1}";
target = "{0, 6}";
},
{
horizontal = 1;
origin = "{0, 7}";
target = up;
type = BottomGhost;
},
{
horizontal = 1;
origin = "{0, 6}";
target = down;
type = TopGhost;
}
);
layerId = "4B38D994-FE59-4B2C-A746-78B1495748E0";
paths = (
{
closed = 1;
nodes = (
"106 0 LINE",
"267 543 LINE",
"275 543 LINE",
"436 0 LINE",
"526 0 LINE",
"339 625 LINE",
"204 625 LINE",
"16 0 LINE"
);
},
{
closed = 1;
nodes = (
"438 144 LINE",
"438 216 LINE",
"105 216 LINE",
"105 144 LINE"
);
}
);
width = 542;
}
);
leftKerningGroup = A;
rightKerningGroup = A;
unicode = 0041;
},
{
color = 10;
glyphname = AE;
layers = (
{
anchors = (
{
name = bottom;
position = "{375, 0}";
},
{
name = top;
position = "{375, 625}";
}
);
hints = (
{
horizontal = 1;
origin = "{0, 15}";
target = "{0, 6}";
},
{
horizontal = 1;
origin = "{0, 1}";
target = "{1, 3}";
},
{
horizontal = 1;
origin = "{0, 7}";
target = "{0, 10}";
},
{
horizontal = 1;
origin = "{0, 14}";
target = "{0, 11}";
},
{
horizontal = 1;
origin = "{0, 15}";
target = up;
type = BottomGhost;
},
{
horizontal = 1;
origin = "{0, 14}";
target = down;
type = TopGhost;
}
);
layerId = "4B38D994-FE59-4B2C-A746-78B1495748E0";
paths = (
{
closed = 1;
nodes = (
"112 0 LINE",
"145 141 LINE",
"386 141 LINE",
"422 0 LINE",
"698 0 LINE",
"698 83 LINE",
"495 83 LINE",
"447 269 LINE",
"606 269 LINE",
"606 348 LINE",
"427 348 LINE",
"376 542 LINE",
"634 542 LINE",
"648 625 LINE",
"178 625 LINE",
"16 0 LINE"
);
},
{
closed = 1;
nodes = (
"244 543 LINE",
"288 543 LINE",
"366 224 LINE",
"166 224 LINE"
);
}
);
width = 750;
}
);
leftKerningGroup = A;
leftMetricsKey = A;
rightKerningGroup = E;
rightMetricsKey = E;
unicode = 00C6;
},
{
color = 10;
glyphname = B;
layers = (
{
hints = (
{
horizontal = 1;
origin = "{0, 0}";
target = "{1, 18}";
},
{
horizontal = 1;
origin = "{1, 10}";
target = "{1, 9}";
},
{
horizontal = 1;
origin = "{0, 15}";
target = "{1, 1}";
},
{
origin = "{0, 0}";
target = "{1, 19}";
},
{
origin = "{1, 14}";
target = "{0, 4}";
},
{
origin = "{1, 5}";
target = "{0, 11}";
},
{
horizontal = 1;
origin = "{0, 0}";
target = up;
type = BottomGhost;
},
{
horizontal = 1;
origin = "{0, 15}";
target = down;
type = TopGhost;
}
);
layerId = "4B38D994-FE59-4B2C-A746-78B1495748E0";
paths = (
{
closed = 1;
nodes = (
"94 0 LINE",
"361 0 LINE SMOOTH",
"469 0 OFFCURVE",
"528 62 OFFCURVE",
"528 176 CURVE SMOOTH",
"528 245 OFFCURVE",
"496 296 OFFCURVE",
"437 316 CURVE",
"437 322 LINE",
"480 353 OFFCURVE",
"497 396 OFFCURVE",
"497 471 CURVE SMOOTH",
"497 576 OFFCURVE",
"444 625 OFFCURVE",
"330 625 CURVE SMOOTH",
"94 625 LINE"
);
},
{
closed = 1;
nodes = (
"184 601 LINE",
"143 559 LINE",
"325 559 LINE SMOOTH",
"387 559 OFFCURVE",
"407 533 OFFCURVE",
"407 452 CURVE SMOOTH",
"407 373 OFFCURVE",
"386 346 OFFCURVE",
"324 346 CURVE SMOOTH",
"168 346 LINE",
"168 283 LINE",
"352 283 LINE SMOOTH",
"415 283 OFFCURVE",
"439 255 OFFCURVE",
"439 181 CURVE SMOOTH",
"439 99 OFFCURVE",
"414 66 OFFCURVE",
"351 66 CURVE SMOOTH",
"143 66 LINE",
"184 24 LINE"
);
}
);
width = 581;
}
);
leftKerningGroup = H;
leftMetricsKey = H;
rightKerningGroup = B;
unicode = 0042;
},
{
color = 10;
glyphname = C;
layers = (
{
anchors = (
{
name = bottom;
position = "{263, 0}";
},
{
name = top;
position = "{284, 625}";
}
);
hints = (
{
horizontal = 1;
origin = "{0, 23}";
target = "{0, 3}";
},
{
horizontal = 1;
origin = "{0, 17}";
target = "{0, 10}";
},
{
origin = "{0, 20}";
target = "{0, 6}";
}
);
layerId = "4B38D994-FE59-4B2C-A746-78B1495748E0";
paths = (
{
closed = 1;
nodes = (
"451 84 LINE",
"399 69 OFFCURVE",
"343 59 OFFCURVE",
"287 59 CURVE SMOOTH",
"242 59 OFFCURVE",
"199 65 OFFCURVE",
"164 75 CURVE",
"164 486 LINE SMOOTH",
"164 553 OFFCURVE",
"198 563 OFFCURVE",
"276 563 CURVE SMOOTH",
"310 563 OFFCURVE",
"384 557 OFFCURVE",
"435 545 CURVE",
"447 620 LINE",
"409 632 OFFCURVE",
"342 640 OFFCURVE",
"302 640 CURVE SMOOTH",
"110 640 OFFCURVE",
"68 573 OFFCURVE",
"68 312 CURVE SMOOTH",
"68 54 OFFCURVE",
"109 -15 OFFCURVE",
"293 -15 CURVE SMOOTH",
"363 -15 OFFCURVE",
"412 -8 OFFCURVE",
"461 11 CURVE"
);
}
);
width = 487;
}
);
leftKerningGroup = O;
leftMetricsKey = O;
rightKerningGroup = C;
unicode = 0043;
},
{
color = 10;
glyphname = D;
layers = (
{
anchors = (
{
name = bottom;
position = "{310, 0}";
},
{
name = center;
position = "{159, 313}";
},
{
name = top;
position = "{310, 625}";
}
);
hints = (
{
horizontal = 1;
origin = "{0, 0}";
target = "{1, 8}";
},
{
horizontal = 1;
origin = "{0, 8}";
target = "{1, 9}";
},
{
origin = "{0, 0}";
target = "{1, 8}";
},
{
origin = "{1, 4}";
target = "{0, 4}";
},
{
horizontal = 1;
origin = "{0, 0}";
target = up;
type = BottomGhost;
},
{
horizontal = 1;
origin = "{0, 8}";
target = down;
type = TopGhost;
}
);
layerId = "4B38D994-FE59-4B2C-A746-78B1495748E0";
paths = (
{
closed = 1;
nodes = (
"94 0 LINE",
"313 0 LINE SMOOTH",
"513 0 OFFCURVE",
"552 52 OFFCURVE",
"552 312 CURVE SMOOTH",
"552 574 OFFCURVE",
"513 625 OFFCURVE",
"313 625 CURVE SMOOTH",
"94 625 LINE"
);
},
{
closed = 1;
nodes = (
"377 549 LINE SMOOTH",
"436 549 OFFCURVE",
"455 531 OFFCURVE",
"455 475 CURVE SMOOTH",
"455 150 LINE SMOOTH",
"455 94 OFFCURVE",
"436 76 OFFCURVE",
"377 76 CURVE SMOOTH",
"184 76 LINE",
"184 549 LINE"
);
}
);
width = 621;
}
);
leftKerningGroup = H;
leftMetricsKey = H;
rightKerningGroup = O;
rightMetricsKey = O;
unicode = 0044;
},
{
color = 10;
glyphname = E;
layers = (
{
anchors = (
{
name = bottom;
position = "{271, 0}";
},
{
name = ogonek;
position = "{463, 0}";
},
{
name = top;
position = "{282, 625}";
},
{
name = topleft;
position = "{6, 625}";
}
);
hints = (
{
horizontal = 1;
origin = "{0, 7}";
target = "{0, 10}";
},
{
horizontal = 1;
origin = "{0, 11}";
target = "{0, 2}";
},
{
horizontal = 1;
origin = "{0, 6}";
target = "{0, 3}";
},
{
origin = "{0, 7}";
target = "{0, 10}";
},
{
horizontal = 1;
origin = "{0, 7}";
target = up;
type = BottomGhost;
},
{
horizontal = 1;
origin = "{0, 6}";
target = down;
type = TopGhost;
}
);
layerId = "4B38D994-FE59-4B2C-A746-78B1495748E0";
paths = (
{
closed = 1;
nodes = (
"425 276 LINE",
"425 349 LINE",
"184 349 LINE",
"184 550 LINE",
"449 550 LINE",
"459 625 LINE",
"94 625 LINE",
"94 0 LINE",
"463 0 LINE",
"463 75 LINE",
"184 75 LINE",
"184 276 LINE"
);
}
);
width = 515;
}
);
leftKerningGroup = H;
leftMetricsKey = H;
rightKerningGroup = E;
unicode = 0045;
},
{
color = 10;
glyphname = F;
layers = (
{
hints = (
{
horizontal = 1;
origin = "{0, 9}";
target = "{0, 2}";
},
{
horizontal = 1;
origin = "{0, 3}";
target = "{0, 6}";
},
{
origin = "{0, 7}";
target = "{0, 8}";
},
{
horizontal = 1;
origin = "{0, 7}";
target = up;
type = BottomGhost;
},
{
horizontal = 1;
origin = "{0, 6}";
target = down;
type = TopGhost;
}
);
layerId = "4B38D994-FE59-4B2C-A746-78B1495748E0";
paths = (
{
closed = 1;
nodes = (
"387 264 LINE",
"387 336 LINE",
"184 336 LINE",
"184 550 LINE",
"417 550 LINE",
"427 625 LINE",
"94 625 LINE",
"94 0 LINE",
"184 0 LINE",
"184 264 LINE"
);
}
);
width = 448;
}
);
leftKerningGroup = H;
leftMetricsKey = H;
rightKerningGroup = F;
unicode = 0046;
},
{
color = 10;
glyphname = G;
lastChange = "2016-02-27 16:04:48 +0000";
layers = (
{
anchors = (
{
name = bottom;
position = "{293, 0}";
},
{
name = top;
position = "{313, 625}";
}
);
hints = (
{
horizontal = 1;
origin = "{0, 21}";
target = "{0, 4}";
},
{
horizontal = 1;
origin = "{1, 3}";
target = "{1, 2}";
},
{
horizontal = 1;
origin = "{0, 15}";
target = "{0, 8}";
},
{
origin = "{0, 18}";
target = "{0, 4}";
},
{
origin = "{1, 5}";
target = "{0, 2}";
}
);
layerId = "4B38D994-FE59-4B2C-A746-78B1495748E0";
paths = (
{
closed = 1;
nodes = (
"369 -15 OFFCURVE",
"434 -6 OFFCURVE",
"500 19 CURVE",
"487 57 LINE",
"163 57 LINE",
"163 486 LINE SMOOTH",
"163 553 OFFCURVE",
"198 563 OFFCURVE",
"279 563 CURVE SMOOTH",
"319 563 OFFCURVE",
"406 557 OFFCURVE",
"465 545 CURVE",
"477 620 LINE",
"433 632 OFFCURVE",
"355 640 OFFCURVE",
"308 640 CURVE SMOOTH",
"112 640 OFFCURVE",
"68 573 OFFCURVE",
"68 312 CURVE SMOOTH",
"68 35 OFFCURVE",
"105 -15 OFFCURVE",
"276 -15 CURVE SMOOTH"
);
},
{
closed = 1;
nodes = (
"500 19 LINE",
"500 341 LINE",
"322 341 LINE",
"322 269 LINE",
"421 269 LINE",
"421 30 LINE"
);
}
);
width = 569;
}
);
leftKerningGroup = O;
leftMetricsKey = O;
rightKerningGroup = G;
rightMetricsKey = "=H-25";
unicode = 0047;
},
{
color = 10;
glyphname = H;
layers = (
{
anchors = (
{
name = bottom;
position = "{319, 0}";
},
{
name = center;
position = "{319, 481}";
},
{
name = top;
position = "{319, 625}";
},
{
name = topleft;
position = "{20, 625}";
}
);
hints = (
{
horizontal = 1;
origin = "{2, 2}";
target = "{2, 1}";
},
{
origin = "{0, 2}";
target = "{0, 3}";
},
{
origin = "{1, 0}";
target = "{1, 1}";
},
{
horizontal = 1;
origin = "{0, 1}";
target = down;
type = TopGhost;
},
{
horizontal = 1;
origin = "{0, 2}";
target = up;
type = BottomGhost;
}
);
layerId = "4B38D994-FE59-4B2C-A746-78B1495748E0";
paths = (
{
closed = 1;
nodes = (
"184 625 LINE",
"94 625 LINE",
"94 0 LINE",
"184 0 LINE"
);
},
{
closed = 1;
nodes = (
"455 0 LINE",
"545 0 LINE",
"545 625 LINE",
"455 625 LINE"
);
},
{
closed = 1;
nodes = (
"471 345 LINE",
"168 345 LINE",
"168 273 LINE",
"471 273 LINE"
);
}
);
width = 639;
}
);
leftKerningGroup = H;
rightKerningGroup = H;
unicode = 0048;
},
{
color = 10;
glyphname = I;
layers = (
{
anchors = (
{
name = bottom;
position = "{139, 0}";
},
{
name = ogonek;
position = "{184, 0}";
},
{
name = top;
position = "{139, 625}";
},
{
name = topleft;
position = "{20, 625}";
}
);
hints = (
{
origin = "{0, 0}";
target = "{0, 1}";
},
{
horizontal = 1;
origin = "{0, 0}";
target = up;
type = BottomGhost;
},
{
horizontal = 1;
origin = "{0, 3}";
target = down;
type = TopGhost;
}
);
layerId = "4B38D994-FE59-4B2C-A746-78B1495748E0";
paths = (
{
closed = 1;
nodes = (
"94 0 LINE",
"184 0 LINE",
"184 625 LINE",
"94 625 LINE"
);
}
);
width = 278;
}
);
leftKerningGroup = H;
leftMetricsKey = H;
rightKerningGroup = H;
rightMetricsKey = H;
unicode = 0049;
},
{
color = 10;
glyphname = J;
layers = (
{
anchors = (
{
name = bottom;
position = "{174, 0}";
},
{
name = top;
position = "{174, 625}";
}
);
hints = (
{
horizontal = 1;
origin = "{0, 0}";
target = "{0, 13}";
},
{
horizontal = 1;
origin = "{0, 7}";
target = "{0, 6}";
},
{
origin = "{0, 9}";
target = "{0, 4}";
},
{
horizontal = 1;
origin = "{0, 0}";
target = up;
type = BottomGhost;
},
{
horizontal = 1;
origin = "{0, 6}";
target = down;
type = TopGhost;
}
);
layerId = "4B38D994-FE59-4B2C-A746-78B1495748E0";
paths = (
{
closed = 1;
nodes = (
"32 0 LINE",
"98 0 LINE SMOOTH",
"198 0 OFFCURVE",
"253 24 OFFCURVE",
"253 132 CURVE SMOOTH",
"253 625 LINE",
"63 625 LINE",
"63 550 LINE",
"163 550 LINE",
"163 102 LINE SMOOTH",
"163 73 OFFCURVE",
"142 71 OFFCURVE",
"115 71 CURVE SMOOTH",
"21 71 LINE"
);
}
);
width = 347;
}
);
leftKerningGroup = J;
rightKerningGroup = J;
rightMetricsKey = H;
unicode = 004A;
},
{
color = 10;
glyphname = K;
layers = (
{
anchors = (
{
name = bottom;
position = "{295, 0}";
},
{
name = top;
position = "{295, 625}";
}
);
hints = (
{
horizontal = 1;
origin = "{0, 9}";
target = "{0, 8}";
},
{
origin = "{1, 3}";
target = "{1, 0}";
},
{
horizontal = 1;
origin = "{1, 3}";
target = up;
type = BottomGhost;
},
{
horizontal = 1;
origin = "{1, 2}";
target = down;
type = TopGhost;
}
);
layerId = "4B38D994-FE59-4B2C-A746-78B1495748E0";
paths = (
{
closed = 1;
nodes = (
"536 0 LINE",
"381 321 LINE",
"531 625 LINE",
"430 625 LINE",
"363 488 LINE SMOOTH",
"342 449 OFFCURVE",
"321 403 OFFCURVE",
"321 357 CURVE",
"168 357 LINE",
"168 285 LINE",
"321 285 LINE",
"321 239 OFFCURVE",
"344 193 OFFCURVE",
"363 154 CURVE SMOOTH",
"435 0 LINE"
);
},
{
closed = 1;
nodes = (
"184 0 LINE",
"184 625 LINE",
"94 625 LINE",
"94 0 LINE"
);
}
);
width = 547;
}
);
leftKerningGroup = H;
leftMetricsKey = H;
rightKerningGroup = K;
unicode = 004B;
},
{
color = 10;
glyphname = L;
layers = (
{
anchors = (
{
name = bottom;
position = "{249, 0}";
},
{
name = center;
position = "{139, 331}";
},
{
name = top;
position = "{139, 625}";
},
{
name = topright;
position = "{325, 625}";
}
);
hints = (
{
horizontal = 1;
origin = "{0, 5}";
target = "{0, 2}";
},
{
horizontal = 1;
origin = "{0, 4}";
target = down;
type = TopGhost;
},
{
origin = "{0, 5}";
target = "{0, 2}";
},
{
horizontal = 1;
origin = "{0, 5}";
target = up;
type = BottomGhost;
}
);
layerId = "4B38D994-FE59-4B2C-A746-78B1495748E0";
paths = (
{
closed = 1;
nodes = (
"418 0 LINE",
"418 75 LINE",
"184 75 LINE",
"184 625 LINE",
"94 625 LINE",
"94 0 LINE"
);
}
);
width = 429;
}
);
leftKerningGroup = H;
leftMetricsKey = H;
rightKerningGroup = L;
unicode = 004C;
},
{
color = 10;
glyphname = M;
layers = (
{
hints = (
{
horizontal = 1;
origin = "{0, 15}";
target = up;
type = BottomGhost;
},
{
horizontal = 1;
origin = "{0, 14}";
target = down;
type = TopGhost;
}
);
layerId = "4B38D994-FE59-4B2C-A746-78B1495748E0";
paths = (
{
closed = 1;
nodes = (
"168 0 LINE",
"202 512 LINE",
"208 512 LINE",
"360 0 LINE",
"434 0 LINE",
"586 512 LINE",
"592 512 LINE",
"625 0 LINE",
"714 0 LINE",
"672 625 LINE",
"545 625 LINE",
"400 142 LINE",
"393 142 LINE",
"248 625 LINE",
"121 625 LINE",
"79 0 LINE"
);
}
);
width = 793;
}
);
leftKerningGroup = M;
leftMetricsKey = "=H-15";
rightKerningGroup = M;
rightMetricsKey = "=H-15";
unicode = 004D;
},
{
color = 10;
glyphname = N;
layers = (
{
anchors = (
{
name = bottom;
position = "{330, 0}";
},
{
name = top;
position = "{341, 625}";
}
);
hints = (
{
origin = "{0, 17}";
target = "{0, 0}";
},
{
origin = "{0, 10}";
target = "{0, 7}";
},
{
horizontal = 1;
origin = "{0, 17}";
target = up;
type = BottomGhost;
},
{
horizontal = 1;
origin = "{0, 16}";
target = down;
type = TopGhost;
}
);
layerId = "4B38D994-FE59-4B2C-A746-78B1495748E0";
paths = (
{
closed = 1;
nodes = (
"189 0 LINE",
"189 468 LINE",
"195 468 LINE",
"197 447 OFFCURVE",
"201 440 OFFCURVE",
"221 407 CURVE SMOOTH",
"474 0 LINE",
"561 0 LINE",
"561 625 LINE",
"471 625 LINE",
"471 157 LINE",
"465 157 LINE",
"462 178 OFFCURVE",
"459 185 OFFCURVE",
"439 218 CURVE SMOOTH",
"186 625 LINE",
"99 625 LINE",
"99 0 LINE"
);
}
);
width = 660;
}
);
leftKerningGroup = H;
leftMetricsKey = "=H+5";
rightKerningGroup = H;
rightMetricsKey = "=H+5";
unicode = 004E;
},
{
color = 10;
glyphname = O;
layers = (
{
anchors = (
{
name = bottom;
position = "{317, 0}";
},
{
name = center;
position = "{317, 313}";
},
{
name = ogonek;
position = "{366, -12}";
},
{
name = top;
position = "{317, 625}";
},
{
name = topleft;
position = "{30, 625}";
},
{
name = topright;
position = "{603, 625}";
}
);
hints = (
{
horizontal = 1;
origin = "{0, 2}";
target = "{1, 9}";
},
{
horizontal = 1;
origin = "{0, 8}";
target = "{1, 3}";
},
{
origin = "{0, 11}";
target = "{1, 9}";
},
{
origin = "{1, 5}";
target = "{0, 5}";
}
);
layerId = "4B38D994-FE59-4B2C-A746-78B1495748E0";
paths = (
{
closed = 1;
nodes = (
"68 39 OFFCURVE",
"108 -15 OFFCURVE",
"316 -15 CURVE SMOOTH",
"524 -15 OFFCURVE",
"565 39 OFFCURVE",
"565 312 CURVE SMOOTH",
"565 585 OFFCURVE",
"524 640 OFFCURVE",
"316 640 CURVE SMOOTH",
"108 640 OFFCURVE",
"68 586 OFFCURVE",
"68 312 CURVE SMOOTH"
);
},
{
closed = 1;
nodes = (
"165 489 LINE SMOOTH",
"165 545 OFFCURVE",
"186 564 OFFCURVE",
"251 564 CURVE SMOOTH",
"469 564 LINE",
"469 136 LINE SMOOTH",
"469 80 OFFCURVE",
"447 61 OFFCURVE",
"383 61 CURVE SMOOTH",
"165 61 LINE"
);
}
);
width = 634;
}
);
leftKerningGroup = O;
rightKerningGroup = O;
unicode = 004F;
},
{
color = 10;
glyphname = OE;
lastChange = "2016-02-27 16:04:48 +0000";
layers = (
{
anchors = (
{
name = bottom;
position = "{445, 0}";
},
{
name = top;
position = "{445, 625}";
}
);
hints = (
{
horizontal = 1;
origin = "{0, 7}";
target = "{0, 10}";
},
{
horizontal = 1;
origin = "{0, 11}";
target = "{0, 2}";
},
{
horizontal = 1;
origin = "{0, 6}";
target = "{0, 3}";
},
{
origin = "{0, 7}";
target = "{0, 10}";
},
{
horizontal = 1;
origin = "{0, 8}";
target = up;
type = BottomGhost;
},
{
horizontal = 1;
origin = "{0, 5}";
target = down;
type = TopGhost;
}
);
layerId = "4B38D994-FE59-4B2C-A746-78B1495748E0";
paths = (
{
closed = 1;
nodes = (
"800 276 LINE",
"800 349 LINE",
"559 349 LINE",
"559 550 LINE",
"824 550 LINE",
"834 625 LINE",
"469 625 LINE",
"469 0 LINE",
"838 0 LINE",
"838 75 LINE",
"559 75 LINE",
"559 276 LINE"
);
},
{
closed = 1;
nodes = (
"68 51 OFFCURVE",
"108 0 OFFCURVE",
"316 0 CURVE SMOOTH",
"477 0 LINE",
"477 625 LINE",
"316 625 LINE",
"109 625 OFFCURVE",
"68 573 OFFCURVE",
"68 312 CURVE SMOOTH"
);
},
{
closed = 1;
nodes = (
"165 475 LINE SMOOTH",
"165 532 OFFCURVE",
"186 550 OFFCURVE",
"251 550 CURVE SMOOTH",
"469 550 LINE",
"469 150 LINE SMOOTH",
"469 93 OFFCURVE",
"447 75 OFFCURVE",
"383 75 CURVE SMOOTH",
"165 75 LINE"
);
}
);
width = 890;
}
);
leftKerningGroup = O;
leftMetricsKey = O;
rightKerningGroup = E;
rightMetricsKey = E;
unicode = 0152;
},
{
color = 10;
glyphname = P;
layers = (
{
hints = (
{
horizontal = 1;
origin = "{0, 10}";
target = "{1, 9}";
},
{
horizontal = 1;
origin = "{0, 7}";
target = "{1, 0}";
},
{
origin = "{0, 8}";
target = "{0, 9}";
},
{
origin = "{1, 5}";
target = "{0, 3}";
},
{
horizontal = 1;
origin = "{0, 8}";
target = up;
type = BottomGhost;
},
{
horizontal = 1;
origin = "{0, 7}";
target = down;
type = TopGhost;
}
);
layerId = "4B38D994-FE59-4B2C-A746-78B1495748E0";
paths = (
{
closed = 1;
nodes = (
"350 212 LINE SMOOTH",
"461 212 OFFCURVE",
"503 269 OFFCURVE",
"503 416 CURVE SMOOTH",
"503 573 OFFCURVE",
"462 625 OFFCURVE",
"335 625 CURVE SMOOTH",
"94 625 LINE",
"94 0 LINE",
"184 0 LINE",
"184 212 LINE"
);
},
{
closed = 1;
nodes = (
"184 550 LINE",
"337 550 LINE SMOOTH",
"391 550 OFFCURVE",
"409 540 OFFCURVE",
"409 508 CURVE SMOOTH",
"409 326 LINE SMOOTH",
"409 294 OFFCURVE",
"391 284 OFFCURVE",
"337 284 CURVE SMOOTH",
"184 284 LINE"
);
}
);
width = 524;
}
);
leftKerningGroup = H;
leftMetricsKey = H;
rightKerningGroup = P;
unicode = 0050;
},
{
color = 10;
glyphname = Thorn;
layers = (
{
hints = (
{
horizontal = 1;
origin = "{0, 5}";
target = "{1, 3}";
},
{
horizontal = 1;
origin = "{0, 0}";
target = "{1, 4}";
},
{
origin = "{0, 3}";
target = "{0, 4}";
},
{
origin = "{1, 9}";
target = "{0, 9}";
},
{
horizontal = 1;
origin = "{0, 3}";
target = up;
type = BottomGhost;
},
{
horizontal = 1;
origin = "{0, 2}";
target = down;
type = TopGhost;
}
);
layerId = "4B38D994-FE59-4B2C-A746-78B1495748E0";
paths = (
{
closed = 1;
nodes = (
"184 519 LINE",
"184 625 LINE",
"94 625 LINE",
"94 0 LINE",
"184 0 LINE",
"184 106 LINE",
"350 106 LINE SMOOTH",
"461 106 OFFCURVE",
"503 163 OFFCURVE",
"503 310 CURVE SMOOTH",
"503 468 OFFCURVE",
"462 519 OFFCURVE",
"335 519 CURVE SMOOTH"
);
},
{
closed = 1;
nodes = (
"409 188 OFFCURVE",
"391 178 OFFCURVE",
"337 178 CURVE SMOOTH",
"184 178 LINE",
"184 447 LINE",
"337 447 LINE SMOOTH",
"391 447 OFFCURVE",
"409 437 OFFCURVE",
"409 405 CURVE SMOOTH",
"409 220 LINE SMOOTH"
);
}
);
width = 524;
}
);
leftKerningGroup = H;
leftMetricsKey = H;
rightKerningGroup = Thorn;
rightMetricsKey = P;
unicode = 00DE;
},
{
color = 10;
glyphname = Q;
layers = (
{
hints = (
{
horizontal = 1;
origin = "{0, 13}";
target = "{1, 9}";
},
{
horizontal = 1;
origin = "{0, 7}";
target = "{1, 3}";
},
{
origin = "{0, 10}";
target = "{1, 9}";
},
{
origin = "{1, 5}";
target = "{0, 4}";
}
);
layerId = "4B38D994-FE59-4B2C-A746-78B1495748E0";
paths = (
{
closed = 1;
nodes = (
"368 10 LINE",
"455 13 LINE",
"531 43 OFFCURVE",
"555 115 OFFCURVE",
"555 312 CURVE SMOOTH",
"555 585 OFFCURVE",
"514 640 OFFCURVE",
"311 640 CURVE SMOOTH",
"108 640 OFFCURVE",
"68 586 OFFCURVE",
"68 312 CURVE SMOOTH",
"68 38 OFFCURVE",
"108 -15 OFFCURVE",
"311 -15 CURVE"
);
},
{
closed = 1;
nodes = (
"166 489 LINE SMOOTH",
"166 545 OFFCURVE",
"186 564 OFFCURVE",
"248 564 CURVE SMOOTH",
"458 564 LINE",
"458 136 LINE SMOOTH",
"458 80 OFFCURVE",
"437 61 OFFCURVE",
"374 61 CURVE SMOOTH",
"166 61 LINE"
);
},
{
closed = 1;
nodes = (
"561 -22 LINE",
"451 48 LINE",
"368 10 LINE",
"368 -15 LINE",
"539 -71 LINE"
);
}
);
width = 624;
}
);
leftKerningGroup = O;
rightKerningGroup = O;
unicode = 0051;
},
{
color = 10;
glyphname = R;
layers = (
{
anchors = (
{
name = bottom;
position = "{288, 0}";
},
{
name = top;
position = "{299, 625}";
}
);
hints = (
{
horizontal = 1;
origin = "{0, 10}";
target = "{1, 9}";
},
{
horizontal = 1;
origin = "{1, 0}";
target = "{0, 7}";
},
{
origin = "{0, 8}";
target = "{0, 9}";
},
{
origin = "{1, 5}";
target = "{0, 3}";
},
{
horizontal = 1;
origin = "{0, 8}";
target = up;
type = BottomGhost;
},
{
horizontal = 1;
origin = "{0, 7}";
target = down;
type = TopGhost;
}
);
layerId = "4B38D994-FE59-4B2C-A746-78B1495748E0";
paths = (
{
closed = 1;
nodes = (
"355 225 LINE SMOOTH",
"466 225 OFFCURVE",
"508 279 OFFCURVE",
"508 416 CURVE SMOOTH",
"508 573 OFFCURVE",
"467 625 OFFCURVE",
"340 625 CURVE SMOOTH",
"94 625 LINE",
"94 0 LINE",
"184 0 LINE",
"184 225 LINE"
);
},
{
closed = 1;
nodes = (
"184 550 LINE",
"342 550 LINE SMOOTH",
"396 550 OFFCURVE",
"414 540 OFFCURVE",
"414 508 CURVE SMOOTH",
"414 339 LINE SMOOTH",
"414 307 OFFCURVE",
"396 297 OFFCURVE",
"342 297 CURVE SMOOTH",
"184 297 LINE"
);
},
{
closed = 1;
nodes = (
"321 253 LINE",
"441 0 LINE",
"539 0 LINE",
"411 263 LINE"
);
}
);
width = 576;
}
);
leftKerningGroup = H;
leftMetricsKey = H;
rightKerningGroup = R;
unicode = 0052;
},
{
color = 10;
glyphname = S;
layers = (
{
anchors = (
{
name = bottom;
position = "{256, 0}";
},
{
name = top;
position = "{256, 625}";
}
);
hints = (
{
horizontal = 1;
origin = "{0, 3}";
target = "{0, 32}";
},
{
horizontal = 1;
place = "{289.85, 106.7}";
},
{
horizontal = 1;
origin = "{0, 21}";
target = "{0, 14}";
},
{
origin = "{0, 24}";
target = "{0, 10}";
},
{
origin = "{0, 29}";
target = "{0, 6}";
}
);
layerId = "4B38D994-FE59-4B2C-A746-78B1495748E0";
paths = (
{
closed = 1;
nodes = (
"48 8 LINE",
"115 -9 OFFCURVE",
"176 -15 OFFCURVE",
"244 -15 CURVE SMOOTH",
"415 -15 OFFCURVE",
"472 30 OFFCURVE",
"472 167 CURVE SMOOTH",
"472 302 OFFCURVE",
"426 343 OFFCURVE",
"269 352 CURVE SMOOTH",
"154 359 LINE",
"154 561 LINE",
"184 565 OFFCURVE",
"203 566 OFFCURVE",
"242 566 CURVE SMOOTH",
"315 566 OFFCURVE",
"369 562 OFFCURVE",
"427 551 CURVE",
"439 622 LINE",
"370 634 OFFCURVE",
"308 640 OFFCURVE",
"240 640 CURVE SMOOTH",
"106 640 OFFCURVE",
"56 589 OFFCURVE",
"56 448 CURVE SMOOTH",
"56 318 OFFCURVE",
"97 284 OFFCURVE",
"278 272 CURVE SMOOTH",
"373 265 LINE",
"373 65 LINE",
"318 60 OFFCURVE",
"290 59 OFFCURVE",
"257 59 CURVE SMOOTH",
"192 59 OFFCURVE",
"113 68 OFFCURVE",
"62 81 CURVE"
);
}
);
width = 513;
}
);
leftKerningGroup = S;
rightKerningGroup = S;
unicode = 0053;
},
{
color = 10;
glyphname = T;
layers = (
{
anchors = (
{
name = bottom;
position = "{229, 0}";
},
{
name = center;
position = "{229, 306}";
},
{
name = top;
position = "{229, 625}";
}
);
hints = (
{
horizontal = 1;
origin = "{0, 3}";
target = "{0, 2}";
},
{
origin = "{0, 5}";
target = "{0, 6}";
},
{
horizontal = 1;
origin = "{0, 5}";
target = up;
type = BottomGhost;
},
{
horizontal = 1;
origin = "{0, 2}";
target = down;
type = TopGhost;
}
);
layerId = "4B38D994-FE59-4B2C-A746-78B1495748E0";
paths = (
{
closed = 1;
nodes = (
"441 550 LINE",
"441 625 LINE",
"16 625 LINE",
"16 550 LINE",
"184 550 LINE",
"184 0 LINE",
"273 0 LINE",
"273 550 LINE"
);
}
);
width = 457;
}
);
leftKerningGroup = T;
rightKerningGroup = T;
unicode = 0054;
},
{
color = 10;
glyphname = U;
layers = (
{
anchors = (
{
name = bottom;
position = "{320, 0}";
},
{
name = ogonek;
position = "{368, -11}";
},
{
name = top;
position = "{320, 625}";
},
{
name = topright;
position = "{555, 625}";
}
);
hints = (
{
horizontal = 1;
origin = "{0, 15}";
target = "{0, 9}";
},
{
origin = "{0, 12}";
target = "{0, 9}";
},
{
origin = "{0, 5}";
target = "{0, 2}";
},
{
horizontal = 1;
origin = "{0, 11}";
target = down;
type = TopGhost;
}
);
layerId = "4B38D994-FE59-4B2C-A746-78B1495748E0";
paths = (
{
closed = 1;
nodes = (
"511 -15 OFFCURVE",
"554 23 OFFCURVE",
"554 184 CURVE SMOOTH",
"554 625 LINE",
"464 625 LINE",
"464 114 LINE SMOOTH",
"464 71 OFFCURVE",
"438 61 OFFCURVE",
"324 61 CURVE SMOOTH",
"174 61 LINE",
"174 625 LINE",
"84 625 LINE",
"84 184 LINE SMOOTH",
"84 23 OFFCURVE",
"128 -15 OFFCURVE",
"319 -15 CURVE SMOOTH"
);
}
);
width = 638;
}
);
leftKerningGroup = U;
leftMetricsKey = "=H-10";
rightKerningGroup = U;
rightMetricsKey = "=H-10";
unicode = 0055;
},
{
color = 10;
glyphname = V;
layers = (
{
hints = (
{
horizontal = 1;
origin = "{0, 7}";
target = down;
type = TopGhost;
},
{
horizontal = 1;
origin = "{0, 0}";
target = up;
type = BottomGhost;
}
);
layerId = "4B38D994-FE59-4B2C-A746-78B1495748E0";
paths = (
{
closed = 1;
nodes = (
"188 0 LINE",
"323 0 LINE",
"500 625 LINE",
"410 625 LINE",
"259 82 LINE",
"251 82 LINE",
"100 625 LINE",
"10 625 LINE"
);
}
);
width = 511;
}
);
leftKerningGroup = V;
rightKerningGroup = V;
unicode = 0056;
},
{
color = 10;
glyphname = W;
layers = (
{
anchors = (
{
name = bottom;
position = "{395, 0}";
},
{
name = top;
position = "{395, 625}";
}
);
hints = (
{
horizontal = 1;
origin = "{0, 7}";
target = down;
type = TopGhost;
},
{
horizontal = 1;
origin = "{0, 0}";
target = up;
type = BottomGhost;
}
);
layerId = "4B38D994-FE59-4B2C-A746-78B1495748E0";
paths = (
{
closed = 1;
nodes = (
"132 0 LINE",
"274 0 LINE",
"424 625 LINE",
"347 625 LINE",
"213 82 LINE",
"204 82 LINE",
"115 625 LINE",
"25 625 LINE"
);
},
{
closed = 1;
nodes = (
"674 625 LINE",
"585 82 LINE",
"576 82 LINE",
"442 625 LINE",
"365 625 LINE",
"515 0 LINE",
"657 0 LINE",
"764 625 LINE"
);
}
);
width = 789;
}
);
leftKerningGroup = W;
rightKerningGroup = W;
unicode = 0057;
},
{
color = 10;
glyphname = X;
layers = (
{
hints = (
{
horizontal = 1;
origin = "{1, 1}";
target = up;
type = BottomGhost;
},
{
horizontal = 1;
origin = "{0, 1}";
target = down;
type = TopGhost;
}
);
layerId = "4B38D994-FE59-4B2C-A746-78B1495748E0";
paths = (
{
closed = 1;
nodes = (
"120 625 LINE",
"19 625 LINE",
"409 0 LINE",
"510 0 LINE"
);
},
{
closed = 1;
nodes = (
"230 365 LINE",
"10 0 LINE",
"108 0 LINE",
"270 273 LINE"
);
},
{
closed = 1;
nodes = (
"282 261 LINE",
"501 625 LINE",
"403 625 LINE",
"241 353 LINE"
);
}
);
width = 520;
}
);
leftKerningGroup = X;
rightKerningGroup = X;
unicode = 0058;
},
{
color = 10;
glyphname = Y;
layers = (
{
anchors = (
{
name = bottom;
position = "{240, 0}";
},
{
name = top;
position = "{240, 625}";
},
{
name = topleft;
position = "{22, 625}";
}
);
hints = (
{
horizontal = 1;
origin = "{0, 2}";
target = down;
type = TopGhost;
},
{
origin = "{0, 4}";
target = "{0, 5}";
},
{
horizontal = 1;
origin = "{0, 4}";
target = up;
type = BottomGhost;
}
);
layerId = "4B38D994-FE59-4B2C-A746-78B1495748E0";
paths = (
{
closed = 1;
nodes = (
"256 273 LINE",
"103 625 LINE",
"10 625 LINE",
"195 217 LINE",
"195 0 LINE",
"285 0 LINE",
"285 217 LINE",
"470 625 LINE",
"377 625 LINE",
"224 273 LINE"
);
}
);
width = 481;
}
);
leftKerningGroup = Y;
rightKerningGroup = Y;
unicode = 0059;
},
{
color = 10;
glyphname = Z;
layers = (
{
anchors = (
{
name = bottom;
position = "{271, 0}";
},
{
name = top;
position = "{306, 625}";
}
);
hints = (
{
horizontal = 1;
origin = "{0, 11}";
target = "{0, 2}";
},
{
horizontal = 1;
origin = "{0, 7}";
target = "{0, 6}";
},
{
horizontal = 1;
origin = "{0, 11}";
target = up;
type = BottomGhost;
},
{
horizontal = 1;
origin = "{0, 6}";
target = down;
type = TopGhost;
}
);
layerId = "4B38D994-FE59-4B2C-A746-78B1495748E0";
paths = (
{
closed = 1;
nodes = (
"487 0 LINE",
"487 75 LINE",
"157 75 LINE",
"154 81 LINE",
"505 564 LINE",
"505 625 LINE",
"75 625 LINE",
"87 550 LINE",
"384 550 LINE",
"387 544 LINE",
"36 61 LINE",
"36 0 LINE"
);
}
);
width = 541;
}
);
leftKerningGroup = Z;
rightKerningGroup = Z;
unicode = 005A;
},
{
color = 10;
glyphname = a;
layers = (
{
anchors = (
{
name = bottom;
position = "{278, 0}";
},
{
name = ogonek;
position = "{454, 0}";
},
{
name = top;
position = "{275, 500}";
}
);
hints = (
{
horizontal = 1;
origin = "{0, 36}";
target = "{0, 23}";
},
{
horizontal = 1;
origin = "{0, 28}";
target = "{0, 29}";
},
{
horizontal = 1;
origin = "{0, 8}";
target = "{0, 15}";
},
{
origin = "{0, 33}";
target = "{0, 23}";
},
{
origin = "{0, 19}";
target = "{0, 4}";
},
{
horizontal = 1;
origin = "{0, 36}";
target = up;
type = BottomGhost;
},
{
horizontal = 1;
origin = "{0, 8}";
target = down;
type = TopGhost;
}
);
layerId = "4B38D994-FE59-4B2C-A746-78B1495748E0";
paths = (
{
closed = 1;
nodes = (
"284 -9 OFFCURVE",
"341 9 OFFCURVE",
"389 50 CURVE",
"413 0 LINE",
"454 0 LINE",
"454 373 LINE SMOOTH",
"454 474 OFFCURVE",
"408 509 OFFCURVE",
"275 509 CURVE SMOOTH",
"207 509 OFFCURVE",
"126 497 OFFCURVE",
"80 480 CURVE",
"92 413 LINE",
"149 429 OFFCURVE",
"207 437 OFFCURVE",
"258 437 CURVE SMOOTH",
"304 437 OFFCURVE",
"335 434 OFFCURVE",
"364 426 CURVE",
"364 122 LINE SMOOTH",
"364 75 OFFCURVE",
"346 62 OFFCURVE",
"283 62 CURVE SMOOTH",
"140 62 LINE",
"140 176 LINE SMOOTH",
"140 222 OFFCURVE",
"158 235 OFFCURVE",
"222 235 CURVE SMOOTH",
"394 235 LINE",
"394 297 LINE",
"351 297 LINE SMOOTH",
"91 297 OFFCURVE",
"58 279 OFFCURVE",
"58 138 CURVE SMOOTH",
"58 31 OFFCURVE",
"100 -9 OFFCURVE",
"209 -9 CURVE SMOOTH"
);
}
);
width = 543;
}
);
leftKerningGroup = a;
leftMetricsKey = "=o-5";
rightKerningGroup = n;
rightMetricsKey = n;
unicode = 0061;
},
{
color = 10;
glyphname = ae;
layers = (
{
anchors = (
{
name = bottom;
position = "{419, 0}";
},
{
name = top;
position = "{419, 500}";
}
);
hints = (
{
horizontal = 1;
origin = "{0, 35}";
target = "{0, 22}";
},
{
horizontal = 1;
origin = "{0, 27}";
target = "{0, 28}";
},
{
horizontal = 1;
origin = "{0, 7}";
target = "{0, 14}";
},
{
origin = "{0, 32}";
target = "{0, 22}";
},
{
origin = "{0, 18}";
target = "{0, 3}";
},
{
horizontal = 1;
origin = "{1, 34}";
target = "{1, 6}";
},
{
horizontal = 1;
origin = "{1, 20}";
target = "{1, 19}";
},
{
horizontal = 1;
origin = "{1, 27}";
target = "{1, 13}";
},
{
origin = "{0, 18}";
target = "{1, 9}";
},
{
origin = "{1, 15}";
target = "{1, 24}";
},
{
horizontal = 1;
origin = "{0, 35}";
target = up;
type = BottomGhost;
},
{
horizontal = 1;
origin = "{0, 7}";
target = down;
type = TopGhost;
}
);
layerId = "4B38D994-FE59-4B2C-A746-78B1495748E0";
paths = (
{
closed = 1;
nodes = (
"289 -9 OFFCURVE",
"348 11 OFFCURVE",
"398 58 CURVE",
"455 50 LINE",
"455 373 LINE SMOOTH",
"455 474 OFFCURVE",
"408 509 OFFCURVE",
"275 509 CURVE SMOOTH",
"207 509 OFFCURVE",
"126 497 OFFCURVE",
"80 480 CURVE",
"92 413 LINE",
"149 429 OFFCURVE",
"207 437 OFFCURVE",
"258 437 CURVE SMOOTH",
"304 437 OFFCURVE",
"335 434 OFFCURVE",
"364 426 CURVE",
"364 122 LINE SMOOTH",
"364 75 OFFCURVE",
"346 62 OFFCURVE",
"283 62 CURVE SMOOTH",
"140 62 LINE",
"140 176 LINE SMOOTH",
"140 222 OFFCURVE",
"158 235 OFFCURVE",
"222 235 CURVE SMOOTH",
"394 235 LINE",
"394 297 LINE",
"351 297 LINE SMOOTH",
"91 297 OFFCURVE",
"58 279 OFFCURVE",
"58 138 CURVE SMOOTH",
"58 31 OFFCURVE",
"100 -9 OFFCURVE",
"209 -9 CURVE SMOOTH"
);
},
{
closed = 1;
nodes = (
"623 -9 OFFCURVE",
"700 2 OFFCURVE",
"750 20 CURVE",
"738 87 LINE",
"664 68 OFFCURVE",
"618 63 OFFCURVE",
"566 63 CURVE SMOOTH",
"519 63 OFFCURVE",
"487 66 OFFCURVE",
"455 74 CURVE",
"455 374 LINE SMOOTH",
"455 420 OFFCURVE",
"474 434 OFFCURVE",
"540 434 CURVE SMOOTH",
"682 434 LINE",
"682 324 LINE SMOOTH",
"682 278 OFFCURVE",
"663 265 OFFCURVE",
"597 265 CURVE SMOOTH",
"425 265 LINE",
"425 203 LINE",
"455 203 LINE SMOOTH",
"729 203 OFFCURVE",
"763 221 OFFCURVE",
"763 362 CURVE SMOOTH",
"763 478 OFFCURVE",
"723 509 OFFCURVE",
"567 509 CURVE SMOOTH",
"477 509 OFFCURVE",
"428 491 OFFCURVE",
"399 448 CURVE",
"380 77 LINE",
"403 14 OFFCURVE",
"448 -9 OFFCURVE",
"548 -9 CURVE SMOOTH"
);
}
);
width = 836;
}
);
leftKerningGroup = a;
leftMetricsKey = a;
rightKerningGroup = e;
rightMetricsKey = e;
unicode = 00E6;
},
{
color = 10;
glyphname = b;
layers = (
{
hints = (
{
horizontal = 1;
origin = "{0, 5}";
target = "{1, 4}";
},
{
horizontal = 1;
origin = "{0, 11}";
target = "{1, 8}";
},
{
origin = "{1, 0}";
target = "{0, 8}";
},
{
horizontal = 1;
origin = "{0, 5}";
target = up;
type = BottomGhost;
},
{
origin = "{2, 7}";
target = "{2, 6}";
},
{
horizontal = 1;
origin = "{0, 11}";
target = down;
type = TopGhost;
}
);
layerId = "4B38D994-FE59-4B2C-A746-78B1495748E0";
paths = (
{
closed = 1;
nodes = (
"153 515 OFFCURVE",
"124 477 OFFCURVE",
"124 250 CURVE SMOOTH",
"124 26 OFFCURVE",
"150 -9 OFFCURVE",
"309 -9 CURVE SMOOTH",
"469 -9 OFFCURVE",
"503 37 OFFCURVE",
"503 250 CURVE SMOOTH",
"503 466 OFFCURVE",
"470 515 OFFCURVE",
"327 515 CURVE SMOOTH"
);
},
{
closed = 1;
nodes = (
"409 85 LINE SMOOTH",
"409 70 OFFCURVE",
"398 66 OFFCURVE",
"363 66 CURVE SMOOTH",
"184 66 LINE",
"184 415 LINE SMOOTH",
"184 435 OFFCURVE",
"194 440 OFFCURVE",
"231 440 CURVE SMOOTH",
"409 440 LINE"
);
},
{
closed = 1;
nodes = (
"94 21 LINE",
"171 -1 OFFCURVE",
"230 -9 OFFCURVE",
"309 -9 CURVE",
"184 48 LINE",
"184 97 LINE",
"184 678 LINE",
"94 667 LINE"
);
}
);
width = 566;
}
);
leftKerningGroup = h;
leftMetricsKey = n;
rightKerningGroup = o;
rightMetricsKey = o;
unicode = 0062;
},
{
color = 10;
glyphname = c;
layers = (
{
anchors = (
{
name = bottom;
position = "{235, 0}";
},
{
name = top;
position = "{247, 500}";
}
);
hints = (
{
horizontal = 1;
origin = "{0, 26}";
target = "{0, 6}";
},
{
horizontal = 1;
origin = "{0, 20}";
target = "{0, 13}";
},
{
horizontal = 1;
origin = "{0, 20}";
target = down;
type = TopGhost;
},
{
origin = "{0, 23}";
target = "{0, 10}";
},
{
horizontal = 1;
origin = "{0, 26}";
target = up;
type = BottomGhost;
},
{
horizontal = 1;
origin = "{0, 20}";
target = down;
type = TopGhost;
}
);
layerId = "4B38D994-FE59-4B2C-A746-78B1495748E0";
paths = (
{
closed = 1;
nodes = (
"302 -9 OFFCURVE",
"367 2 OFFCURVE",
"410 20 CURVE",
"400 87 LINE",
"340 69 OFFCURVE",
"305 63 OFFCURVE",
"263 63 CURVE SMOOTH",
"215 63 OFFCURVE",
"183 66 OFFCURVE",
"156 74 CURVE",
"156 352 LINE SMOOTH",
"156 415 OFFCURVE",
"178 437 OFFCURVE",
"245 437 CURVE SMOOTH",
"292 437 OFFCURVE",
"338 432 OFFCURVE",
"388 422 CURVE",
"399 492 LINE",
"355 503 OFFCURVE",
"292 509 OFFCURVE",
"238 509 CURVE SMOOTH",
"96 509 OFFCURVE",
"63 462 OFFCURVE",
"63 250 CURVE SMOOTH",
"63 39 OFFCURVE",
"96 -9 OFFCURVE",
"238 -9 CURVE SMOOTH"
);
}
);
width = 453;
}
);
leftKerningGroup = o;
leftMetricsKey = o;
rightKerningGroup = c;
rightMetricsKey = "=o-20";
unicode = 0063;
},
{
color = 10;
glyphname = d;
layers = (
{
anchors = (
{
name = bottom;
position = "{280, 0}";
},
{
name = center;
position = "{427, 589}";
},
{
name = top;
position = "{280, 500}";
},
{
name = topright;
position = "{472, 500}";
}
);
hints = (
{
horizontal = 1;
origin = "{0, 5}";
target = "{1, 4}";
},
{
horizontal = 1;
origin = "{0, 11}";
target = "{1, 8}";
},
{
origin = "{0, 2}";
target = "{1, 4}";
},
{
origin = "{2, 0}";
target = "{2, 4}";
},
{
horizontal = 1;
origin = "{0, 5}";
target = up;
type = BottomGhost;
},
{
horizontal = 1;
origin = "{0, 11}";
target = down;
type = TopGhost;
}
);
layerId = "4B38D994-FE59-4B2C-A746-78B1495748E0";
paths = (
{
closed = 1;
nodes = (
"96 511 OFFCURVE",
"63 462 OFFCURVE",
"63 250 CURVE SMOOTH",
"63 33 OFFCURVE",
"94 -14 OFFCURVE",
"239 -15 CURVE SMOOTH",
"414 -16 OFFCURVE",
"442 22 OFFCURVE",
"442 250 CURVE SMOOTH",
"442 473 OFFCURVE",
"414 508 OFFCURVE",
"239 509 CURVE SMOOTH"
);
},
{
closed = 1;
nodes = (
"382 85 LINE SMOOTH",
"382 65 OFFCURVE",
"372 60 OFFCURVE",
"336 60 CURVE SMOOTH",
"157 60 LINE",
"157 410 LINE SMOOTH",
"157 430 OFFCURVE",
"167 434 OFFCURVE",
"204 434 CURVE SMOOTH",
"382 434 LINE"
);
},
{
closed = 1;
nodes = (
"382 667 LINE",
"382 97 LINE",
"431 0 LINE",
"472 0 LINE",
"472 678 LINE"
);
}
);
width = 566;
}
);
leftKerningGroup = o;
leftMetricsKey = o;
rightKerningGroup = l;
rightMetricsKey = "=|h";
unicode = 0064;
},
{
color = 10;
glyphname = eth;
layers = (
{
components = (
{
name = slashshortcomb;
transform = "{1, 0, 0, 1, 264, 229}";
}
);
hints = (
{
horizontal = 1;
origin = "{0, 11}";
target = "{1, 9}";
},
{
horizontal = 1;
origin = "{1, 3}";
target = "{0, 5}";
},
{
origin = "{0, 8}";
target = "{1, 9}";
},
{
origin = "{1, 5}";
target = "{0, 2}";
},
{
horizontal = 1;
origin = "{0, 11}";
target = up;
type = BottomGhost;
}
);
layerId = "4B38D994-FE59-4B2C-A746-78B1495748E0";
paths = (
{
closed = 1;
nodes = (
"444 -9 OFFCURVE",
"481 32 OFFCURVE",
"481 211 CURVE SMOOTH",
"481 364 LINE",
"415 440 LINE",
"275 440 LINE SMOOTH",
"106 440 OFFCURVE",
"68 397 OFFCURVE",
"68 215 CURVE SMOOTH",
"68 33 OFFCURVE",
"106 -9 OFFCURVE",
"275 -9 CURVE SMOOTH"
);
},
{
closed = 1;
nodes = (
"162 340 LINE SMOOTH",
"162 360 OFFCURVE",
"172 364 OFFCURVE",
"209 364 CURVE SMOOTH",
"387 364 LINE",
"387 90 LINE SMOOTH",
"387 70 OFFCURVE",
"377 66 OFFCURVE",
"341 66 CURVE SMOOTH",
"162 66 LINE"
);
},
{
closed = 1;
nodes = (
"482 364 LINE",
"482 456 OFFCURVE",
"436 577 OFFCURVE",
"365 674 CURVE",
"289 652 LINE",
"360 553 OFFCURVE",
"397 453 OFFCURVE",
"397 364 CURVE"
);
}
);
width = 554;
}
);
leftKerningGroup = eth;
rightKerningGroup = eth;
unicode = 00F0;
},
{
color = 10;
glyphname = e;
layers = (
{
anchors = (
{
name = bottom;
position = "{260, 0}";
},
{
name = ogonek;
position = "{452, 20}";
},
{
name = top;
position = "{269, 500}";
}
);
hints = (
{
horizontal = 1;
origin = "{0, 33}";
target = "{0, 6}";
},
{
horizontal = 1;
origin = "{0, 20}";
target = "{0, 19}";
},
{
horizontal = 1;
origin = "{0, 27}";
target = "{0, 13}";
},
{
origin = "{0, 30}";
target = "{0, 9}";
},
{
origin = "{0, 15}";
target = "{0, 24}";
},
{
horizontal = 1;
origin = "{0, 33}";
target = up;
type = BottomGhost;
},
{
horizontal = 1;
origin = "{0, 27}";
target = down;
type = TopGhost;
}
);
layerId = "4B38D994-FE59-4B2C-A746-78B1495748E0";
paths = (
{
closed = 1;
nodes = (
"327 -9 OFFCURVE",
"404 2 OFFCURVE",
"452 20 CURVE",
"440 87 LINE",
"366 68 OFFCURVE",
"320 63 OFFCURVE",
"268 63 CURVE SMOOTH",
"219 63 OFFCURVE",
"187 66 OFFCURVE",
"157 74 CURVE",
"157 374 LINE SMOOTH",
"157 420 OFFCURVE",
"176 434 OFFCURVE",
"241 434 CURVE SMOOTH",
"384 434 LINE",
"384 324 LINE SMOOTH",
"384 278 OFFCURVE",
"365 265 OFFCURVE",
"299 265 CURVE SMOOTH",
"127 265 LINE",
"127 203 LINE",
"157 203 LINE SMOOTH",
"431 203 OFFCURVE",
"465 221 OFFCURVE",
"465 362 CURVE SMOOTH",
"465 478 OFFCURVE",
"424 509 OFFCURVE",
"269 509 CURVE SMOOTH",
"110 509 OFFCURVE",
"63 450 OFFCURVE",
"63 250 CURVE SMOOTH",
"63 43 OFFCURVE",
"100 -9 OFFCURVE",
"250 -9 CURVE SMOOTH"
);
}
);
width = 538;
}
);
leftKerningGroup = o;
leftMetricsKey = o;
rightKerningGroup = e;
rightMetricsKey = "=o+10";
unicode = 0065;
},
{
color = 10;
glyphname = f;
layers = (
{
hints = (
{
horizontal = 1;
origin = "{1, 0}";
target = "{1, 1}";
},
{
origin = "{0, 9}";
target = "{0, 10}";
},
{
horizontal = 1;
origin = "{0, 0}";
target = "{0, 5}";
},
{
horizontal = 1;
origin = "{0, 9}";
target = up;
type = BottomGhost;
},
{
horizontal = 1;
origin = "{0, 5}";
target = down;
type = TopGhost;
}
);
layerId = "4B38D994-FE59-4B2C-A746-78B1495748E0";
paths = (
{
closed = 1;
nodes = (
"214 607 LINE",
"324 598 LINE",
"329 665 LINE",
"299 672 OFFCURVE",
"269 675 OFFCURVE",
"239 675 CURVE SMOOTH",
"156 675 OFFCURVE",
"131 634 OFFCURVE",
"124 493 CURVE",
"124 0 LINE",
"214 0 LINE"
);
},
{
closed = 1;
nodes = (
"52 500 LINE",
"52 437 LINE",
"296 437 LINE",
"296 500 LINE"
);
}
);
width = 331;
}
);
leftKerningGroup = f;
rightKerningGroup = f;
unicode = 0066;
},
{
color = 10;
glyphname = g;
layers = (
{
anchors = (
{
name = bottom;
position = "{244, -164}";
},
{
name = top;
position = "{251, 500}";
}
);
hints = (
{
horizontal = 1;
origin = "{2, 19}";
target = "{2, 12}";
},
{
horizontal = 1;
place = "{162.8, 70.4}";
},
{
horizontal = 1;
origin = "{1, 3}";
target = "{0, 5}";
},
{
origin = "{0, 8}";
target = "{1, 9}";
},
{
origin = "{2, 9}";
target = "{2, 22}";
},
{
origin = "{1, 5}";
target = "{0, 2}";
},
{
horizontal = 1;
origin = "{0, 5}";
target = down;
type = TopGhost;
}
);
layerId = "4B38D994-FE59-4B2C-A746-78B1495748E0";
paths = (
{
closed = 1;
nodes = (
"388 146 OFFCURVE",
"434 190 OFFCURVE",
"434 330 CURVE SMOOTH",
"434 470 OFFCURVE",
"387 515 OFFCURVE",
"240 515 CURVE SMOOTH",
"93 515 OFFCURVE",
"47 470 OFFCURVE",
"47 330 CURVE SMOOTH",
"47 189 OFFCURVE",
"93 146 OFFCURVE",
"240 146 CURVE SMOOTH"
);
},
{
closed = 1;
nodes = (
"137 388 LINE SMOOTH",
"137 437 OFFCURVE",
"156 453 OFFCURVE",
"214 453 CURVE SMOOTH",
"344 453 LINE",
"344 274 LINE SMOOTH",
"344 224 OFFCURVE",
"325 209 OFFCURVE",
"267 209 CURVE SMOOTH",
"137 209 LINE"
);
},
{
closed = 1;
nodes = (
"440 36 OFFCURVE",
"413 52 OFFCURVE",
"251 69 CURVE",
"258 159 LINE",
"200 159 LINE",
"171 43 LINE",
"171 21 OFFCURVE",
"223 9 OFFCURVE",
"360 1 CURVE",
"360 -77 LINE",
"322 -85 OFFCURVE",
"285 -88 OFFCURVE",
"228 -88 CURVE SMOOTH",
"178 -88 OFFCURVE",
"136 -82 OFFCURVE",
"67 -65 CURVE",
"55 -134 LINE",
"101 -153 OFFCURVE",
"173 -164 OFFCURVE",
"244 -164 CURVE SMOOTH",
"390 -164 OFFCURVE",
"440 -133 OFFCURVE",
"440 -41 CURVE SMOOTH"
);
},
{
closed = 1;
nodes = (
"475 505 LINE",
"429 550 LINE",
"346 486 LINE",
"401 420 LINE"
);
}
);
width = 502;
}
);
leftKerningGroup = g;
rightKerningGroup = g;
unicode = 0067;
},
{
color = 10;
glyphname = h;
layers = (
{
anchors = (
{
name = bottom;
position = "{287, 0}";
},
{
name = center;
position = "{139, 578}";
},
{
name = top;
position = "{139, 623}";
}
);
hints = (
{
horizontal = 1;
origin = "{0, 17}";
target = up;
type = BottomGhost;
},
{
horizontal = 1;
origin = "{0, 11}";
target = "{0, 4}";
},
{
origin = "{0, 17}";
target = "{0, 0}";
},
{
origin = "{0, 6}";
target = "{0, 7}";
},
{
horizontal = 1;
origin = "{0, 17}";
target = up;
type = BottomGhost;
},
{
horizontal = 1;
origin = "{0, 11}";
target = down;
type = TopGhost;
}
);
layerId = "4B38D994-FE59-4B2C-A746-78B1495748E0";
paths = (
{
closed = 1;
nodes = (
"184 0 LINE",
"184 376 LINE SMOOTH",
"184 423 OFFCURVE",
"203 436 OFFCURVE",
"271 436 CURVE SMOOTH",
"395 436 LINE",
"395 0 LINE",
"485 0 LINE",
"485 428 LINE SMOOTH",
"485 482 OFFCURVE",
"437 509 OFFCURVE",
"344 509 CURVE SMOOTH",
"274 509 OFFCURVE",
"225 496 OFFCURVE",
"182 466 CURVE",
"182 665 LINE",
"94 658 LINE",
"94 0 LINE"
);
}
);
width = 574;
}
);
leftKerningGroup = h;
leftMetricsKey = n;
rightKerningGroup = n;
rightMetricsKey = n;
unicode = 0068;
},
{
color = 10;
glyphname = idotless;
layers = (
{
anchors = (
{
name = bottom;
position = "{139, 0}";
},
{
name = ogonek;
position = "{184, 0}";
},
{
name = top;
position = "{139, 500}";
}
);
hints = (
{
horizontal = 1;
origin = "{0, 2}";
target = down;
type = TopGhost;
},
{
origin = "{0, 0}";
target = "{0, 1}";
},
{
horizontal = 1;
origin = "{0, 0}";
target = up;
type = BottomGhost;
},
{
horizontal = 1;
origin = "{0, 0}";
target = up;
type = BottomGhost;
},
{
horizontal = 1;
origin = "{0, 2}";
target = down;
type = TopGhost;
}
);
layerId = "4B38D994-FE59-4B2C-A746-78B1495748E0";
paths = (
{
closed = 1;
nodes = (
"94 0 LINE",
"184 0 LINE",
"184 509 LINE",
"94 495 LINE"
);
}
);
width = 278;
}
);
leftKerningGroup = idotless;
rightKerningGroup = idotless;
unicode = 0131;
},
{
color = 10;
glyphname = jdotless;
layers = (
{
anchors = (
{
name = bottom;
position = "{139, 0}";
},
{
name = top;
position = "{139, 500}";
}
);
hints = (
{
horizontal = 1;
origin = "{0, 12}";
target = "{0, 8}";
},
{
origin = "{0, 5}";
target = "{0, 2}";
},
{
horizontal = 1;
origin = "{0, 12}";
target = up;
type = BottomGhost;
},
{
horizontal = 1;
origin = "{0, 3}";
target = down;
type = TopGhost;
}
);
layerId = "4B38D994-FE59-4B2C-A746-78B1495748E0";
paths = (
{
closed = 1;
nodes = (
"146 -175 OFFCURVE",
"184 -139 OFFCURVE",
"184 -65 CURVE SMOOTH",
"184 509 LINE",
"94 495 LINE",
"94 -52 LINE SMOOTH",
"94 -104 OFFCURVE",
"79 -113 OFFCURVE",
"-2 -113 CURVE",
"-7 -164 LINE",
"12 -171 OFFCURVE",
"40 -175 OFFCURVE",
"64 -175 CURVE SMOOTH"
);
}
);
width = 278;
}
);
leftKerningGroup = jdotless;
rightKerningGroup = jdotless;
unicode = 0237;
},
{
color = 10;
glyphname = k;
layers = (
{
anchors = (
{
name = bottom;
position = "{266, 0}";
},
{
name = top;
position = "{266, 500}";
}
);
hints = (
{
horizontal = 1;
origin = "{0, 9}";
target = up;
type = BottomGhost;
},
{
horizontal = 1;
origin = "{0, 11}";
target = "{0, 6}";
},
{
origin = "{0, 9}";
target = "{0, 10}";
},
{
horizontal = 1;
origin = "{0, 7}";
target = down;
type = TopGhost;
},
{
horizontal = 1;
origin = "{0, 4}";
target = down;
type = TopGhost;
}
);
layerId = "4B38D994-FE59-4B2C-A746-78B1495748E0";
paths = (
{
closed = 1;
nodes = (
"384 0 LINE",
"476 0 LINE",
"342 268 LINE",
"471 500 LINE",
"377 500 LINE",
"268 300 LINE",
"184 300 LINE",
"184 665 LINE",
"94 650 LINE",
"94 0 LINE",
"184 0 LINE",
"184 235 LINE",
"268 235 LINE"
);
}
);
width = 487;
}
);
leftKerningGroup = h;
leftMetricsKey = n;
rightKerningGroup = k;
unicode = 006B;
},
{
color = 10;
glyphname = kgreenlandic;
layers = (
{
anchors = (
{
name = bottom;
position = "{272, 0}";
},
{
name = top;
position = "{272, 500}";
}
);
hints = (
{
horizontal = 1;
origin = "{0, 11}";
target = "{0, 6}";
},
{
origin = "{0, 9}";
target = "{0, 10}";
},
{
horizontal = 1;
origin = "{0, 9}";
target = up;
type = BottomGhost;
},
{
horizontal = 1;
origin = "{0, 8}";
target = down;
type = TopGhost;
}
);
layerId = "4B38D994-FE59-4B2C-A746-78B1495748E0";
paths = (
{
closed = 1;
nodes = (
"400 0 LINE",
"492 0 LINE",
"358 250 LINE",
"487 500 LINE",
"393 500 LINE",
"284 282 LINE",
"184 282 LINE",
"184 500 LINE",
"94 500 LINE",
"94 0 LINE",
"184 0 LINE",
"184 217 LINE",
"284 217 LINE"
);
}
);
width = 503;
}
);
leftKerningGroup = h;
leftMetricsKey = n;
rightKerningGroup = k;
unicode = 0138;
},
{
color = 10;
glyphname = l;
layers = (
{
anchors = (
{
name = bottom;
position = "{133, 0}";
},
{
name = center;
position = "{133, 330}";
},
{
name = top;
position = "{133, 623}";
},
{
name = topright;
position = "{179, 500}";
}
);
hints = (
{
origin = "{0, 2}";
target = "{0, 12}";
},
{
horizontal = 1;
origin = "{0, 5}";
target = "{0, 9}";
},
{
horizontal = 1;
origin = "{0, 5}";
target = up;
type = BottomGhost;
},
{
horizontal = 1;
origin = "{0, 0}";
target = down;
type = TopGhost;
}
);
layerId = "4B38D994-FE59-4B2C-A746-78B1495748E0";
paths = (
{
closed = 1;
nodes = (
"179 665 LINE",
"89 650 LINE",
"89 62 LINE SMOOTH",
"89 14 OFFCURVE",
"111 -9 OFFCURVE",
"158 -9 CURVE SMOOTH",
"176 -9 OFFCURVE",
"193 -7 OFFCURVE",
"219 1 CURVE",
"225 62 LINE",
"208 63 OFFCURVE",
"190 65 OFFCURVE",
"179 67 CURVE"
);
}
);
width = 267;
}
);
leftKerningGroup = h;
rightKerningGroup = l;
unicode = 006C;
},
{
color = 10;
glyphname = m;
layers = (
{
hints = (
{
horizontal = 1;
origin = "{0, 17}";
target = up;
type = BottomGhost;
},
{
horizontal = 1;
origin = "{0, 11}";
target = "{0, 4}";
},
{
horizontal = 1;
origin = "{0, 16}";
target = down;
type = TopGhost;
},
{
origin = "{0, 17}";
target = "{0, 0}";
},
{
origin = "{0, 6}";
target = "{0, 7}";
},
{
origin = "{1, 6}";
target = "{1, 7}";
}
);
layerId = "4B38D994-FE59-4B2C-A746-78B1495748E0";
paths = (
{
closed = 1;
nodes = (
"184 0 LINE",
"184 375 LINE SMOOTH",
"184 422 OFFCURVE",
"204 436 OFFCURVE",
"274 436 CURVE SMOOTH",
"385 436 LINE",
"385 0 LINE",
"475 0 LINE",
"475 428 LINE SMOOTH",
"475 482 OFFCURVE",
"427 509 OFFCURVE",
"334 509 CURVE SMOOTH",
"260 509 OFFCURVE",
"206 491 OFFCURVE",
"159 450 CURVE",
"135 500 LINE",
"94 500 LINE",
"94 0 LINE"
);
},
{
closed = 1;
nodes = (
"474 0 LINE",
"474 375 LINE SMOOTH",
"474 422 OFFCURVE",
"494 436 OFFCURVE",
"564 436 CURVE SMOOTH",
"675 436 LINE",
"675 0 LINE",
"765 0 LINE",
"765 428 LINE SMOOTH",
"765 482 OFFCURVE",
"717 509 OFFCURVE",
"624 509 CURVE SMOOTH",
"550 509 OFFCURVE",
"496 491 OFFCURVE",
"449 450 CURVE",
"385 500 LINE",
"385 0 LINE"
);
}
);
width = 854;
}
);
leftKerningGroup = n;
leftMetricsKey = n;
rightKerningGroup = n;
rightMetricsKey = n;
unicode = 006D;
},
{
color = 10;
glyphname = n;
layers = (
{
anchors = (
{
name = bottom;
position = "{287, 0}";
},
{
name = top;
position = "{297, 500}";
}
);
hints = (
{
horizontal = 1;
origin = "{0, 11}";
target = "{0, 4}";
},
{
horizontal = 1;
origin = "{0, 16}";
target = down;
type = TopGhost;
},
{
origin = "{0, 17}";
target = "{0, 0}";
},
{
origin = "{0, 6}";
target = "{0, 7}";
},
{
horizontal = 1;
origin = "{0, 17}";
target = up;
type = BottomGhost;
}
);
layerId = "4B38D994-FE59-4B2C-A746-78B1495748E0";
paths = (
{
closed = 1;
nodes = (
"184 0 LINE",
"184 375 LINE SMOOTH",
"184 422 OFFCURVE",
"204 436 OFFCURVE",
"274 436 CURVE SMOOTH",
"395 436 LINE",
"395 0 LINE",
"485 0 LINE",
"485 428 LINE SMOOTH",
"485 482 OFFCURVE",
"437 509 OFFCURVE",
"344 509 CURVE SMOOTH",
"265 509 OFFCURVE",
"209 491 OFFCURVE",
"159 450 CURVE",
"135 500 LINE",
"94 500 LINE",
"94 0 LINE"
);
}
);
width = 574;
}
);
leftKerningGroup = n;
rightKerningGroup = n;
unicode = 006E;
},
{
color = 1;
glyphname = eng;
layers = (
{
components = (
{
name = n;
}
);
hints = (
{
horizontal = 1;
origin = "{0, 12}";
target = "{0, 8}";
},
{
origin = "{0, 5}";
target = "{0, 2}";
},
{
horizontal = 1;
origin = "{0, 12}";
target = up;
type = BottomGhost;
}
);
layerId = "4B38D994-FE59-4B2C-A746-78B1495748E0";
paths = (
{
closed = 1;
nodes = (
"448 -175 OFFCURVE",
"485 -139 OFFCURVE",
"485 -65 CURVE SMOOTH",
"485 28 LINE",
"395 28 LINE",
"395 -61 LINE SMOOTH",
"395 -112 OFFCURVE",
"382 -120 OFFCURVE",
"300 -121 CURVE",
"294 -164 LINE",
"315 -171 OFFCURVE",
"343 -175 OFFCURVE",
"366 -175 CURVE SMOOTH"
);
}
);
width = 574;
}
);
leftKerningGroup = n;
leftMetricsKey = n;
rightKerningGroup = n;
rightMetricsKey = n;
unicode = 014B;
},
{
color = 10;
glyphname = o;
layers = (
{
anchors = (
{
name = bottom;
position = "{275, 0}";
},
{
name = center;
position = "{275, 250}";
},
{
name = ogonek;
position = "{377, 0}";
},
{
name = top;
position = "{275, 500}";
},
{
name = topright;
position = "{543, 500}";
}
);
hints = (
{
horizontal = 1;
origin = "{0, 11}";
target = "{1, 9}";
},
{
horizontal = 1;
origin = "{0, 5}";
target = "{1, 3}";
},
{
origin = "{0, 8}";
target = "{1, 9}";
},
{
origin = "{1, 5}";
target = "{0, 2}";
},
{
horizontal = 1;
origin = "{0, 11}";
target = up;
type = BottomGhost;
},
{
horizontal = 1;
origin = "{0, 5}";
target = down;
type = TopGhost;
}
);
layerId = "4B38D994-FE59-4B2C-A746-78B1495748E0";
paths = (
{
closed = 1;
nodes = (
"448 -9 OFFCURVE",
"487 38 OFFCURVE",
"487 250 CURVE SMOOTH",
"487 463 OFFCURVE",
"451 509 OFFCURVE",
"275 509 CURVE SMOOTH",
"102 509 OFFCURVE",
"63 462 OFFCURVE",
"63 250 CURVE SMOOTH",
"63 38 OFFCURVE",
"102 -9 OFFCURVE",
"275 -9 CURVE SMOOTH"
);
},
{
closed = 1;
nodes = (
"156 410 LINE SMOOTH",
"156 430 OFFCURVE",
"166 434 OFFCURVE",
"205 434 CURVE SMOOTH",
"395 434 LINE",
"395 90 LINE SMOOTH",
"395 70 OFFCURVE",
"385 66 OFFCURVE",
"346 66 CURVE SMOOTH",
"156 66 LINE"
);
}
);
width = 550;
}
);
leftKerningGroup = o;
rightKerningGroup = o;
unicode = 006F;
},
{
color = 10;
glyphname = oe;
layers = (
{
anchors = (
{
name = bottom;
position = "{439, 0}";
},
{
name = top;
position = "{439, 500}";
}
);
hints = (
{
horizontal = 1;
origin = "{2, 20}";
target = "{2, 19}";
},
{
horizontal = 1;
origin = "{2, 27}";
target = "{2, 13}";
},
{
horizontal = 1;
origin = "{2, 33}";
target = "{2, 6}";
},
{
place = "{71.5, 115.5}";
},
{
origin = "{2, 15}";
target = "{2, 24}";
},
{
origin = "{2, 30}";
target = "{2, 9}";
},
{
horizontal = 1;
origin = "{0, 11}";
target = up;
type = BottomGhost;
},
{
horizontal = 1;
origin = "{0, 5}";
target = down;
type = TopGhost;
}
);
layerId = "4B38D994-FE59-4B2C-A746-78B1495748E0";
paths = (
{
closed = 1;
nodes = (
"441 -9 OFFCURVE",
"478 38 OFFCURVE",
"478 250 CURVE SMOOTH",
"478 464 OFFCURVE",
"443 509 OFFCURVE",
"275 509 CURVE SMOOTH",
"102 509 OFFCURVE",
"63 462 OFFCURVE",
"63 250 CURVE SMOOTH",
"63 38 OFFCURVE",
"102 -9 OFFCURVE",
"275 -9 CURVE SMOOTH"
);
},
{
closed = 1;
nodes = (
"156 410 LINE SMOOTH",
"156 430 OFFCURVE",
"166 434 OFFCURVE",
"205 434 CURVE SMOOTH",
"395 434 LINE",
"395 90 LINE SMOOTH",
"395 70 OFFCURVE",
"385 66 OFFCURVE",
"346 66 CURVE SMOOTH",
"156 66 LINE"
);
},
{
closed = 1;
nodes = (
"654 -9 OFFCURVE",
"731 2 OFFCURVE",
"781 20 CURVE",
"769 87 LINE",
"695 68 OFFCURVE",
"649 63 OFFCURVE",
"597 63 CURVE SMOOTH",
"550 63 OFFCURVE",
"518 66 OFFCURVE",
"486 74 CURVE",
"486 374 LINE SMOOTH",
"486 420 OFFCURVE",
"505 434 OFFCURVE",
"570 434 CURVE SMOOTH",
"713 434 LINE",
"713 324 LINE SMOOTH",
"713 278 OFFCURVE",
"694 265 OFFCURVE",
"628 265 CURVE SMOOTH",
"456 265 LINE",
"456 203 LINE",
"486 203 LINE SMOOTH",
"760 203 OFFCURVE",
"794 221 OFFCURVE",
"794 362 CURVE SMOOTH",
"794 478 OFFCURVE",
"753 509 OFFCURVE",
"598 509 CURVE SMOOTH",
"445 509 OFFCURVE",
"401 451 OFFCURVE",
"401 250 CURVE SMOOTH",
"401 44 OFFCURVE",
"436 -9 OFFCURVE",
"579 -9 CURVE SMOOTH"
);
}
);
width = 867;
}
);
leftKerningGroup = o;
leftMetricsKey = o;
rightKerningGroup = e;
rightMetricsKey = e;
unicode = 0153;
},
{
color = 10;
glyphname = p;
layers = (
{
hints = (
{
horizontal = 1;
origin = "{0, 11}";
target = "{1, 9}";
},
{
horizontal = 1;
origin = "{0, 5}";
target = "{1, 3}";
},
{
horizontal = 1;
origin = "{0, 5}";
target = down;
type = TopGhost;
},
{
origin = "{2, 4}";
target = "{2, 0}";
},
{
origin = "{1, 5}";
target = "{0, 2}";
},
{
horizontal = 1;
origin = "{2, 4}";
target = up;
type = BottomGhost;
},
{
horizontal = 1;
origin = "{0, 11}";
target = up;
type = BottomGhost;
}
);
layerId = "4B38D994-FE59-4B2C-A746-78B1495748E0";
paths = (
{
closed = 1;
nodes = (
"470 -15 OFFCURVE",
"503 35 OFFCURVE",
"503 250 CURVE SMOOTH",
"503 463 OFFCURVE",
"473 509 OFFCURVE",
"327 509 CURVE SMOOTH",
"153 509 OFFCURVE",
"124 474 OFFCURVE",
"124 250 CURVE SMOOTH",
"124 23 OFFCURVE",
"153 -15 OFFCURVE",
"327 -15 CURVE SMOOTH"
);
},
{
closed = 1;
nodes = (
"184 415 LINE SMOOTH",
"184 430 OFFCURVE",
"195 434 OFFCURVE",
"231 434 CURVE SMOOTH",
"409 434 LINE",
"409 85 LINE SMOOTH",
"409 65 OFFCURVE",
"399 60 OFFCURVE",
"363 60 CURVE SMOOTH",
"184 60 LINE"
);
},
{
closed = 1;
nodes = (
"184 -167 LINE",
"184 404 LINE",
"135 500 LINE",
"94 500 LINE",
"94 -178 LINE"
);
}
);
width = 566;
}
);
leftKerningGroup = p;
leftMetricsKey = n;
rightKerningGroup = o;
rightMetricsKey = o;
unicode = 0070;
},
{
color = 10;
glyphname = thorn;
layers = (
{
hints = (
{
horizontal = 1;
origin = "{0, 11}";
target = "{1, 9}";
},
{
horizontal = 1;
origin = "{0, 5}";
target = "{1, 3}";
},
{
horizontal = 1;
place = "{715, -22}";
target = down;
type = TopGhost;
},
{
origin = "{2, 3}";
target = "{2, 0}";
},
{
origin = "{1, 5}";
target = "{0, 2}";
},
{
horizontal = 1;
origin = "{0, 11}";
target = up;
type = BottomGhost;
},
{
horizontal = 1;
origin = "{0, 5}";
target = down;
type = TopGhost;
}
);
layerId = "4B38D994-FE59-4B2C-A746-78B1495748E0";
paths = (
{
closed = 1;
nodes = (
"470 -15 OFFCURVE",
"503 35 OFFCURVE",
"503 250 CURVE SMOOTH",
"503 463 OFFCURVE",
"473 509 OFFCURVE",
"327 509 CURVE SMOOTH",
"153 509 OFFCURVE",
"124 474 OFFCURVE",
"124 250 CURVE SMOOTH",
"124 23 OFFCURVE",
"153 -15 OFFCURVE",
"327 -15 CURVE SMOOTH"
);
},
{
closed = 1;
nodes = (
"184 415 LINE SMOOTH",
"184 430 OFFCURVE",
"195 434 OFFCURVE",
"231 434 CURVE SMOOTH",
"409 434 LINE",
"409 85 LINE SMOOTH",
"409 65 OFFCURVE",
"399 60 OFFCURVE",
"363 60 CURVE SMOOTH",
"184 60 LINE"
);
},
{
closed = 1;
nodes = (
"184 -167 LINE",
"184 665 LINE",
"94 650 LINE",
"94 -178 LINE"
);
}
);
width = 566;
}
);
leftKerningGroup = p;
leftMetricsKey = n;
rightKerningGroup = o;
rightMetricsKey = o;
unicode = 00FE;
},
{
color = 10;
glyphname = q;
layers = (
{
hints = (
{
horizontal = 1;
origin = "{0, 11}";
target = "{1, 9}";
},
{
horizontal = 1;
origin = "{0, 5}";
target = "{1, 3}";
},
{
horizontal = 1;
origin = "{0, 5}";
target = "{1, 3}";
},
{
origin = "{0, 8}";
target = "{1, 9}";
},
{
origin = "{2, 3}";
target = "{2, 4}";
},
{
horizontal = 1;
origin = "{0, 11}";
target = up;
type = BottomGhost;
},
{
horizontal = 1;
origin = "{0, 5}";
target = down;
type = TopGhost;
}
);
layerId = "4B38D994-FE59-4B2C-A746-78B1495748E0";
paths = (
{
closed = 1;
nodes = (
"414 -15 OFFCURVE",
"442 23 OFFCURVE",
"442 250 CURVE SMOOTH",
"442 474 OFFCURVE",
"414 509 OFFCURVE",
"239 509 CURVE SMOOTH",
"94 509 OFFCURVE",
"63 463 OFFCURVE",
"63 250 CURVE SMOOTH",
"63 35 OFFCURVE",
"96 -15 OFFCURVE",
"239 -15 CURVE SMOOTH"
);
},
{
closed = 1;
nodes = (
"157 415 LINE SMOOTH",
"157 430 OFFCURVE",
"168 434 OFFCURVE",
"204 434 CURVE SMOOTH",
"382 434 LINE",
"382 85 LINE SMOOTH",
"382 65 OFFCURVE",
"372 60 OFFCURVE",
"336 60 CURVE SMOOTH",
"157 60 LINE"
);
},
{
closed = 1;
nodes = (
"472 500 LINE",
"431 500 LINE",
"382 404 LINE",
"382 -178 LINE",
"472 -167 LINE"
);
}
);
width = 566;
}
);
leftKerningGroup = o;
leftMetricsKey = o;
rightKerningGroup = q;
rightMetricsKey = "=|n";
unicode = 0071;
},
{
color = 10;
glyphname = r;
layers = (
{
anchors = (
{
name = bottom;
position = "{139, 0}";
},
{
name = top;
position = "{197, 500}";
}
);
hints = (
{
origin = "{0, 1}";
target = "{0, 2}";
},
{
horizontal = 1;
origin = "{0, 7}";
target = "{0, 6}";
},
{
horizontal = 1;
origin = "{0, 1}";
target = up;
type = BottomGhost;
},
{
horizontal = 1;
origin = "{0, 0}";
target = down;
type = TopGhost;
}
);
layerId = "4B38D994-FE59-4B2C-A746-78B1495748E0";
paths = (
{
closed = 1;
nodes = (
"94 500 LINE",
"94 0 LINE",
"184 0 LINE",
"184 360 LINE",
"218 386 OFFCURVE",
"270 413 OFFCURVE",
"314 427 CURVE",
"305 515 LINE",
"270 502 OFFCURVE",
"231 475 OFFCURVE",
"169 420 CURVE",
"136 500 LINE"
);
}
);
width = 330;
}
);
leftKerningGroup = n;
leftMetricsKey = n;
rightKerningGroup = r;
unicode = 0072;
},
{
color = 10;
glyphname = s;
layers = (
{
anchors = (
{
name = bottom;
position = "{239, 0}";
},
{
name = top;
position = "{245, 500}";
}
);
hints = (
{
horizontal = 1;
origin = "{0, 13}";
target = "{0, 6}";
},
{
horizontal = 1;
origin = "{0, 30}";
target = "{0, 23}";
},
{
horizontal = 1;
origin = "{0, 30}";
target = down;
type = TopGhost;
},
{
origin = "{0, 33}";
target = "{0, 19}";
},
{
origin = "{0, 3}";
target = "{0, 16}";
},
{
horizontal = 1;
origin = "{0, 13}";
target = up;
type = BottomGhost;
},
{
horizontal = 1;
origin = "{0, 30}";
target = down;
type = TopGhost;
}
);
layerId = "4B38D994-FE59-4B2C-A746-78B1495748E0";
paths = (
{
closed = 1;
nodes = (
"58 251 OFFCURVE",
"86 234 OFFCURVE",
"336 198 CURVE",
"336 72 LINE",
"294 60 OFFCURVE",
"269 57 OFFCURVE",
"227 57 CURVE SMOOTH",
"168 57 OFFCURVE",
"113 67 OFFCURVE",
"62 87 CURVE",
"47 14 LINE",
"109 -5 OFFCURVE",
"167 -15 OFFCURVE",
"224 -15 CURVE SMOOTH",
"375 -15 OFFCURVE",
"430 27 OFFCURVE",
"430 140 CURVE SMOOTH",
"430 249 OFFCURVE",
"388 274 OFFCURVE",
"152 308 CURVE",
"152 434 LINE",
"184 439 OFFCURVE",
"225 443 OFFCURVE",
"269 443 CURVE SMOOTH",
"309 443 OFFCURVE",
"359 436 OFFCURVE",
"392 427 CURVE",
"405 493 LINE",
"352 508 OFFCURVE",
"302 515 OFFCURVE",
"244 515 CURVE SMOOTH",
"116 515 OFFCURVE",
"58 470 OFFCURVE",
"58 368 CURVE SMOOTH"
);
}
);
width = 477;
}
);
leftKerningGroup = s;
rightKerningGroup = s;
unicode = 0073;
},
{
color = 10;
glyphname = germandbls;
lastChange = "2016-02-27 16:04:48 +0000";
layers = (
{
hints = (
{
horizontal = 1;
origin = "{0, 43}";
target = "{0, 36}";
},
{
horizontal = 1;
origin = "{0, 15}";
target = "{0, 16}";
},
{
horizontal = 1;
origin = "{0, 23}";
target = "{0, 11}";
},
{
origin = "{0, 18}";
target = "{0, 19}";
},
{
origin = "{0, 33}";
target = "{0, 2}";
},
{
origin = "{0, 26}";
target = "{0, 8}";
},
{
horizontal = 1;
origin = "{0, 18}";
target = up;
type = BottomGhost;
},
{
horizontal = 1;
origin = "{0, 43}";
target = up;
type = BottomGhost;
},
{
horizontal = 1;
origin = "{0, 11}";
target = down;
type = TopGhost;
}
);
layerId = "4B38D994-FE59-4B2C-A746-78B1495748E0";
paths = (
{
closed = 1;
nodes = (
"522 -15 OFFCURVE",
"577 30 OFFCURVE",
"577 135 CURVE SMOOTH",
"577 221 OFFCURVE",
"541 260 OFFCURVE",
"400 322 CURVE",
"485 414 OFFCURVE",
"514 466 OFFCURVE",
"514 526 CURVE SMOOTH",
"514 627 OFFCURVE",
"449 675 OFFCURVE",
"309 675 CURVE SMOOTH",
"183 675 OFFCURVE",
"133 629 OFFCURVE",
"124 500 CURVE",
"52 500 LINE",
"52 437 LINE",
"124 437 LINE",
"124 0 LINE",
"214 0 LINE",
"214 594 LINE",
"249 601 OFFCURVE",
"276 603 OFFCURVE",
"298 603 CURVE SMOOTH",
"384 603 OFFCURVE",
"424 575 OFFCURVE",
"424 515 CURVE SMOOTH",
"424 418 OFFCURVE",
"323 383 OFFCURVE",
"323 314 CURVE SMOOTH",
"323 278 OFFCURVE",
"340 266 OFFCURVE",
"487 196 CURVE",
"487 65 LINE",
"469 59 OFFCURVE",
"444 57 OFFCURVE",
"409 57 CURVE SMOOTH",
"364 57 OFFCURVE",
"310 67 OFFCURVE",
"268 83 CURVE",
"253 9 LINE",
"305 -7 OFFCURVE",
"354 -15 OFFCURVE",
"395 -15 CURVE SMOOTH"
);
}
);
width = 624;
}
);
leftKerningGroup = h;
leftMetricsKey = f;
rightKerningGroup = germandbls;
rightMetricsKey = s;
unicode = 00DF;
},
{
color = 10;
glyphname = t;
layers = (
{
anchors = (
{
name = bottom;
position = "{177, 0}";
},
{
name = center;
position = "{170, 261}";
},
{
name = top;
position = "{170, 625}";
},
{
name = topright;
position = "{266, 500}";
}
);
hints = (
{
horizontal = 1;
origin = "{0, 12}";
target = "{0, 3}";
},
{
horizontal = 1;
origin = "{1, 2}";
target = "{1, 3}";
},
{
horizontal = 1;
origin = "{0, 7}";
target = down;
type = TopGhost;
},
{
origin = "{0, 9}";
target = "{0, 6}";
},
{
horizontal = 1;
origin = "{0, 12}";
target = up;
type = BottomGhost;
},
{
horizontal = 1;
origin = "{0, 7}";
target = down;
type = TopGhost;
}
);
layerId = "4B38D994-FE59-4B2C-A746-78B1495748E0";
paths = (
{
closed = 1;
nodes = (
"213 -9 OFFCURVE",
"241 -7 OFFCURVE",
"281 1 CURVE",
"287 62 LINE",
"252 63 OFFCURVE",
"233 65 OFFCURVE",
"215 67 CURVE",
"215 632 LINE",
"125 610 LINE",
"125 62 LINE SMOOTH",
"125 14 OFFCURVE",
"147 -9 OFFCURVE",
"194 -9 CURVE SMOOTH"
);
},
{
closed = 1;
nodes = (
"306 437 LINE",
"306 500 LINE",
"53 500 LINE",
"53 437 LINE"
);
}
);
width = 353;
}
);
leftKerningGroup = t;
rightKerningGroup = t;
unicode = 0074;
},
{
color = 10;
glyphname = u;
layers = (
{
anchors = (
{
name = bottom;
position = "{287, 0}";
},
{
name = ogonek;
position = "{479, 0}";
},
{
name = top;
position = "{287, 500}";
},
{
name = topright;
position = "{480, 500}";
}
);
hints = (
{
horizontal = 1;
origin = "{0, 11}";
target = "{0, 5}";
},
{
horizontal = 1;
origin = "{0, 7}";
target = down;
type = TopGhost;
},
{
origin = "{0, 8}";
target = "{0, 5}";
},
{
origin = "{0, 1}";
target = "{0, 16}";
},
{
horizontal = 1;
origin = "{0, 7}";
target = down;
type = TopGhost;
},
{
horizontal = 1;
origin = "{0, 11}";
target = up;
type = BottomGhost;
}
);
layerId = "4B38D994-FE59-4B2C-A746-78B1495748E0";
paths = (
{
closed = 1;
nodes = (
"390 500 LINE",
"390 123 LINE SMOOTH",
"390 75 OFFCURVE",
"370 62 OFFCURVE",
"301 62 CURVE SMOOTH",
"179 62 LINE",
"179 500 LINE",
"89 500 LINE",
"89 92 LINE SMOOTH",
"89 22 OFFCURVE",
"130 -9 OFFCURVE",
"219 -9 CURVE SMOOTH",
"301 -9 OFFCURVE",
"362 9 OFFCURVE",
"415 50 CURVE",
"440 0 LINE",
"480 0 LINE",
"480 500 LINE"
);
}
);
width = 574;
}
);
leftKerningGroup = u;
leftMetricsKey = "=|n";
rightKerningGroup = u;
rightMetricsKey = "=|n";
unicode = 0075;
},
{
color = 10;
glyphname = v;
layers = (
{
hints = (
{
horizontal = 1;
origin = "{0, 0}";
target = "{0, 5}";
},
{
horizontal = 1;
origin = "{0, 0}";
target = up;
type = BottomGhost;
},
{
horizontal = 1;
origin = "{0, 7}";
target = down;
type = TopGhost;
}
);
layerId = "4B38D994-FE59-4B2C-A746-78B1495748E0";
paths = (
{
closed = 1;
nodes = (
"157 0 LINE",
"295 0 LINE",
"446 500 LINE",
"357 500 LINE",
"231 76 LINE",
"221 76 LINE",
"95 500 LINE",
"6 500 LINE"
);
}
);
width = 453;
}
);
leftKerningGroup = v;
rightKerningGroup = v;
unicode = 0076;
},
{
color = 10;
glyphname = w;
layers = (
{
anchors = (
{
name = bottom;
position = "{346, 0}";
},
{
name = top;
position = "{346, 500}";
}
);
hints = (
{
horizontal = 1;
origin = "{1, 7}";
target = "{1, 4}";
},
{
horizontal = 1;
origin = "{1, 7}";
target = up;
type = BottomGhost;
},
{
horizontal = 1;
origin = "{1, 6}";
target = down;
type = TopGhost;
}
);
layerId = "4B38D994-FE59-4B2C-A746-78B1495748E0";
paths = (
{
closed = 1;
nodes = (
"560 0 LINE",
"686 500 LINE",
"597 500 LINE",
"497 76 LINE",
"487 76 LINE",
"389 500 LINE",
"315 500 LINE",
"435 0 LINE"
);
},
{
closed = 1;
nodes = (
"257 0 LINE",
"377 500 LINE",
"304 500 LINE",
"205 76 LINE",
"195 76 LINE",
"95 500 LINE",
"6 500 LINE",
"132 0 LINE"
);
}
);
width = 692;
}
);
leftKerningGroup = w;
rightKerningGroup = w;
unicode = 0077;
},
{
color = 10;
glyphname = x;
layers = (
{
hints = (
{
horizontal = 1;
origin = "{1, 3}";
target = up;
type = BottomGhost;
},
{
horizontal = 1;
origin = "{0, 2}";
target = down;
type = TopGhost;
}
);
layerId = "4B38D994-FE59-4B2C-A746-78B1495748E0";
paths = (
{
closed = 1;
nodes = (
"472 0 LINE",
"129 500 LINE",
"34 500 LINE",
"377 0 LINE"
);
},
{
closed = 1;
nodes = (
"123 0 LINE",
"258 212 LINE",
"205 270 LINE",
"28 0 LINE"
);
},
{
closed = 1;
nodes = (
"467 500 LINE",
"372 500 LINE",
"237 288 LINE",
"290 232 LINE"
);
}
);
width = 500;
}
);
leftKerningGroup = x;
rightKerningGroup = x;
unicode = 0078;
},
{
color = 10;
glyphname = y;
layers = (
{
anchors = (
{
name = bottom;
position = "{221, -175}";
},
{
name = top;
position = "{221, 500}";
}
);
hints = (
{
horizontal = 1;
origin = "{0, 7}";
target = "{0, 4}";
},
{
horizontal = 1;
origin = "{1, 12}";
target = "{1, 8}";
},
{
horizontal = 1;
origin = "{1, 12}";
target = up;
type = BottomGhost;
},
{
horizontal = 1;
origin = "{0, 6}";
target = down;
type = TopGhost;
}
);
layerId = "4B38D994-FE59-4B2C-A746-78B1495748E0";
paths = (
{
closed = 1;
nodes = (
"290 28 LINE",
"436 500 LINE",
"347 500 LINE",
"226 104 LINE",
"216 104 LINE",
"95 500 LINE",
"6 500 LINE",
"152 28 LINE"
);
},
{
closed = 1;
nodes = (
"192 -175 OFFCURVE",
"242 -125 OFFCURVE",
"289 28 CURVE",
"202 28 LINE",
"192 -4 LINE SMOOTH",
"169 -79 OFFCURVE",
"148 -98 OFFCURVE",
"71 -108 CURVE SMOOTH",
"7 -116 LINE",
"4 -164 LINE",
"27 -171 OFFCURVE",
"60 -175 OFFCURVE",
"88 -175 CURVE SMOOTH"
);
}
);
width = 443;
}
);
leftKerningGroup = y;
rightKerningGroup = y;
unicode = 0079;
},
{
color = 10;
glyphname = z;
layers = (
{
anchors = (
{
name = bottom;
position = "{234, 0}";
},
{
name = top;
position = "{255, 500}";
}
);
hints = (
{
horizontal = 1;
origin = "{0, 1}";
target = "{0, 4}";
},
{
horizontal = 1;
origin = "{0, 8}";
target = "{0, 9}";
},
{
horizontal = 1;
origin = "{0, 1}";
target = up;
type = BottomGhost;
},
{
horizontal = 1;
origin = "{0, 8}";
target = down;
type = TopGhost;
}
);
layerId = "4B38D994-FE59-4B2C-A746-78B1495748E0";
paths = (
{
closed = 1;
nodes = (
"40 50 LINE",
"40 0 LINE",
"421 0 LINE",
"421 65 LINE",
"154 65 LINE",
"151 71 LINE",
"427 451 LINE",
"427 500 LINE",
"60 500 LINE",
"68 435 LINE",
"312 435 LINE",
"316 429 LINE"
);
}
);
width = 467;
}
);
leftKerningGroup = z;
rightKerningGroup = z;
unicode = 007A;
},
{
color = 10;
glyphname = ordfeminine;
lastChange = "2016-02-27 16:04:48 +0000";
layers = (
{
components = (
{
name = strokeshortcomb;
transform = "{1.1, 0, 0, 1, 11, -18}";
}
);
hints = (
{
horizontal = 1;
origin = "{0, 12}";
target = "{0, 15}";
},
{
horizontal = 1;
origin = "{0, 8}";
},
{
horizontal = 1;
place = "{728.2, 68.2}";
},
{
origin = "{0, 12}";
target = "{0, 24}";
},
{
origin = "{0, 30}";
target = "{0, 3}";
}
);
layerId = "4B38D994-FE59-4B2C-A746-78B1495748E0";
paths = (
{
closed = 1;
nodes = (
"206 342 OFFCURVE",
"251 357 OFFCURVE",
"289 389 CURVE",
"310 350 LINE",
"346 350 LINE",
"347 637 LINE SMOOTH",
"347 718 OFFCURVE",
"309 747 OFFCURVE",
"202 747 CURVE SMOOTH",
"150 747 OFFCURVE",
"86 737 OFFCURVE",
"47 724 CURVE",
"57 667 LINE",
"104 678 OFFCURVE",
"150 685 OFFCURVE",
"189 685 CURVE SMOOTH",
"221 685 OFFCURVE",
"246 683 OFFCURVE",
"268 678 CURVE",
"268 447 LINE SMOOTH",
"268 413 OFFCURVE",
"254 403 OFFCURVE",
"205 403 CURVE SMOOTH",
"99 403 LINE",
"99 487 LINE SMOOTH",
"99 522 OFFCURVE",
"115 532 OFFCURVE",
"163 532 CURVE SMOOTH",
"292 532 LINE",
"292 579 LINE",
"257 579 LINE SMOOTH",
"57 579 OFFCURVE",
"29 564 OFFCURVE",
"29 459 CURVE SMOOTH",
"29 376 OFFCURVE",
"63 342 OFFCURVE",
"149 342 CURVE SMOOTH"
);
}
);
width = 391;
}
);
leftKerningGroup = ordfeminine;
leftMetricsKey = "=a/2";
rightKerningGroup = ordfeminine;
rightMetricsKey = "=a/2";
unicode = 00AA;
userData = {
RMXScaler = {
source = a;
};
};
},
{
color = 10;
glyphname = ordmasculine;
layers = (
{
components = (
{
name = strokeshortcomb;
transform = "{1.2, 0, 0, 1, 57, -18}";
}
);
hints = (
{
horizontal = 1;
place = "{764.5, 0}";
},
{
horizontal = 1;
place = "{775.5, 68.2}";
},
{
origin = "{0, 8}";
target = "{1, 0}";
},
{
origin = "{0, 5}";
target = "{0, 5}";
}
);
layerId = "4B38D994-FE59-4B2C-A746-78B1495748E0";
paths = (
{
closed = 1;
nodes = (
"393 352 OFFCURVE",
"424 393 OFFCURVE",
"424 560 CURVE SMOOTH",
"424 728 OFFCURVE",
"394 768 OFFCURVE",
"249 768 CURVE SMOOTH",
"106 768 OFFCURVE",
"73 727 OFFCURVE",
"73 560 CURVE SMOOTH",
"73 393 OFFCURVE",
"106 352 OFFCURVE",
"249 352 CURVE SMOOTH"
);
},
{
closed = 1;
nodes = (
"153 683 LINE SMOOTH",
"153 699 OFFCURVE",
"162 703 OFFCURVE",
"193 703 CURVE SMOOTH",
"344 703 LINE",
"344 437 LINE SMOOTH",
"344 421 OFFCURVE",
"336 417 OFFCURVE",
"305 417 CURVE SMOOTH",
"153 417 LINE"
);
}
);
width = 497;
}
);
leftKerningGroup = ordmasculine;
rightKerningGroup = ordmasculine;
unicode = 00BA;
userData = {
RMXScaler = {
source = o;
};
};
},
{
color = 10;
glyphname = Omega;
layers = (
{
layerId = "4B38D994-FE59-4B2C-A746-78B1495748E0";
paths = (
{
closed = 1;
nodes = (
"427 571 LINE SMOOTH",
"471 571 OFFCURVE",
"502 567 OFFCURVE",
"502 507 CURVE SMOOTH",
"502 183 LINE",
"413 183 LINE",
"428 0 LINE",
"613 0 LINE",
"613 57 LINE",
"485 65 LINE",
"478 137 LINE",
"576 160 OFFCURVE",
"599 202 OFFCURVE",
"599 375 CURVE SMOOTH",
"599 598 OFFCURVE",
"547 640 OFFCURVE",
"330 640 CURVE SMOOTH",
"112 640 OFFCURVE",
"61 598 OFFCURVE",
"61 375 CURVE SMOOTH",
"61 202 OFFCURVE",
"83 160 OFFCURVE",
"181 137 CURVE",
"175 65 LINE",
"46 57 LINE",
"46 0 LINE",
"232 0 LINE",
"247 183 LINE",
"194 183 OFFCURVE",
"157 189 OFFCURVE",
"157 272 CURVE SMOOTH",
"157 571 LINE"
);
}
);
width = 660;
}
);
leftKerningGroup = uni03A9;
rightKerningGroup = uni03A9;
unicode = 03A9;
},
{
color = 10;
glyphname = pi;
layers = (
{
layerId = "4B38D994-FE59-4B2C-A746-78B1495748E0";
paths = (
{
closed = 1;
nodes = (
"164 0 LINE",
"223 384 LINE SMOOTH",
"226 408 OFFCURVE",
"245 422 OFFCURVE",
"275 422 CURVE SMOOTH",
"471 421 LINE SMOOTH",
"536 421 OFFCURVE",
"547 437 OFFCURVE",
"547 529 CURVE",
"477 536 LINE",
"476 521 OFFCURVE",
"474 509 OFFCURVE",
"471 500 CURVE",
"83 500 LINE",
"83 439 LINE",
"131 427 LINE",
"100 0 LINE"
);
},
{
closed = 1;
nodes = (
"484 -6 OFFCURVE",
"501 -3 OFFCURVE",
"531 4 CURVE",
"537 66 LINE",
"520 67 OFFCURVE",
"507 69 OFFCURVE",
"491 70 CURVE",
"491 442 LINE",
"401 442 LINE",
"401 65 LINE SMOOTH",
"401 17 OFFCURVE",
"423 -6 OFFCURVE",
"470 -6 CURVE SMOOTH"
);
}
);
width = 613;
}
);
leftKerningGroup = pi;
rightKerningGroup = pi;
unicode = 03C0;
},
{
color = 4;
glyphname = "hamza-ar";
layers = (
{
anchors = (
{
name = bottom;
position = "{211, 0}";
},
{
name = top;
position = "{211, 500}";
}
);
hints = (
{
horizontal = 1;
origin = "{0, 6}";
target = "{0, 7}";
},
{
origin = "{0, 10}";
target = "{0, 2}";
}
);
layerId = "4B38D994-FE59-4B2C-A746-78B1495748E0";
paths = (
{
closed = 1;
nodes = (
"187 144 OFFCURVE",
"169 154 OFFCURVE",
"169 209 CURVE SMOOTH",
"169 371 LINE",
"217 398 OFFCURVE",
"290 413 OFFCURVE",
"361 413 CURVE",
"361 494 LINE",
"170 494 OFFCURVE",
"91 426 OFFCURVE",
"91 261 CURVE SMOOTH",
"91 201 OFFCURVE",
"101 156 OFFCURVE",
"120 126 CURVE",
"20 99 LINE",
"20 22 LINE",
"401 125 LINE",
"401 201 LINE",
"249 161 LINE SMOOTH"
);
}
);
width = 420;
}
);
unicode = 0621;
},
{
color = 4;
glyphname = "alef-ar";
layers = (
{
anchors = (
{
name = bottom;
position = "{139, -80}";
},
{
name = top;
position = "{139, 730}";
}
);
hints = (
{
horizontal = 1;
origin = "{0, 3}";
target = up;
type = BottomGhost;
},
{
horizontal = 1;
origin = "{0, 2}";
target = down;
type = TopGhost;
},
{
origin = "{0, 3}";
target = "{0, 0}";
},
{
horizontal = 1;
origin = "{0, 3}";
target = up;
type = BottomGhost;
},
{
horizontal = 1;
origin = "{0, 2}";
target = down;
type = TopGhost;
}
);
layerId = "4B38D994-FE59-4B2C-A746-78B1495748E0";
paths = (
{
closed = 1;
nodes = (
"175 0 LINE",
"175 630 LINE",
"103 630 LINE",
"103 0 LINE"
);
}
);
width = 278;
}
);
unicode = 0627;
},
{
color = 4;
glyphname = "alef-ar.fina";
layers = (
{
anchors = (
{
name = bottom;
position = "{139, -80}";
},
{
name = entry;
position = "{278, 41}";
},
{
name = top;
position = "{139, 730}";
}
);
hints = (
{
horizontal = 1;
origin = "{0, 5}";
target = "{0, 2}";
},
{
horizontal = 1;
origin = "{0, 4}";
target = down;
type = TopGhost;
},
{
origin = "{0, 5}";
target = "{0, 2}";
},
{
horizontal = 1;
origin = "{0, 4}";
target = down;
type = TopGhost;
},
{
horizontal = 1;
origin = "{0, 5}";
target = up;
type = BottomGhost;
}
);
layerId = "4B38D994-FE59-4B2C-A746-78B1495748E0";
paths = (
{
closed = 1;
nodes = (
"298 0 LINE",
"298 81 LINE",
"175 81 LINE",
"175 630 LINE",
"103 630 LINE",
"103 0 LINE"
);
}
);
width = 278;
}
);
unicode = FE8E;
},
{
color = 4;
glyphname = "alef-ar.short";
layers = (
{
anchors = (
{
name = bottom;
position = "{139, -80}";
},
{
name = top;
position = "{139, 550}";
}
);
hints = (
{
horizontal = 1;
origin = "{0, 3}";
target = up;
type = BottomGhost;
},
{
horizontal = 1;
origin = "{0, 2}";
target = down;
type = TopGhost;
},
{
origin = "{0, 3}";
target = "{0, 0}";
}
);
layerId = "4B38D994-FE59-4B2C-A746-78B1495748E0";
paths = (
{
closed = 1;
nodes = (
"175 0 LINE",
"175 470 LINE",
"103 470 LINE",
"103 0 LINE"
);
}
);
width = 278;
}
);
},
{
color = 4;
glyphname = "alef-ar.fina.short";
layers = (
{
anchors = (
{
name = bottom;
position = "{139, -80}";
},
{
name = entry;
position = "{278, 41}";
},
{
name = top;
position = "{139, 550}";
}
);
hints = (
{
horizontal = 1;
origin = "{0, 5}";
target = "{0, 2}";
},
{
horizontal = 1;
origin = "{0, 4}";
target = down;
type = TopGhost;
},
{
origin = "{0, 5}";
target = "{0, 2}";
},
{
horizontal = 1;
origin = "{0, 5}";
target = up;
type = BottomGhost;
}
);
layerId = "4B38D994-FE59-4B2C-A746-78B1495748E0";
paths = (
{
closed = 1;
nodes = (
"298 0 LINE",
"298 81 LINE",
"175 81 LINE",
"175 470 LINE",
"103 470 LINE",
"103 0 LINE"
);
}
);
width = 278;
}
);
},
{
color = 4;
glyphname = "dotlessbeh-ar";
layers = (
{
anchors = (
{
name = bottom;
position = "{437, -91}";
},
{
name = top;
position = "{437, 450}";
}
);
hints = (
{
horizontal = 1;
origin = "{0, 17}";
target = "{0, 4}";
},
{
horizontal = 1;
origin = "{0, 2}";
target = down;
type = TopGhost;
},
{
origin = "{0, 14}";
target = "{0, 7}";
},
{
origin = "{0, 3}";
target = "{0, 0}";
}
);
layerId = "4B38D994-FE59-4B2C-A746-78B1495748E0";
paths = (
{
closed = 1;
nodes = (
"777 0 LINE",
"777 470 LINE",
"705 470 LINE",
"705 81 LINE",
"160 81 LINE",
"148 119 OFFCURVE",
"144 160 OFFCURVE",
"144 217 CURVE SMOOTH",
"144 261 OFFCURVE",
"152 313 OFFCURVE",
"168 368 CURVE",
"100 380 LINE",
"83 336 OFFCURVE",
"72 263 OFFCURVE",
"72 204 CURVE SMOOTH",
"72 54 OFFCURVE",
"107 0 OFFCURVE",
"208 0 CURVE"
);
}
);
width = 880;
}
);
unicode = 066E;
},
{
color = 4;
glyphname = "dotlessbeh-ar.fina";
layers = (
{
anchors = (
{
name = bottom;
position = "{437, -91}";
},
{
name = entry;
position = "{880, 41}";
},
{
name = top;
position = "{437, 450}";
}
);
components = (
{
name = "dotlessbeh-ar";
}
);
hints = (
{
horizontal = 1;
origin = "{0, 0}";
target = "{0, 3}";
}
);
layerId = "4B38D994-FE59-4B2C-A746-78B1495748E0";
paths = (
{
closed = 1;
nodes = (
"768 0 LINE",
"900 0 LINE",
"900 81 LINE",
"768 81 LINE"
);
}
);
width = 880;
}
);
leftMetricsKey = "=dotlessbeh-ar";
},
{
color = 4;
glyphname = "dotlessbeh-ar.medi";
layers = (
{
anchors = (
{
name = bottom;
position = "{177, -80}";
},
{
name = entry;
position = "{316, 41}";
},
{
name = exit;
position = "{0, 41}";
},
{
name = top;
position = "{177, 550}";
}
);
hints = (
{
horizontal = 1;
origin = "{0, 4}";
target = "{0, 3}";
},
{
horizontal = 1;
origin = "{0, 1}";
target = down;
type = TopGhost;
},
{
origin = "{0, 2}";
target = "{0, 7}";
}
);
layerId = "4B38D994-FE59-4B2C-A746-78B1495748E0";
paths = (
{
closed = 1;
nodes = (
"213 470 LINE",
"141 470 LINE",
"141 81 LINE",
"-20 81 LINE",
"-20 0 LINE",
"336 0 LINE",
"336 81 LINE",
"213 81 LINE"
);
}
);
width = 316;
}
);
},
{
color = 4;
glyphname = "dotlessbeh-ar.init";
layers = (
{
anchors = (
{
name = bottom;
position = "{177, -80}";
},
{
name = exit;
position = "{0, 41}";
},
{
name = top;
position = "{177, 550}";
}
);
hints = (
{
horizontal = 1;
origin = "{0, 5}";
target = "{0, 4}";
},
{
horizontal = 1;
origin = "{0, 2}";
target = down;
type = TopGhost;
},
{
origin = "{0, 3}";
target = "{0, 0}";
}
);
layerId = "4B38D994-FE59-4B2C-A746-78B1495748E0";
paths = (
{
closed = 1;
nodes = (
"213 0 LINE",
"213 470 LINE",
"141 470 LINE",
"141 81 LINE",
"-20 81 LINE",
"-20 0 LINE"
);
}
);
width = 316;
}
);
},
{
color = 0;
glyphname = "tcheh-ar";
layers = (
{
anchors = (
{
name = bottom;
position = "{267, -420}";
},
{
name = top;
position = "{277, 573}";
}
);
components = (
{
alignment = -1;
name = "threedotsdownbelow-ar";
transform = "{1.02, 0, 0, 1.02, 194, 131}";
}
);
hints = (
{
horizontal = 1;
origin = "{0, 16}";
target = "{0, 2}";
},
{
horizontal = 1;
origin = "{0, 9}";
target = "{0, 10}";
},
{
horizontal = 1;
origin = "{1, 7}";
target = "{1, 14}";
},
{
origin = "{0, 13}";
target = "{0, 5}";
}
);
layerId = "4B38D994-FE59-4B2C-A746-78B1495748E0";
paths = (
{
closed = 1;
nodes = (
"266 -189 OFFCURVE",
"232 -192 OFFCURVE",
"202 -192 CURVE SMOOTH",
"174 -192 OFFCURVE",
"151 -189 OFFCURVE",
"130 -185 CURVE",
"130 -3 LINE SMOOTH",
"130 126 OFFCURVE",
"241 174 OFFCURVE",
"552 174 CURVE",
"496 246 LINE",
"172 246 OFFCURVE",
"52 164 OFFCURVE",
"52 -54 CURVE SMOOTH",
"52 -217 OFFCURVE",
"82 -273 OFFCURVE",
"214 -273 CURVE SMOOTH",
"245 -273 OFFCURVE",
"280 -268 OFFCURVE",
"318 -259 CURVE",
"307 -184 LINE"
);
},
{
closed = 1;
nodes = (
"431 194 OFFCURVE",
"467 174 OFFCURVE",
"551 174 CURVE",
"551 246 LINE",
"495 246 LINE",
"434 412 OFFCURVE",
"337 479 OFFCURVE",
"155 479 CURVE SMOOTH",
"124 479 OFFCURVE",
"90 478 OFFCURVE",
"54 474 CURVE",
"66 395 LINE",
"89 398 OFFCURVE",
"116 399 OFFCURVE",
"147 399 CURVE SMOOTH",
"279 399 OFFCURVE",
"361 355 OFFCURVE",
"405 259 CURVE SMOOTH"
);
}
);
width = 544;
}
);
unicode = 0686;
},
{
color = 0;
glyphname = "tcheh-ar.fina";
layers = (
{
anchors = (
{
name = bottom;
position = "{362, -300}";
},
{
name = entry;
position = "{662, 41}";
},
{
name = top;
position = "{372, 573}";
}
);
components = (
{
alignment = -1;
name = "threedotsdownbelow-ar";
transform = "{1.02, 0, 0, 1.02, 194, 131}";
}
);
hints = (
{
horizontal = 1;
origin = "{1, 16}";
target = "{1, 2}";
},
{
horizontal = 1;
origin = "{0, 17}";
target = "{0, 20}";
},
{
horizontal = 1;
origin = "{1, 9}";
target = "{1, 10}";
},
{
horizontal = 1;
origin = "{0, 3}";
target = "{0, 10}";
},
{
origin = "{1, 13}";
target = "{1, 5}";
}
);
layerId = "4B38D994-FE59-4B2C-A746-78B1495748E0";
paths = (
{
closed = 1;
nodes = (
"553 270 LINE SMOOTH",
"498 420 OFFCURVE",
"417 479 OFFCURVE",
"250 479 CURVE SMOOTH",
"219 479 OFFCURVE",
"185 478 OFFCURVE",
"149 474 CURVE",
"161 395 LINE",
"190 398 OFFCURVE",
"216 399 OFFCURVE",
"239 399 CURVE SMOOTH",
"380 399 OFFCURVE",
"438 359 OFFCURVE",
"488 239 CURVE SMOOTH",
"558 56 LINE SMOOTH",
"573 17 OFFCURVE",
"593 0 OFFCURVE",
"632 0 CURVE SMOOTH",
"682 0 LINE",
"682 81 LINE",
"625 81 LINE"
);
},
{
closed = 1;
nodes = (
"266 -189 OFFCURVE",
"232 -192 OFFCURVE",
"202 -192 CURVE SMOOTH",
"174 -192 OFFCURVE",
"151 -189 OFFCURVE",
"130 -185 CURVE",
"130 -3 LINE SMOOTH",
"130 127 OFFCURVE",
"241 175 OFFCURVE",
"552 175 CURVE",
"496 238 LINE",
"172 238 OFFCURVE",
"52 159 OFFCURVE",
"52 -54 CURVE SMOOTH",
"52 -217 OFFCURVE",
"82 -273 OFFCURVE",
"214 -273 CURVE SMOOTH",
"245 -273 OFFCURVE",
"280 -268 OFFCURVE",
"318 -259 CURVE",
"307 -184 LINE"
);
}
);
width = 662;
}
);
unicode = FB7B;
},
{
color = 4;
glyphname = "hah-ar";
layers = (
{
anchors = (
{
name = bottom;
position = "{267, -318}";
},
{
name = center;
position = "{303, -53}";
},
{
name = top;
position = "{277, 573}";
}
);
color = 1;
hints = (
{
horizontal = 1;
origin = "{0, 20}";
target = "{0, 6}";
},
{
horizontal = 1;
origin = "{0, 13}";
target = "{0, 14}";
},
{
horizontal = 1;
origin = "{1, 7}";
target = "{1, 14}";
},
{
origin = "{0, 17}";
target = "{0, 9}";
}
);
layerId = "4B38D994-FE59-4B2C-A746-78B1495748E0";
paths = (
{
closed = 1;
nodes = (
"328 -275 OFFCURVE",
"404 -265 OFFCURVE",
"452 -247 CURVE",
"441 -172 LINE",
"365 -188 OFFCURVE",
"321 -194 OFFCURVE",
"274 -194 CURVE SMOOTH",
"208 -194 OFFCURVE",
"164 -191 OFFCURVE",
"130 -185 CURVE",
"130 -3 LINE SMOOTH",
"130 126 OFFCURVE",
"241 174 OFFCURVE",
"552 174 CURVE",
"496 246 LINE",
"172 246 OFFCURVE",
"52 164 OFFCURVE",
"52 -54 CURVE SMOOTH",
"52 -238 OFFCURVE",
"84 -275 OFFCURVE",
"247 -275 CURVE SMOOTH"
);
},
{
closed = 1;
nodes = (
"431 194 OFFCURVE",
"467 174 OFFCURVE",
"551 174 CURVE",
"551 246 LINE",
"495 246 LINE",
"434 412 OFFCURVE",
"337 479 OFFCURVE",
"155 479 CURVE SMOOTH",
"124 479 OFFCURVE",
"90 478 OFFCURVE",
"54 474 CURVE",
"66 395 LINE",
"89 398 OFFCURVE",
"116 399 OFFCURVE",
"147 399 CURVE SMOOTH",
"279 399 OFFCURVE",
"361 355 OFFCURVE",
"405 259 CURVE SMOOTH"
);
}
);
width = 551;
}
);
unicode = 062D;
},
{
color = 4;
glyphname = "hah-ar.fina";
layers = (
{
anchors = (
{
name = bottom;
position = "{267, -339}";
},
{
name = center;
position = "{301, -68}";
},
{
name = entry;
position = "{567, 41}";
},
{
name = top;
position = "{277, 573}";
}
);
hints = (
{
horizontal = 1;
origin = "{0, 20}";
target = "{0, 6}";
},
{
horizontal = 1;
origin = "{1, 17}";
target = "{1, 20}";
},
{
horizontal = 1;
place = "{191.4, 77}";
},
{
horizontal = 1;
origin = "{1, 3}";
target = "{1, 10}";
},
{
origin = "{0, 17}";
target = "{0, 9}";
}
);
layerId = "4B38D994-FE59-4B2C-A746-78B1495748E0";
paths = (
{
closed = 1;
nodes = (
"323 -275 OFFCURVE",
"401 -265 OFFCURVE",
"452 -247 CURVE",
"440 -172 LINE",
"366 -188 OFFCURVE",
"323 -194 OFFCURVE",
"273 -194 CURVE SMOOTH",
"215 -194 OFFCURVE",
"166 -192 OFFCURVE",
"129 -185 CURVE",
"129 -3 LINE SMOOTH",
"129 130 OFFCURVE",
"242 175 OFFCURVE",
"461 183 CURVE",
"443 246 LINE",
"180 238 OFFCURVE",
"52 169 OFFCURVE",
"52 -54 CURVE SMOOTH",
"52 -229 OFFCURVE",
"75 -275 OFFCURVE",
"247 -275 CURVE SMOOTH"
);
},
{
closed = 1;
nodes = (
"458 270 LINE SMOOTH",
"403 420 OFFCURVE",
"322 479 OFFCURVE",
"155 479 CURVE SMOOTH",
"124 479 OFFCURVE",
"91 478 OFFCURVE",
"54 474 CURVE",
"66 395 LINE",
"95 398 OFFCURVE",
"121 399 OFFCURVE",
"144 399 CURVE SMOOTH",
"285 399 OFFCURVE",
"343 359 OFFCURVE",
"393 239 CURVE SMOOTH",
"463 56 LINE SMOOTH",
"478 17 OFFCURVE",
"498 0 OFFCURVE",
"537 0 CURVE SMOOTH",
"587 0 LINE",
"587 81 LINE",
"530 81 LINE"
);
}
);
width = 567;
}
);
unicode = FEA2;
},
{
color = 4;
glyphname = "hah-ar.medi";
layers = (
{
anchors = (
{
name = bottom;
position = "{260, -80}";
},
{
name = entry;
position = "{567, 41}";
},
{
name = exit;
position = "{0, 41}";
},
{
name = top;
position = "{234, 550}";
}
);
hints = (
{
horizontal = 1;
origin = "{1, 4}";
target = "{1, 3}";
},
{
horizontal = 1;
origin = "{0, 3}";
target = "{0, 10}";
}
);
layerId = "4B38D994-FE59-4B2C-A746-78B1495748E0";
paths = (
{
closed = 1;
nodes = (
"458 270 LINE SMOOTH",
"403 420 OFFCURVE",
"322 479 OFFCURVE",
"155 479 CURVE SMOOTH",
"125 479 OFFCURVE",
"91 478 OFFCURVE",
"54 474 CURVE",
"66 395 LINE",
"95 398 OFFCURVE",
"120 399 OFFCURVE",
"144 399 CURVE SMOOTH",
"285 399 OFFCURVE",
"343 359 OFFCURVE",
"393 239 CURVE SMOOTH",
"463 56 LINE SMOOTH",
"478 17 OFFCURVE",
"498 0 OFFCURVE",
"537 0 CURVE SMOOTH",
"587 0 LINE",
"587 81 LINE",
"530 81 LINE"
);
},
{
closed = 1;
nodes = (
"370 181 OFFCURVE",
"304 81 OFFCURVE",
"197 81 CURVE SMOOTH",
"-20 81 LINE",
"-20 0 LINE",
"162 0 LINE SMOOTH",
"328 0 OFFCURVE",
"418 103 OFFCURVE",
"466 229 CURVE",
"400 260 LINE"
);
}
);
width = 567;
}
);
unicode = FEA4;
},
{
color = 4;
glyphname = "hah-ar.init";
layers = (
{
anchors = (
{
name = bottom;
position = "{263, -80}";
},
{
name = exit;
position = "{0, 41}";
},
{
name = top;
position = "{234, 550}";
}
);
hints = (
{
horizontal = 1;
origin = "{1, 4}";
target = "{1, 3}";
},
{
horizontal = 1;
origin = "{0, 15}";
target = "{0, 18}";
},
{
horizontal = 1;
origin = "{0, 2}";
target = "{0, 9}";
}
);
layerId = "4B38D994-FE59-4B2C-A746-78B1495748E0";
paths = (
{
closed = 1;
nodes = (
"404 418 OFFCURVE",
"323 479 OFFCURVE",
"155 479 CURVE SMOOTH",
"125 479 OFFCURVE",
"91 478 OFFCURVE",
"54 474 CURVE",
"66 395 LINE",
"95 398 OFFCURVE",
"120 399 OFFCURVE",
"144 399 CURVE SMOOTH",
"286 399 OFFCURVE",
"348 362 OFFCURVE",
"393 239 CURVE SMOOTH",
"407 200 OFFCURVE",
"428 183 OFFCURVE",
"467 183 CURVE SMOOTH",
"551 183 LINE",
"551 264 LINE",
"459 264 LINE"
);
},
{
closed = 1;
nodes = (
"366 181 OFFCURVE",
"290 81 OFFCURVE",
"167 81 CURVE SMOOTH",
"-20 81 LINE",
"-20 0 LINE",
"143 0 LINE SMOOTH",
"320 0 OFFCURVE",
"415 103 OFFCURVE",
"466 229 CURVE",
"400 260 LINE"
);
}
);
width = 551;
}
);
note = "25-11 cambio de estructura";
unicode = FEA3;
},
{
color = 4;
glyphname = "dal-ar";
layers = (
{
anchors = (
{
name = bottom;
position = "{211, -80}";
},
{
name = top;
position = "{171, 550}";
}
);
hints = (
{
horizontal = 1;
origin = "{0, 16}";
target = "{0, 15}";
},
{
horizontal = 1;
origin = "{0, 11}";
target = "{0, 4}";
}
);
layerId = "4B38D994-FE59-4B2C-A746-78B1495748E0";
paths = (
{
closed = 1;
nodes = (
"460 0 LINE",
"460 63 LINE",
"345 454 OFFCURVE",
"318 491 OFFCURVE",
"142 491 CURVE SMOOTH",
"118 491 OFFCURVE",
"84 487 OFFCURVE",
"50 480 CURVE",
"70 400 LINE",
"92 406 OFFCURVE",
"121 410 OFFCURVE",
"142 410 CURVE SMOOTH",
"261 410 OFFCURVE",
"295 360 OFFCURVE",
"374 81 CURVE",
"20 81 LINE",
"20 0 LINE"
);
}
);
width = 510;
}
);
unicode = 062F;
},
{
color = 4;
glyphname = "dal-ar.fina";
layers = (
{
anchors = (
{
name = bottom;
position = "{209, -80}";
},
{
name = entry;
position = "{488, 41}";
},
{
name = top;
position = "{171, 550}";
}
);
components = (
{
name = "dal-ar";
}
);
hints = (
{
horizontal = 1;
origin = "{0, 0}";
target = "{0, 3}";
},
{
origin = "{0, 0}";
target = "{0, 1}";
}
);
layerId = "4B38D994-FE59-4B2C-A746-78B1495748E0";
paths = (
{
closed = 1;
nodes = (
"442 0 LINE",
"508 0 LINE",
"508 81 LINE",
"442 81 LINE"
);
}
);
width = 488;
}
);
unicode = FEAA;
},
{
color = 4;
glyphname = "reh-ar";
layers = (
{
anchors = (
{
name = bottom;
position = "{113, -330}";
},
{
name = top;
position = "{169, 550}";
}
);
color = 1;
hints = (
{
origin = "{0, 5}";
target = "{0, 2}";
},
{
horizontal = 1;
origin = "{0, 4}";
target = down;
type = TopGhost;
},
{
horizontal = 1;
origin = "{0, 9}";
target = up;
type = BottomGhost;
}
);
layerId = "4B38D994-FE59-4B2C-A746-78B1495748E0";
paths = (
{
closed = 1;
nodes = (
"163 -206 OFFCURVE",
"205 -131 OFFCURVE",
"205 -3 CURVE SMOOTH",
"205 470 LINE",
"133 470 LINE",
"133 -3 LINE SMOOTH",
"133 -106 OFFCURVE",
"106 -156 OFFCURVE",
"29 -194 CURVE",
"61 -256 LINE"
);
}
);
width = 308;
}
);
unicode = 0631;
},
{
color = 4;
glyphname = "reh-ar.fina";
layers = (
{
anchors = (
{
name = bottom;
position = "{114, -330}";
},
{
name = entry;
position = "{307, 41}";
},
{
name = top;
position = "{168, 550}";
}
);
components = (
{
name = "reh-ar";
}
);
hints = (
{
horizontal = 1;
origin = "{0, 0}";
target = "{0, 3}";
}
);
layerId = "4B38D994-FE59-4B2C-A746-78B1495748E0";
paths = (
{
closed = 1;
nodes = (
"204 0 LINE",
"327 0 LINE",
"327 81 LINE",
"204 81 LINE"
);
}
);
width = 307;
}
);
unicode = FEAE;
},
{
color = 4;
glyphname = "seen-ar";
layers = (
{
anchors = (
{
name = bottom;
position = "{874, -80}";
},
{
name = top;
position = "{829, 550}";
}
);
color = 1;
hints = (
{
horizontal = 1;
origin = "{0, 22}";
target = "{0, 9}";
},
{
horizontal = 1;
origin = "{2, 10}";
target = "{2, 9}";
},
{
origin = "{0, 19}";
target = "{0, 12}";
},
{
origin = "{0, 5}";
target = "{0, 2}";
},
{
origin = "{2, 5}";
target = "{1, 16}";
},
{
origin = "{1, 9}";
target = "{1, 2}";
},
{
horizontal = 1;
origin = "{0, 4}";
target = down;
type = TopGhost;
},
{
horizontal = 1;
origin = "{1, 5}";
target = down;
type = TopGhost;
}
);
layerId = "4B38D994-FE59-4B2C-A746-78B1495748E0";
paths = (
{
closed = 1;
nodes = (
"515 -240 OFFCURVE",
"556 -202 OFFCURVE",
"556 -41 CURVE SMOOTH",
"556 380 LINE",
"484 380 LINE",
"484 -106 LINE SMOOTH",
"484 -149 OFFCURVE",
"450 -159 OFFCURVE",
"344 -159 CURVE SMOOTH",
"155 -159 LINE",
"146 -114 OFFCURVE",
"143 -68 OFFCURVE",
"143 -3 CURVE SMOOTH",
"143 54 OFFCURVE",
"154 120 OFFCURVE",
"170 189 CURVE",
"99 201 LINE",
"81 146 OFFCURVE",
"71 56 OFFCURVE",
"71 -19 CURVE SMOOTH",
"71 -198 OFFCURVE",
"92 -240 OFFCURVE",
"296 -240 CURVE SMOOTH"
);
},
{
closed = 1;
nodes = (
"1123 0 OFFCURVE",
"1152 60 OFFCURVE",
"1152 258 CURVE SMOOTH",
"1152 319 OFFCURVE",
"1138 416 OFFCURVE",
"1125 468 CURVE",
"1054 456 LINE",
"1070 384 OFFCURVE",
"1080 314 OFFCURVE",
"1080 256 CURVE SMOOTH",
"1080 183 OFFCURVE",
"1077 131 OFFCURVE",
"1068 81 CURVE",
"932 81 LINE SMOOTH",
"875 81 OFFCURVE",
"854 91 OFFCURVE",
"854 134 CURVE SMOOTH",
"854 380 LINE",
"782 380 LINE",
"782 182 LINE SMOOTH",
"782 34 OFFCURVE",
"813 0 OFFCURVE",
"980 0 CURVE SMOOTH"
);
},
{
closed = 1;
nodes = (
"825 0 OFFCURVE",
"854 34 OFFCURVE",
"854 182 CURVE SMOOTH",
"854 380 LINE",
"782 380 LINE",
"782 134 LINE SMOOTH",
"782 91 OFFCURVE",
"760 81 OFFCURVE",
"704 81 CURVE SMOOTH",
"556 81 LINE",
"556 0 LINE",
"658 0 LINE SMOOTH"
);
}
);
width = 1244;
}
);
unicode = 0633;
},
{
color = 4;
glyphname = "seen-ar.fina";
layers = (
{
anchors = (
{
name = bottom;
position = "{874, -80}";
},
{
name = entry;
position = "{1255, 41}";
},
{
name = top;
position = "{829, 550}";
}
);
color = 1;
components = (
{
name = "seen-ar";
}
);
hints = (
{
horizontal = 1;
origin = "{0, 0}";
target = "{0, 3}";
}
);
layerId = "4B38D994-FE59-4B2C-A746-78B1495748E0";
paths = (
{
closed = 1;
nodes = (
"980 0 LINE",
"1274 0 LINE",
"1274 81 LINE",
"1089 81 LINE"
);
}
);
width = 1255;
}
);
unicode = FEB2;
},
{
color = 4;
glyphname = "seen-ar.medi";
layers = (
{
anchors = (
{
name = bottom;
position = "{486, -80}";
},
{
name = entry;
position = "{912, 41}";
},
{
name = exit;
position = "{0, 41}";
},
{
name = top;
position = "{486, 550}";
}
);
hints = (
{
horizontal = 1;
origin = "{2, 4}";
target = "{2, 3}";
},
{
origin = "{2, 2}";
target = "{1, 10}";
},
{
origin = "{1, 5}";
target = "{0, 16}";
},
{
origin = "{0, 9}";
target = "{0, 2}";
},
{
horizontal = 1;
origin = "{2, 1}";
target = down;
type = TopGhost;
},
{
horizontal = 1;
origin = "{0, 5}";
target = down;
type = TopGhost;
}
);
layerId = "4B38D994-FE59-4B2C-A746-78B1495748E0";
paths = (
{
closed = 1;
nodes = (
"780 0 OFFCURVE",
"809 60 OFFCURVE",
"809 258 CURVE SMOOTH",
"809 319 OFFCURVE",
"795 416 OFFCURVE",
"782 468 CURVE",
"711 456 LINE",
"727 384 OFFCURVE",
"737 314 OFFCURVE",
"737 256 CURVE SMOOTH",
"737 183 OFFCURVE",
"734 131 OFFCURVE",
"725 81 CURVE",
"589 81 LINE SMOOTH",
"533 81 OFFCURVE",
"511 91 OFFCURVE",
"511 134 CURVE SMOOTH",
"511 380 LINE",
"439 380 LINE",
"439 182 LINE SMOOTH",
"439 34 OFFCURVE",
"470 0 OFFCURVE",
"639 0 CURVE SMOOTH"
);
},
{
closed = 1;
nodes = (
"482 0 OFFCURVE",
"511 34 OFFCURVE",
"511 182 CURVE SMOOTH",
"511 380 LINE",
"439 380 LINE",
"439 134 LINE SMOOTH",
"439 91 OFFCURVE",
"417 81 OFFCURVE",
"361 81 CURVE SMOOTH",
"213 81 LINE",
"213 0 LINE",
"315 0 LINE"
);
},
{
closed = 1;
nodes = (
"213 380 LINE",
"141 380 LINE",
"141 81 LINE",
"-20 81 LINE",
"-20 0 LINE",
"213 0 LINE"
);
},
{
closed = 1;
nodes = (
"638 0 LINE",
"931 0 LINE",
"931 81 LINE",
"746 81 LINE"
);
}
);
width = 912;
}
);
unicode = FEB4;
},
{
color = 4;
glyphname = "seen-ar.init";
layers = (
{
anchors = (
{
name = bottom;
position = "{486, -80}";
},
{
name = exit;
position = "{0, 41}";
},
{
name = top;
position = "{486, 550}";
}
);
hints = (
{
horizontal = 1;
origin = "{2, 4}";
target = "{2, 3}";
},
{
origin = "{2, 2}";
target = "{1, 10}";
},
{
origin = "{1, 5}";
target = "{0, 16}";
},
{
origin = "{0, 9}";
target = "{0, 2}";
}
);
layerId = "4B38D994-FE59-4B2C-A746-78B1495748E0";
paths = (
{
closed = 1;
nodes = (
"780 0 OFFCURVE",
"809 60 OFFCURVE",
"809 258 CURVE SMOOTH",
"809 319 OFFCURVE",
"795 416 OFFCURVE",
"782 468 CURVE",
"711 456 LINE",
"727 384 OFFCURVE",
"737 314 OFFCURVE",
"737 256 CURVE SMOOTH",
"737 183 OFFCURVE",
"734 131 OFFCURVE",
"725 81 CURVE",
"589 81 LINE SMOOTH",
"533 81 OFFCURVE",
"511 91 OFFCURVE",
"511 134 CURVE SMOOTH",
"511 380 LINE",
"439 380 LINE",
"439 182 LINE SMOOTH",
"439 34 OFFCURVE",
"470 0 OFFCURVE",
"638 0 CURVE SMOOTH"
);
},
{
closed = 1;
nodes = (
"482 0 OFFCURVE",
"511 34 OFFCURVE",
"511 182 CURVE SMOOTH",
"511 380 LINE",
"439 380 LINE",
"439 134 LINE SMOOTH",
"439 91 OFFCURVE",
"417 81 OFFCURVE",
"361 81 CURVE SMOOTH",
"213 81 LINE",
"213 0 LINE",
"315 0 LINE SMOOTH"
);
},
{
closed = 1;
nodes = (
"213 380 LINE",
"141 380 LINE",
"141 81 LINE",
"-20 81 LINE",
"-20 0 LINE",
"213 0 LINE"
);
}
);
width = 901;
}
);
unicode = FEB3;
},
{
color = 4;
glyphname = "sad-ar";
layers = (
{
anchors = (
{
name = bottom;
position = "{817, -80}";
},
{
name = top;
position = "{817, 550}";
}
);
color = 1;
hints = (
{
horizontal = 1;
origin = "{0, 22}";
target = "{0, 9}";
},
{
horizontal = 1;
origin = "{1, 1}";
target = "{1, 0}";
},
{
horizontal = 1;
origin = "{2, 4}";
target = "{2, 14}";
},
{
horizontal = 1;
origin = "{2, 9}";
target = down;
type = TopGhost;
},
{
origin = "{0, 19}";
target = "{0, 12}";
},
{
origin = "{0, 5}";
target = "{0, 2}";
},
{
origin = "{2, 18}";
target = "{1, 2}";
},
{
horizontal = 1;
origin = "{2, 9}";
target = down;
type = TopGhost;
},
{
horizontal = 1;
origin = "{0, 16}";
target = down;
type = TopGhost;
}
);
layerId = "4B38D994-FE59-4B2C-A746-78B1495748E0";
paths = (
{
closed = 1;
nodes = (
"515 -240 OFFCURVE",
"556 -202 OFFCURVE",
"556 -41 CURVE SMOOTH",
"556 47 LINE",
"484 47 LINE",
"484 -106 LINE SMOOTH",
"484 -149 OFFCURVE",
"450 -159 OFFCURVE",
"344 -159 CURVE SMOOTH",
"155 -159 LINE",
"146 -114 OFFCURVE",
"143 -68 OFFCURVE",
"143 -3 CURVE SMOOTH",
"143 54 OFFCURVE",
"154 120 OFFCURVE",
"170 189 CURVE",
"99 201 LINE",
"81 146 OFFCURVE",
"71 56 OFFCURVE",
"71 -19 CURVE SMOOTH",
"71 -198 OFFCURVE",
"92 -240 OFFCURVE",
"296 -240 CURVE SMOOTH"
);
},
{
closed = 1;
nodes = (
"527 81 LINE",
"527 0 LINE",
"1047 0 LINE",
"1013 81 LINE"
);
},
{
closed = 1;
nodes = (
"1048 0 LINE",
"1048 367 LINE SMOOTH",
"1048 453 OFFCURVE",
"1011 480 OFFCURVE",
"900 480 CURVE SMOOTH",
"724 480 OFFCURVE",
"602 409 OFFCURVE",
"556 280 CURVE",
"556 470 LINE",
"484 470 LINE",
"484 47 LINE",
"556 47 LINE",
"556 286 OFFCURVE",
"656 399 OFFCURVE",
"866 399 CURVE SMOOTH",
"917 399 OFFCURVE",
"954 395 OFFCURVE",
"976 388 CURVE",
"976 0 LINE"
);
}
);
width = 1147;
}
);
unicode = 0635;
},
{
color = 4;
glyphname = "sad-ar.fina";
layers = (
{
anchors = (
{
name = bottom;
position = "{817, -80}";
},
{
name = entry;
position = "{1153, 41}";
},
{
name = top;
position = "{817, 550}";
}
);
color = 1;
components = (
{
name = "sad-ar";
}
);
hints = (
{
horizontal = 1;
origin = "{0, 0}";
target = "{0, 3}";
}
);
layerId = "4B38D994-FE59-4B2C-A746-78B1495748E0";
paths = (
{
closed = 1;
nodes = (
"1048 0 LINE",
"1173 0 LINE",
"1173 81 LINE",
"1048 81 LINE"
);
}
);
width = 1153;
}
);
unicode = FEBA;
},
{
color = 4;
glyphname = "sad-ar.medi";
layers = (
{
anchors = (
{
name = bottom;
position = "{467, -80}";
},
{
name = entry;
position = "{808, 41}";
},
{
name = exit;
position = "{0, 41}";
},
{
name = top;
position = "{467, 550}";
}
);
color = 1;
hints = (
{
horizontal = 1;
origin = "{0, 1}";
target = "{0, 0}";
},
{
horizontal = 1;
origin = "{1, 4}";
target = "{1, 14}";
},
{
horizontal = 1;
origin = "{1, 9}";
target = down;
type = TopGhost;
},
{
origin = "{1, 10}";
target = "{1, 11}";
},
{
origin = "{1, 18}";
target = "{1, 0}";
}
);
layerId = "4B38D994-FE59-4B2C-A746-78B1495748E0";
paths = (
{
closed = 1;
nodes = (
"-20 81 LINE",
"-20 0 LINE",
"828 0 LINE",
"828 81 LINE"
);
},
{
closed = 1;
nodes = (
"705 47 LINE",
"705 367 LINE SMOOTH",
"705 453 OFFCURVE",
"668 480 OFFCURVE",
"557 480 CURVE SMOOTH",
"381 480 OFFCURVE",
"259 409 OFFCURVE",
"213 280 CURVE",
"213 470 LINE",
"141 470 LINE",
"141 47 LINE",
"213 47 LINE",
"213 286 OFFCURVE",
"313 399 OFFCURVE",
"523 399 CURVE SMOOTH",
"574 399 OFFCURVE",
"611 395 OFFCURVE",
"633 388 CURVE",
"633 47 LINE"
);
}
);
width = 808;
}
);
unicode = FEBC;
},
{
color = 4;
glyphname = "sad-ar.init";
layers = (
{
anchors = (
{
name = bottom;
position = "{467, -80}";
},
{
name = exit;
position = "{0, 41}";
},
{
name = top;
position = "{467, 550}";
}
);
color = 1;
hints = (
{
horizontal = 1;
origin = "{0, 1}";
target = "{0, 0}";
},
{
horizontal = 1;
origin = "{1, 4}";
target = "{1, 14}";
},
{
horizontal = 1;
origin = "{1, 9}";
target = down;
type = TopGhost;
},
{
origin = "{1, 10}";
target = "{1, 11}";
},
{
origin = "{1, 18}";
target = "{0, 2}";
}
);
layerId = "4B38D994-FE59-4B2C-A746-78B1495748E0";
paths = (
{
closed = 1;
nodes = (
"-20 81 LINE",
"-20 0 LINE",
"705 0 LINE",
"705 81 LINE"
);
},
{
closed = 1;
nodes = (
"705 0 LINE",
"705 367 LINE SMOOTH",
"705 453 OFFCURVE",
"668 480 OFFCURVE",
"557 480 CURVE SMOOTH",
"381 480 OFFCURVE",
"259 409 OFFCURVE",
"213 280 CURVE",
"213 470 LINE",
"141 470 LINE",
"141 47 LINE",
"213 47 LINE",
"213 286 OFFCURVE",
"313 399 OFFCURVE",
"523 399 CURVE SMOOTH",
"574 399 OFFCURVE",
"611 395 OFFCURVE",
"633 388 CURVE",
"633 0 LINE"
);
}
);
width = 803;
}
);
unicode = FEBB;
},
{
color = 4;
glyphname = "tah-ar";
layers = (
{
anchors = (
{
name = bottom;
position = "{467, -80}";
},
{
name = top;
position = "{500, 550}";
}
);
color = 1;
hints = (
{
horizontal = 1;
origin = "{0, 1}";
target = "{0, 0}";
},
{
horizontal = 1;
origin = "{1, 4}";
target = "{1, 14}";
},
{
horizontal = 1;
origin = "{1, 9}";
target = down;
type = TopGhost;
},
{
origin = "{1, 10}";
target = "{1, 11}";
},
{
origin = "{1, 18}";
target = "{0, 2}";
}
);
layerId = "4B38D994-FE59-4B2C-A746-78B1495748E0";
paths = (
{
closed = 1;
nodes = (
"20 81 LINE",
"20 0 LINE",
"705 0 LINE",
"705 81 LINE"
);
},
{
closed = 1;
nodes = (
"705 0 LINE",
"705 367 LINE SMOOTH",
"705 453 OFFCURVE",
"668 480 OFFCURVE",
"557 480 CURVE SMOOTH",
"381 480 OFFCURVE",
"259 409 OFFCURVE",
"213 280 CURVE",
"213 630 LINE",
"141 630 LINE",
"141 47 LINE",
"213 47 LINE",
"213 286 OFFCURVE",
"313 399 OFFCURVE",
"523 399 CURVE SMOOTH",
"574 399 OFFCURVE",
"611 395 OFFCURVE",
"633 388 CURVE",
"633 0 LINE"
);
}
);
width = 803;
}
);
unicode = 0637;
},
{
color = 4;
glyphname = "tah-ar.fina";
layers = (
{
anchors = (
{
name = bottom;
position = "{417, -80}";
},
{
name = entry;
position = "{808, 41}";
},
{
name = top;
position = "{493, 550}";
}
);
color = 1;
components = (
{
name = "tah-ar";
}
);
hints = (
{
horizontal = 1;
origin = "{0, 0}";
target = "{0, 3}";
}
);
layerId = "4B38D994-FE59-4B2C-A746-78B1495748E0";
paths = (
{
closed = 1;
nodes = (
"705 0 LINE",
"828 0 LINE",
"828 81 LINE",
"705 81 LINE"
);
}
);
width = 808;
}
);
leftMetricsKey = "tah-ar";
unicode = FEC2;
},
{
color = 4;
glyphname = "tah-ar.medi";
layers = (
{
anchors = (
{
name = bottom;
position = "{417, -80}";
},
{
name = entry;
position = "{808, 41}";
},
{
name = exit;
position = "{0, 41}";
},
{
name = top;
position = "{493, 550}";
}
);
color = 1;
hints = (
{
horizontal = 1;
origin = "{0, 1}";
target = "{0, 0}";
},
{
horizontal = 1;
origin = "{1, 4}";
target = "{1, 14}";
},
{
horizontal = 1;
origin = "{1, 9}";
target = down;
type = TopGhost;
},
{
origin = "{1, 10}";
target = "{1, 11}";
},
{
origin = "{1, 18}";
target = "{1, 0}";
}
);
layerId = "4B38D994-FE59-4B2C-A746-78B1495748E0";
paths = (
{
closed = 1;
nodes = (
"-20 81 LINE",
"-20 0 LINE",
"828 0 LINE",
"828 81 LINE"
);
},
{
closed = 1;
nodes = (
"705 0 LINE",
"705 367 LINE SMOOTH",
"705 453 OFFCURVE",
"668 480 OFFCURVE",
"557 480 CURVE SMOOTH",
"381 480 OFFCURVE",
"259 409 OFFCURVE",
"213 280 CURVE",
"213 630 LINE",
"141 630 LINE",
"141 47 LINE",
"213 47 LINE",
"213 286 OFFCURVE",
"313 399 OFFCURVE",
"523 399 CURVE SMOOTH",
"574 399 OFFCURVE",
"611 395 OFFCURVE",
"633 388 CURVE",
"633 0 LINE"
);
}
);
width = 808;
}
);
unicode = FEC4;
},
{
color = 4;
glyphname = "tah-ar.init";
layers = (
{
anchors = (
{
name = bottom;
position = "{417, -80}";
},
{
name = exit;
position = "{0, 41}";
},
{
name = top;
position = "{493, 550}";
}
);
color = 1;
hints = (
{
horizontal = 1;
origin = "{0, 1}";
target = "{0, 0}";
},
{
horizontal = 1;
origin = "{1, 4}";
target = "{1, 14}";
},
{
horizontal = 1;
origin = "{1, 9}";
target = down;
type = TopGhost;
},
{
origin = "{1, 10}";
target = "{1, 11}";
},
{
origin = "{0, 2}";
target = "{1, 0}";
}
);
layerId = "4B38D994-FE59-4B2C-A746-78B1495748E0";
paths = (
{
closed = 1;
nodes = (
"-20 81 LINE",
"-20 0 LINE",
"633 0 LINE",
"633 81 LINE"
);
},
{
closed = 1;
nodes = (
"705 0 LINE",
"705 367 LINE SMOOTH",
"705 453 OFFCURVE",
"668 480 OFFCURVE",
"557 480 CURVE SMOOTH",
"381 480 OFFCURVE",
"259 409 OFFCURVE",
"213 280 CURVE",
"213 630 LINE",
"141 630 LINE",
"141 47 LINE",
"213 47 LINE",
"213 286 OFFCURVE",
"313 399 OFFCURVE",
"523 399 CURVE SMOOTH",
"574 399 OFFCURVE",
"611 395 OFFCURVE",
"633 388 CURVE",
"633 0 LINE"
);
}
);
width = 803;
}
);
unicode = FEC3;
},
{
color = 4;
glyphname = "ain-ar";
layers = (
{
anchors = (
{
name = bottom;
position = "{267, -420}";
},
{
name = top;
position = "{325, 550}";
}
);
hints = (
{
horizontal = 1;
origin = "{1, 20}";
target = "{1, 6}";
},
{
horizontal = 1;
origin = "{1, 13}";
target = "{1, 14}";
},
{
horizontal = 1;
origin = "{0, 9}";
target = "{0, 2}";
},
{
origin = "{0, 12}";
target = "{0, 16}";
},
{
origin = "{1, 17}";
target = "{1, 9}";
}
);
layerId = "4B38D994-FE59-4B2C-A746-78B1495748E0";
paths = (
{
closed = 1;
nodes = (
"235 397 OFFCURVE",
"274 400 OFFCURVE",
"319 400 CURVE SMOOTH",
"372 400 OFFCURVE",
"432 392 OFFCURVE",
"491 375 CURVE",
"503 450 LINE",
"461 469 OFFCURVE",
"386 481 OFFCURVE",
"325 481 CURVE SMOOTH",
"163 481 OFFCURVE",
"130 434 OFFCURVE",
"130 245 CURVE SMOOTH",
"130 150 OFFCURVE",
"140 90 OFFCURVE",
"172 57 CURVE",
"208 87 LINE",
"208 388 LINE"
);
},
{
closed = 1;
nodes = (
"328 -326 OFFCURVE",
"404 -316 OFFCURVE",
"452 -298 CURVE",
"441 -223 LINE",
"365 -239 OFFCURVE",
"321 -245 OFFCURVE",
"274 -245 CURVE SMOOTH",
"208 -245 OFFCURVE",
"164 -242 OFFCURVE",
"130 -236 CURVE",
"130 -72 LINE SMOOTH",
"130 38 OFFCURVE",
"228 79 OFFCURVE",
"459 79 CURVE",
"459 147 LINE",
"162 147 OFFCURVE",
"52 78 OFFCURVE",
"52 -105 CURVE SMOOTH",
"52 -289 OFFCURVE",
"84 -326 OFFCURVE",
"247 -326 CURVE SMOOTH"
);
}
);
width = 570;
}
);
unicode = 0639;
},
{
color = 4;
glyphname = "ain-ar.fina";
layers = (
{
anchors = (
{
name = bottom;
position = "{267, -420}";
},
{
name = entry;
position = "{616, 41}";
},
{
name = top;
position = "{308, 550}";
}
);
hints = (
{
horizontal = 1;
origin = "{0, 2}";
target = "{0, 9}";
},
{
horizontal = 1;
origin = "{0, 19}";
target = "{0, 22}";
},
{
horizontal = 1;
origin = "{0, 31}";
target = "{1, 6}";
},
{
origin = "{0, 40}";
target = "{0, 12}";
},
{
origin = "{1, 0}";
target = "{0, 28}";
},
{
origin = "{0, 34}";
target = "{1, 6}";
}
);
layerId = "4B38D994-FE59-4B2C-A746-78B1495748E0";
paths = (
{
closed = 1;
nodes = (
"52 -281 OFFCURVE",
"91 -317 OFFCURVE",
"247 -317 CURVE SMOOTH",
"343 -317 OFFCURVE",
"412 -309 OFFCURVE",
"453 -293 CURVE",
"441 -214 LINE",
"362 -230 OFFCURVE",
"319 -236 OFFCURVE",
"274 -236 CURVE SMOOTH",
"212 -236 OFFCURVE",
"167 -233 OFFCURVE",
"130 -227 CURVE",
"130 -73 LINE SMOOTH",
"130 -39 OFFCURVE",
"213 0 OFFCURVE",
"306 37 CURVE",
"365 13 OFFCURVE",
"431 0 OFFCURVE",
"501 0 CURVE SMOOTH",
"636 0 LINE",
"636 81 LINE",
"488 81 LINE SMOOTH",
"454 81 OFFCURVE",
"422 84 OFFCURVE",
"392 89 CURVE",
"477 149 OFFCURVE",
"548 239 OFFCURVE",
"548 382 CURVE SMOOTH",
"548 459 OFFCURVE",
"498 479 OFFCURVE",
"308 479 CURVE SMOOTH",
"118 479 OFFCURVE",
"68 459 OFFCURVE",
"68 382 CURVE SMOOTH",
"68 257 OFFCURVE",
"132 148 OFFCURVE",
"234 78 CURVE",
"87 16 OFFCURVE",
"52 -20 OFFCURVE",
"52 -135 CURVE SMOOTH"
);
},
{
closed = 1;
nodes = (
"476 399 LINE",
"476 261 OFFCURVE",
"417 160 OFFCURVE",
"308 107 CURVE",
"222 149 OFFCURVE",
"140 233 OFFCURVE",
"140 399 CURVE"
);
}
);
width = 616;
}
);
unicode = FECA;
},
{
color = 4;
glyphname = "ain-ar.medi";
layers = (
{
anchors = (
{
name = bottom;
position = "{308, -80}";
},
{
name = entry;
position = "{616, 41}";
},
{
name = exit;
position = "{0, 41}";
},
{
name = top;
position = "{308, 550}";
}
);
hints = (
{
horizontal = 1;
origin = "{2, 0}";
target = "{2, 3}";
},
{
horizontal = 1;
origin = "{1, 10}";
target = "{1, 20}";
},
{
origin = "{1, 13}";
target = "{1, 20}";
},
{
origin = "{1, 0}";
target = "{1, 7}";
}
);
layerId = "4B38D994-FE59-4B2C-A746-78B1495748E0";
paths = (
{
closed = 1;
nodes = (
"501 0 LINE",
"636 0 LINE",
"636 81 LINE",
"501 81 LINE"
);
},
{
closed = 1;
nodes = (
"476 399 LINE",
"476 198 OFFCURVE",
"341 81 OFFCURVE",
"115 81 CURVE",
"115 0 LINE",
"358 0 OFFCURVE",
"548 167 OFFCURVE",
"548 382 CURVE SMOOTH",
"548 459 OFFCURVE",
"497 479 OFFCURVE",
"308 479 CURVE SMOOTH",
"118 479 OFFCURVE",
"68 459 OFFCURVE",
"68 382 CURVE SMOOTH",
"68 166 OFFCURVE",
"257 0 OFFCURVE",
"501 0 CURVE",
"501 81 LINE",
"275 81 OFFCURVE",
"140 198 OFFCURVE",
"140 399 CURVE"
);
},
{
closed = 1;
nodes = (
"-20 0 LINE",
"115 0 LINE",
"115 81 LINE",
"-20 81 LINE"
);
}
);
width = 616;
}
);
unicode = FECC;
},
{
color = 4;
glyphname = "ain-ar.init";
layers = (
{
anchors = (
{
name = bottom;
position = "{325, -91}";
},
{
name = exit;
position = "{0, 41}";
},
{
name = top;
position = "{325, 550}";
}
);
color = 1;
hints = (
{
horizontal = 1;
origin = "{0, 3}";
target = "{0, 2}";
},
{
horizontal = 1;
origin = "{1, 9}";
target = "{1, 2}";
},
{
origin = "{1, 12}";
target = "{1, 21}";
}
);
layerId = "4B38D994-FE59-4B2C-A746-78B1495748E0";
paths = (
{
closed = 1;
nodes = (
"311 0 LINE",
"237 81 LINE",
"-20 81 LINE",
"-20 0 LINE"
);
},
{
closed = 1;
nodes = (
"225 397 OFFCURVE",
"264 400 OFFCURVE",
"309 400 CURVE SMOOTH",
"362 400 OFFCURVE",
"422 392 OFFCURVE",
"481 375 CURVE",
"493 450 LINE",
"451 469 OFFCURVE",
"376 481 OFFCURVE",
"315 481 CURVE SMOOTH",
"153 481 OFFCURVE",
"120 434 OFFCURVE",
"120 245 CURVE SMOOTH",
"120 54 OFFCURVE",
"156 0 OFFCURVE",
"313 0 CURVE",
"529 0 LINE",
"529 81 LINE",
"294 81 LINE SMOOTH",
"229 81 OFFCURVE",
"196 102 OFFCURVE",
"198 158 CURVE SMOOTH",
"198 388 LINE"
);
}
);
width = 580;
}
);
unicode = FECB;
},
{
color = 4;
glyphname = "dotlessfeh-ar";
layers = (
{
anchors = (
{
name = bottom;
position = "{474, -80}";
},
{
name = top;
position = "{700, 550}";
}
);
color = 1;
hints = (
{
horizontal = 1;
origin = "{0, 24}";
target = "{0, 11}";
},
{
horizontal = 1;
origin = "{0, 4}";
target = "{1, 4}";
},
{
origin = "{0, 21}";
target = "{0, 14}";
},
{
origin = "{0, 7}";
target = "{1, 0}";
},
{
origin = "{1, 6}";
target = "{0, 0}";
},
{
horizontal = 1;
origin = "{0, 18}";
target = down;
type = TopGhost;
}
);
layerId = "4B38D994-FE59-4B2C-A746-78B1495748E0";
paths = (
{
closed = 1;
nodes = (
"877 0 LINE",
"877 449 LINE",
"796 472 OFFCURVE",
"742 479 OFFCURVE",
"671 479 CURVE SMOOTH",
"502 479 OFFCURVE",
"466 433 OFFCURVE",
"466 256 CURVE SMOOTH",
"466 166 OFFCURVE",
"469 117 OFFCURVE",
"475 81 CURVE",
"160 81 LINE",
"148 119 OFFCURVE",
"144 160 OFFCURVE",
"144 217 CURVE SMOOTH",
"144 261 OFFCURVE",
"152 313 OFFCURVE",
"168 368 CURVE",
"100 380 LINE",
"83 336 OFFCURVE",
"72 263 OFFCURVE",
"72 204 CURVE SMOOTH",
"72 54 OFFCURVE",
"107 0 OFFCURVE",
"208 0 CURVE SMOOTH"
);
},
{
closed = 1;
nodes = (
"543 81 LINE",
"543 340 LINE SMOOTH",
"543 386 OFFCURVE",
"553 397 OFFCURVE",
"590 397 CURVE SMOOTH",
"805 397 LINE",
"805 132 LINE SMOOTH",
"805 93 OFFCURVE",
"794 81 OFFCURVE",
"759 81 CURVE SMOOTH"
);
}
);
width = 980;
}
);
unicode = 06A1;
},
{
color = 4;
glyphname = "dotlessfeh-ar.fina";
layers = (
{
anchors = (
{
name = bottom;
position = "{474, -76}";
},
{
name = entry;
position = "{980, 40}";
},
{
name = top;
position = "{700, 550}";
}
);
color = 1;
components = (
{
name = "dotlessfeh-ar";
}
);
hints = (
{
horizontal = 1;
origin = "{0, 0}";
target = "{0, 3}";
}
);
layerId = "4B38D994-FE59-4B2C-A746-78B1495748E0";
paths = (
{
closed = 1;
nodes = (
"877 0 LINE",
"1000 0 LINE",
"1000 81 LINE",
"877 81 LINE"
);
}
);
width = 980;
}
);
},
{
color = 4;
glyphname = "dotlessfeh-ar.medi";
layers = (
{
anchors = (
{
name = bottom;
position = "{338, -80}";
},
{
name = entry;
position = "{647, 41}";
},
{
name = exit;
position = "{0, 41}";
},
{
name = top;
position = "{338, 550}";
}
);
components = (
{
name = "dotlessfeh-ar.init";
}
);
hints = (
{
horizontal = 1;
origin = "{0, 0}";
target = "{0, 3}";
}
);
layerId = "4B38D994-FE59-4B2C-A746-78B1495748E0";
paths = (
{
closed = 1;
nodes = (
"544 0 LINE",
"667 0 LINE",
"667 81 LINE",
"544 81 LINE"
);
}
);
width = 647;
}
);
},
{
color = 4;
glyphname = "dotlessfeh-ar.init";
layers = (
{
anchors = (
{
name = bottom;
position = "{338, -80}";
},
{
name = exit;
position = "{0, 41}";
},
{
name = top;
position = "{338, 550}";
}
);
color = 2;
hints = (
{
horizontal = 1;
origin = "{0, 0}";
target = "{0, 12}";
},
{
horizontal = 1;
origin = "{0, 5}";
target = "{1, 4}";
},
{
origin = "{0, 8}";
target = "{1, 0}";
},
{
origin = "{1, 6}";
target = "{0, 1}";
}
);
layerId = "4B38D994-FE59-4B2C-A746-78B1495748E0";
paths = (
{
closed = 1;
nodes = (
"-20 0 LINE SMOOTH",
"544 0 LINE",
"544 449 LINE",
"463 472 OFFCURVE",
"408 479 OFFCURVE",
"338 479 CURVE SMOOTH",
"169 479 OFFCURVE",
"133 433 OFFCURVE",
"133 256 CURVE SMOOTH",
"133 166 OFFCURVE",
"136 117 OFFCURVE",
"142 81 CURVE",
"-20 81 LINE"
);
},
{
closed = 1;
nodes = (
"209 81 LINE",
"209 340 LINE SMOOTH",
"209 385 OFFCURVE",
"219 396 OFFCURVE",
"256 396 CURVE SMOOTH",
"471 396 LINE",
"471 132 LINE SMOOTH",
"471 93 OFFCURVE",
"460 81 OFFCURVE",
"425 81 CURVE SMOOTH"
);
}
);
width = 647;
}
);
},
{
color = 4;
glyphname = "dotlessqaf-ar";
layers = (
{
anchors = (
{
name = bottom;
position = "{436, -330}";
},
{
name = top;
position = "{570, 550}";
}
);
color = 1;
hints = (
{
horizontal = 1;
origin = "{0, 20}";
target = "{0, 7}";
},
{
horizontal = 1;
origin = "{1, 10}";
target = "{2, 0}";
},
{
horizontal = 1;
origin = "{1, 4}";
target = "{2, 4}";
},
{
origin = "{0, 17}";
target = "{0, 10}";
},
{
origin = "{1, 7}";
target = "{2, 0}";
},
{
origin = "{0, 6}";
target = "{0, 3}";
}
);
layerId = "4B38D994-FE59-4B2C-A746-78B1495748E0";
paths = (
{
closed = 1;
nodes = (
"626 -258 LINE SMOOTH",
"735 -258 OFFCURVE",
"773 -218 OFFCURVE",
"773 -104 CURVE SMOOTH",
"773 0 LINE",
"701 0 LINE",
"701 -177 LINE",
"150 -177 LINE",
"137 -129 OFFCURVE",
"133 -78 OFFCURVE",
"133 -6 CURVE SMOOTH",
"133 47 OFFCURVE",
"141 111 OFFCURVE",
"157 179 CURVE",
"89 191 LINE",
"72 138 OFFCURVE",
"61 52 OFFCURVE",
"61 -19 CURVE SMOOTH",
"61 -196 OFFCURVE",
"96 -258 OFFCURVE",
"197 -258 CURVE SMOOTH"
);
},
{
closed = 1;
nodes = (
"773 0 LINE",
"773 449 LINE",
"705 472 OFFCURVE",
"650 479 OFFCURVE",
"567 479 CURVE SMOOTH",
"399 479 OFFCURVE",
"362 436 OFFCURVE",
"362 239 CURVE SMOOTH",
"362 47 OFFCURVE",
"389 0 OFFCURVE",
"500 0 CURVE SMOOTH"
);
},
{
closed = 1;
nodes = (
"438 81 LINE",
"438 342 LINE SMOOTH",
"438 387 OFFCURVE",
"448 399 OFFCURVE",
"483 399 CURVE SMOOTH",
"700 399 LINE",
"700 132 LINE SMOOTH",
"700 93 OFFCURVE",
"689 81 OFFCURVE",
"654 81 CURVE SMOOTH"
);
}
);
width = 876;
}
);
unicode = 066F;
},
{
color = 4;
glyphname = "dotlessqaf-ar.fina";
layers = (
{
anchors = (
{
name = bottom;
position = "{436, -330}";
},
{
name = entry;
position = "{876, 41}";
},
{
name = top;
position = "{570, 550}";
}
);
components = (
{
name = "dotlessqaf-ar";
}
);
hints = (
{
horizontal = 1;
origin = "{0, 0}";
target = "{0, 3}";
}
);
layerId = "4B38D994-FE59-4B2C-A746-78B1495748E0";
paths = (
{
closed = 1;
nodes = (
"773 0 LINE",
"896 0 LINE",
"896 81 LINE",
"773 81 LINE"
);
}
);
width = 876;
}
);
},
{
color = 4;
glyphname = "kaf-ar";
layers = (
{
anchors = (
{
name = bottom;
position = "{467, -80}";
},
{
name = top;
position = "{451, 690}";
}
);
color = 1;
components = (
{
name = "hamzaabove-ar";
transform = "{1, 0, 0, 1, 295, -200}";
}
);
hints = (
{
horizontal = 1;
origin = "{0, 12}";
target = "{0, 17}";
},
{
horizontal = 1;
origin = "{0, 15}";
target = down;
type = TopGhost;
},
{
origin = "{0, 9}";
target = "{0, 2}";
},
{
origin = "{0, 16}";
target = "{0, 13}";
},
{
horizontal = 1;
origin = "{0, 6}";
target = down;
type = TopGhost;
}
);
layerId = "4B38D994-FE59-4B2C-A746-78B1495748E0";
paths = (
{
closed = 1;
nodes = (
"148 119 OFFCURVE",
"144 160 OFFCURVE",
"144 217 CURVE SMOOTH",
"144 261 OFFCURVE",
"152 313 OFFCURVE",
"168 368 CURVE",
"100 380 LINE",
"83 336 OFFCURVE",
"72 263 OFFCURVE",
"72 204 CURVE SMOOTH",
"72 54 OFFCURVE",
"107 0 OFFCURVE",
"208 0 CURVE",
"777 0 LINE",
"777 630 LINE",
"705 630 LINE",
"705 81 LINE",
"160 81 LINE"
);
}
);
width = 865;
}
);
unicode = 0643;
},
{
color = 4;
glyphname = "kaf-ar.fina";
layers = (
{
anchors = (
{
name = bottom;
position = "{467, -80}";
},
{
name = entry;
position = "{880, 41}";
},
{
name = top;
position = "{451, 690}";
}
);
color = 1;
components = (
{
name = "kaf-ar";
}
);
hints = (
{
horizontal = 1;
origin = "{0, 0}";
target = "{0, 3}";
}
);
layerId = "4B38D994-FE59-4B2C-A746-78B1495748E0";
paths = (
{
closed = 1;
nodes = (
"777 0 LINE",
"900 0 LINE",
"900 81 LINE",
"777 81 LINE"
);
}
);
width = 880;
}
);
unicode = FEDA;
},
{
color = 4;
glyphname = "kaf-ar.medi";
layers = (
{
anchors = (
{
name = bottom;
position = "{360, -80}";
},
{
name = entry;
position = "{700, 41}";
},
{
name = exit;
position = "{1, 41}";
},
{
name = top;
position = "{360, 820}";
}
);
components = (
{
name = "kaf-ar.init";
}
);
hints = (
{
horizontal = 1;
origin = "{0, 0}";
target = "{0, 3}";
},
{
horizontal = 1;
place = "{344.3, 99}";
},
{
place = "{100.606, 96.294}";
},
{
place = "{563.2, 99}";
}
);
layerId = "4B38D994-FE59-4B2C-A746-78B1495748E0";
paths = (
{
closed = 1;
nodes = (
"596 0 LINE",
"719 0 LINE",
"719 81 LINE",
"596 81 LINE"
);
}
);
width = 700;
}
);
unicode = FEDC;
},
{
color = 4;
glyphname = "kaf-ar.init";
layers = (
{
anchors = (
{
name = bottom;
position = "{360, -80}";
},
{
name = exit;
position = "{1, 41}";
},
{
name = top;
position = "{360, 820}";
}
);
color = 1;
hints = (
{
horizontal = 1;
origin = "{0, 19}";
target = "{0, 18}";
},
{
horizontal = 1;
origin = "{0, 15}";
target = "{0, 5}";
},
{
origin = "{0, 12}";
target = "{0, 5}";
},
{
origin = "{0, 17}";
target = "{0, 0}";
},
{
horizontal = 1;
origin = "{0, 9}";
target = down;
type = TopGhost;
}
);
layerId = "4B38D994-FE59-4B2C-A746-78B1495748E0";
paths = (
{
closed = 1;
nodes = (
"597 0 LINE",
"597 296 LINE SMOOTH",
"597 374 OFFCURVE",
"574 397 OFFCURVE",
"496 397 CURVE SMOOTH",
"152 397 LINE",
"167 488 OFFCURVE",
"219 589 OFFCURVE",
"297 673 CURVE",
"235 706 LINE",
"157 627 OFFCURVE",
"88 482 OFFCURVE",
"88 397 CURVE SMOOTH",
"88 344 OFFCURVE",
"119 316 OFFCURVE",
"179 316 CURVE SMOOTH",
"525 316 LINE",
"525 81 LINE",
"-20 81 LINE",
"-20 0 LINE"
);
}
);
width = 700;
}
);
unicode = FEDB;
},
{
color = 4;
glyphname = "keheh-ar";
layers = (
{
anchors = (
{
name = bottom;
position = "{403, -80}";
},
{
name = top;
position = "{200, 665}";
}
);
hints = (
{
horizontal = 1;
origin = "{0, 31}";
target = "{0, 18}";
},
{
horizontal = 1;
origin = "{0, 15}";
target = "{0, 5}";
},
{
origin = "{0, 28}";
target = "{0, 21}";
},
{
origin = "{0, 17}";
target = "{0, 0}";
},
{
horizontal = 1;
origin = "{0, 9}";
target = down;
type = TopGhost;
},
{
horizontal = 1;
origin = "{0, 25}";
target = down;
type = TopGhost;
}
);
layerId = "4B38D994-FE59-4B2C-A746-78B1495748E0";
paths = (
{
closed = 1;
nodes = (
"736 0 LINE",
"736 296 LINE SMOOTH",
"736 374 OFFCURVE",
"713 397 OFFCURVE",
"635 397 CURVE SMOOTH",
"369 397 LINE",
"384 488 OFFCURVE",
"437 589 OFFCURVE",
"514 673 CURVE",
"452 706 LINE",
"374 627 OFFCURVE",
"305 482 OFFCURVE",
"305 397 CURVE SMOOTH",
"305 344 OFFCURVE",
"336 316 OFFCURVE",
"396 316 CURVE SMOOTH",
"664 316 LINE",
"664 81 LINE",
"160 81 LINE",
"148 119 OFFCURVE",
"144 160 OFFCURVE",
"144 217 CURVE SMOOTH",
"144 261 OFFCURVE",
"152 313 OFFCURVE",
"168 368 CURVE",
"100 380 LINE",
"83 336 OFFCURVE",
"72 263 OFFCURVE",
"72 204 CURVE SMOOTH",
"72 54 OFFCURVE",
"107 0 OFFCURVE",
"208 0 CURVE SMOOTH"
);
}
);
width = 839;
}
);
unicode = 06A9;
},
{
color = 4;
glyphname = "keheh-ar.fina";
layers = (
{
anchors = (
{
name = bottom;
position = "{411, -80}";
},
{
name = entry;
position = "{839, 40}";
},
{
name = top;
position = "{365, 723}";
}
);
components = (
{
name = "keheh-ar";
}
);
hints = (
{
horizontal = 1;
origin = "{0, 0}";
target = "{0, 3}";
}
);
layerId = "4B38D994-FE59-4B2C-A746-78B1495748E0";
paths = (
{
closed = 1;
nodes = (
"736 0 LINE",
"859 0 LINE",
"859 81 LINE",
"736 81 LINE"
);
}
);
width = 839;
}
);
unicode = FB8F;
},
{
color = 4;
glyphname = "lam-ar";
layers = (
{
anchors = (
{
name = bottom;
position = "{318, -330}";
},
{
name = top;
position = "{318, 700}";
}
);
hints = (
{
horizontal = 1;
origin = "{0, 12}";
target = "{0, 22}";
},
{
horizontal = 1;
origin = "{0, 17}";
target = down;
type = TopGhost;
},
{
origin = "{0, 9}";
target = "{0, 2}";
},
{
origin = "{0, 18}";
target = "{0, 15}";
},
{
horizontal = 1;
origin = "{0, 6}";
target = down;
type = TopGhost;
}
);
layerId = "4B38D994-FE59-4B2C-A746-78B1495748E0";
paths = (
{
closed = 1;
nodes = (
"146 -113 OFFCURVE",
"143 -68 OFFCURVE",
"143 -3 CURVE SMOOTH",
"143 63 OFFCURVE",
"151 139 OFFCURVE",
"167 219 CURVE",
"101 231 LINE",
"83 169 OFFCURVE",
"71 66 OFFCURVE",
"71 -19 CURVE SMOOTH",
"71 -198 OFFCURVE",
"103 -240 OFFCURVE",
"296 -240 CURVE SMOOTH",
"515 -240 OFFCURVE",
"556 -202 OFFCURVE",
"556 -41 CURVE SMOOTH",
"556 629 LINE",
"484 629 LINE",
"484 -106 LINE SMOOTH",
"484 -149 OFFCURVE",
"450 -159 OFFCURVE",
"344 -159 CURVE SMOOTH",
"155 -159 LINE"
);
}
);
width = 661;
}
);
unicode = 0644;
},
{
color = 4;
glyphname = "lam-ar.fina";
layers = (
{
anchors = (
{
name = bottom;
position = "{318, -330}";
},
{
name = entry;
position = "{659, 41}";
},
{
name = top;
position = "{318, 700}";
}
);
components = (
{
name = "lam-ar";
}
);
hints = (
{
horizontal = 1;
origin = "{0, 0}";
target = "{0, 3}";
}
);
layerId = "4B38D994-FE59-4B2C-A746-78B1495748E0";
paths = (
{
closed = 1;
nodes = (
"556 0 LINE",
"679 0 LINE",
"679 81 LINE",
"556 81 LINE"
);
}
);
width = 659;
}
);
unicode = FEDE;
},
{
color = 4;
glyphname = "lam-ar.medi";
layers = (
{
anchors = (
{
name = bottom;
position = "{177, -80}";
},
{
name = entry;
position = "{316, 41}";
},
{
name = exit;
position = "{0, 41}";
},
{
name = top;
position = "{177, 730}";
}
);
color = 1;
hints = (
{
horizontal = 1;
origin = "{0, 4}";
target = "{0, 3}";
},
{
horizontal = 1;
origin = "{0, 1}";
target = down;
type = TopGhost;
},
{
origin = "{0, 2}";
target = "{0, 7}";
}
);
layerId = "4B38D994-FE59-4B2C-A746-78B1495748E0";
paths = (
{
closed = 1;
nodes = (
"213 630 LINE",
"141 630 LINE",
"141 81 LINE",
"-20 81 LINE",
"-20 0 LINE",
"336 0 LINE",
"336 81 LINE",
"213 81 LINE"
);
}
);
width = 316;
}
);
unicode = FEE0;
},
{
color = 4;
glyphname = "lam-ar.init";
layers = (
{
anchors = (
{
name = bottom;
position = "{177, -37}";
},
{
name = entry;
position = "{0, 41}";
},
{
name = top;
position = "{177, 730}";
}
);
color = 1;
hints = (
{
horizontal = 1;
origin = "{0, 4}";
target = "{0, 3}";
},
{
horizontal = 1;
origin = "{0, 1}";
target = down;
type = TopGhost;
},
{
origin = "{0, 2}";
target = "{0, 5}";
}
);
layerId = "4B38D994-FE59-4B2C-A746-78B1495748E0";
paths = (
{
closed = 1;
nodes = (
"213 630 LINE",
"141 630 LINE",
"141 81 LINE",
"-20 81 LINE",
"-20 0 LINE",
"213 0 LINE"
);
}
);
width = 316;
}
);
unicode = FEDF;
},
{
color = 4;
glyphname = "meem-ar";
layers = (
{
anchors = (
{
name = bottom;
position = "{352, -80}";
},
{
name = top;
position = "{352, 550}";
}
);
color = 1;
hints = (
{
horizontal = 1;
origin = "{0, 6}";
target = "{0, 23}";
},
{
horizontal = 1;
origin = "{0, 11}";
target = "{0, 18}";
},
{
origin = "{0, 26}";
target = "{0, 3}";
},
{
origin = "{0, 22}";
target = "{0, 7}";
},
{
origin = "{1, 10}";
target = "{1, 3}";
},
{
horizontal = 1;
origin = "{0, 29}";
target = up;
type = BottomGhost;
}
);
layerId = "4B38D994-FE59-4B2C-A746-78B1495748E0";
paths = (
{
closed = 1;
nodes = (
"122 -320 LINE",
"102 -242 OFFCURVE",
"94 -189 OFFCURVE",
"94 -143 CURVE SMOOTH",
"94 -82 OFFCURVE",
"99 -40 OFFCURVE",
"110 0 CURVE",
"548 0 LINE",
"548 354 LINE SMOOTH",
"548 448 OFFCURVE",
"501 479 OFFCURVE",
"366 479 CURVE SMOOTH",
"287 479 OFFCURVE",
"204 464 OFFCURVE",
"156 440 CURVE",
"183 375 LINE",
"234 389 OFFCURVE",
"303 399 OFFCURVE",
"361 399 CURVE SMOOTH",
"410 399 OFFCURVE",
"444 395 OFFCURVE",
"476 387 CURVE",
"476 81 LINE",
"136 81 LINE SMOOTH",
"52 81 OFFCURVE",
"22 27 OFFCURVE",
"22 -128 CURVE SMOOTH",
"22 -199 OFFCURVE",
"34 -284 OFFCURVE",
"52 -334 CURVE"
);
},
{
closed = 1;
nodes = (
"226 33 LINE",
"190 82 OFFCURVE",
"182 154 OFFCURVE",
"182 226 CURVE SMOOTH",
"182 290 OFFCURVE",
"198 350 OFFCURVE",
"221 418 CURVE",
"156 440 LINE",
"129 374 OFFCURVE",
"110 303 OFFCURVE",
"110 226 CURVE SMOOTH",
"110 149 OFFCURVE",
"119 73 OFFCURVE",
"155 31 CURVE"
);
}
);
width = 651;
}
);
unicode = 0645;
},
{
color = 4;
glyphname = "meem-ar.fina";
layers = (
{
anchors = (
{
name = bottom;
position = "{352, -80}";
},
{
name = entry;
position = "{651, 41}";
},
{
name = top;
position = "{352, 550}";
}
);
color = 1;
components = (
{
name = "meem-ar";
}
);
hints = (
{
horizontal = 1;
origin = "{0, 0}";
target = "{0, 3}";
}
);
layerId = "4B38D994-FE59-4B2C-A746-78B1495748E0";
paths = (
{
closed = 1;
nodes = (
"548 0 LINE",
"671 0 LINE",
"671 81 LINE",
"548 81 LINE"
);
}
);
width = 651;
}
);
unicode = FEE2;
},
{
color = 4;
glyphname = "meem-ar.medi";
layers = (
{
anchors = (
{
name = bottom;
position = "{352, -80}";
},
{
name = entry;
position = "{651, 41}";
},
{
name = exit;
position = "{0, 41}";
},
{
name = top;
position = "{352, 550}";
}
);
components = (
{
name = "meem-ar.init";
}
);
hints = (
{
horizontal = 1;
origin = "{0, 0}";
target = "{0, 3}";
}
);
layerId = "4B38D994-FE59-4B2C-A746-78B1495748E0";
paths = (
{
closed = 1;
nodes = (
"548 0 LINE",
"671 0 LINE",
"671 81 LINE",
"548 81 LINE"
);
}
);
width = 651;
}
);
unicode = FEE4;
},
{
color = 4;
glyphname = "meem-ar.init";
layers = (
{
anchors = (
{
name = bottom;
position = "{352, -80}";
},
{
name = exit;
position = "{0, 41}";
},
{
name = top;
position = "{352, 550}";
}
);
color = 1;
hints = (
{
horizontal = 1;
origin = "{0, 12}";
target = "{0, 11}";
},
{
horizontal = 1;
origin = "{0, 17}";
target = "{0, 6}";
},
{
origin = "{1, 10}";
target = "{1, 3}";
},
{
origin = "{0, 10}";
target = "{0, 14}";
}
);
layerId = "4B38D994-FE59-4B2C-A746-78B1495748E0";
paths = (
{
closed = 1;
nodes = (
"296 479 OFFCURVE",
"208 467 OFFCURVE",
"156 440 CURVE",
"183 375 LINE",
"239 391 OFFCURVE",
"309 399 OFFCURVE",
"361 399 CURVE SMOOTH",
"408 399 OFFCURVE",
"442 395 OFFCURVE",
"476 387 CURVE",
"476 81 LINE",
"-20 81 LINE",
"-20 0 LINE",
"548 0 LINE",
"548 354 LINE SMOOTH",
"548 448 OFFCURVE",
"501 479 OFFCURVE",
"366 479 CURVE SMOOTH"
);
},
{
closed = 1;
nodes = (
"226 33 LINE",
"190 82 OFFCURVE",
"182 154 OFFCURVE",
"182 226 CURVE SMOOTH",
"182 290 OFFCURVE",
"198 350 OFFCURVE",
"221 418 CURVE",
"156 440 LINE",
"129 374 OFFCURVE",
"110 303 OFFCURVE",
"110 226 CURVE SMOOTH",
"110 149 OFFCURVE",
"119 73 OFFCURVE",
"155 31 CURVE"
);
}
);
width = 647;
}
);
unicode = FEE3;
},
{
color = 4;
glyphname = "noonghunna-ar";
layers = (
{
anchors = (
{
name = bottom;
position = "{318, -330}";
},
{
name = top;
position = "{318, 550}";
}
);
hints = (
{
horizontal = 1;
origin = "{0, 12}";
target = "{0, 22}";
},
{
horizontal = 1;
origin = "{0, 17}";
target = down;
type = TopGhost;
},
{
origin = "{0, 9}";
target = "{0, 2}";
},
{
origin = "{0, 18}";
target = "{0, 15}";
},
{
horizontal = 1;
origin = "{0, 6}";
target = down;
type = TopGhost;
}
);
layerId = "4B38D994-FE59-4B2C-A746-78B1495748E0";
paths = (
{
closed = 1;
nodes = (
"146 -113 OFFCURVE",
"143 -68 OFFCURVE",
"143 -3 CURVE SMOOTH",
"143 63 OFFCURVE",
"151 139 OFFCURVE",
"167 219 CURVE",
"101 231 LINE",
"83 169 OFFCURVE",
"71 66 OFFCURVE",
"71 -19 CURVE SMOOTH",
"71 -198 OFFCURVE",
"103 -240 OFFCURVE",
"296 -240 CURVE SMOOTH",
"515 -240 OFFCURVE",
"556 -202 OFFCURVE",
"556 -41 CURVE SMOOTH",
"556 470 LINE",
"484 470 LINE",
"484 -106 LINE SMOOTH",
"484 -149 OFFCURVE",
"450 -159 OFFCURVE",
"344 -159 CURVE SMOOTH",
"155 -159 LINE"
);
}
);
width = 661;
}
);
unicode = 06BA;
},
{
color = 4;
glyphname = "noonghunna-ar.fina";
layers = (
{
anchors = (
{
name = bottom;
position = "{318, -330}";
},
{
name = entry;
position = "{659, 41}";
},
{
name = top;
position = "{318, 550}";
}
);
color = 1;
components = (
{
name = "noonghunna-ar";
}
);
hints = (
{
horizontal = 1;
origin = "{0, 0}";
target = "{0, 3}";
}
);
layerId = "4B38D994-FE59-4B2C-A746-78B1495748E0";
paths = (
{
closed = 1;
nodes = (
"556 0 LINE",
"679 0 LINE",
"679 81 LINE",
"556 81 LINE"
);
}
);
width = 659;
}
);
unicode = FB9F;
},
{
color = 4;
glyphname = "heh-ar";
layers = (
{
anchors = (
{
name = bottom;
position = "{321, -80}";
},
{
name = top;
position = "{321, 550}";
}
);
color = 1;
hints = (
{
horizontal = 1;
origin = "{0, 6}";
target = "{1, 1}";
},
{
horizontal = 1;
origin = "{0, 0}";
target = "{1, 8}";
},
{
origin = "{0, 3}";
target = "{1, 4}";
},
{
origin = "{1, 0}";
target = "{0, 7}";
}
);
layerId = "4B38D994-FE59-4B2C-A746-78B1495748E0";
paths = (
{
closed = 1;
nodes = (
"287 470 LINE SMOOTH",
"117 470 OFFCURVE",
"88 435 OFFCURVE",
"88 235 CURVE SMOOTH",
"88 35 OFFCURVE",
"117 0 OFFCURVE",
"287 0 CURVE SMOOTH",
"529 0 LINE",
"529 470 LINE"
);
},
{
closed = 1;
nodes = (
"456 81 LINE",
"236 81 LINE SMOOTH",
"185 81 OFFCURVE",
"164 97 OFFCURVE",
"164 140 CURVE SMOOTH",
"164 331 LINE SMOOTH",
"164 373 OFFCURVE",
"185 389 OFFCURVE",
"236 389 CURVE SMOOTH",
"456 389 LINE"
);
}
);
width = 631;
}
);
unicode = 0647;
},
{
color = 4;
glyphname = "heh-ar.fina";
layers = (
{
anchors = (
{
name = bottom;
position = "{307, -80}";
},
{
name = entry;
position = "{616, 41}";
},
{
name = top;
position = "{307, 550}";
}
);
color = 1;
components = (
{
name = "heh-ar";
}
);
hints = (
{
horizontal = 1;
origin = "{0, 0}";
target = "{0, 3}";
}
);
layerId = "4B38D994-FE59-4B2C-A746-78B1495748E0";
paths = (
{
closed = 1;
nodes = (
"525 0 LINE",
"637 0 LINE",
"637 81 LINE",
"525 81 LINE"
);
}
);
width = 616;
}
);
unicode = FEEA;
},
{
color = 4;
glyphname = "heh-ar.medi";
layers = (
{
anchors = (
{
name = bottom;
position = "{317, -79}";
},
{
name = entry;
position = "{725, 41}";
},
{
name = exit;
position = "{0, 41}";
},
{
name = top;
position = "{317, 645}";
}
);
color = 2;
components = (
{
name = "heh-ar.init";
}
);
hints = (
{
horizontal = 1;
origin = "{0, 0}";
target = "{0, 3}";
},
{
origin = "{0, 0}";
target = "{0, 1}";
},
{
horizontal = 1;
origin = "{0, 1}";
target = "{0, 2}";
}
);
layerId = "4B38D994-FE59-4B2C-A746-78B1495748E0";
paths = (
{
closed = 1;
nodes = (
"640 -1 LINE",
"745 -1 LINE",
"745 80 LINE",
"640 80 LINE"
);
}
);
width = 725;
}
);
unicode = FEEC;
},
{
color = 4;
glyphname = "heh-ar.init";
layers = (
{
anchors = (
{
name = bottom;
position = "{317, -79}";
},
{
name = exit;
position = "{0, 41}";
},
{
name = top;
position = "{317, 645}";
}
);
color = 1;
hints = (
{
horizontal = 1;
origin = "{0, 12}";
target = "{0, 11}";
},
{
horizontal = 1;
origin = "{2, 5}";
target = "{1, 3}";
},
{
horizontal = 1;
origin = "{0, 6}";
target = "{0, 5}";
},
{
origin = "{1, 6}";
target = "{2, 1}";
},
{
origin = "{2, 0}";
target = "{1, 0}";
}
);
layerId = "4B38D994-FE59-4B2C-A746-78B1495748E0";
paths = (
{
closed = 1;
nodes = (
"675 0 LINE",
"675 62 LINE",
"611 310 LINE SMOOTH",
"564 497 OFFCURVE",
"453 542 OFFCURVE",
"245 542 CURVE",
"240 464 LINE",
"415 464 OFFCURVE",
"506 424 OFFCURVE",
"545 282 CURVE SMOOTH",
"597 81 LINE",
"-20 81 LINE",
"-20 0 LINE"
);
},
{
closed = 1;
nodes = (
"443 62 LINE",
"443 275 OFFCURVE",
"428 297 OFFCURVE",
"264 297 CURVE SMOOTH",
"111 297 OFFCURVE",
"96 275 OFFCURVE",
"96 62 CURVE"
);
},
{
closed = 1;
nodes = (
"380 62 LINE",
"159 62 LINE",
"159 199 LINE SMOOTH",
"159 229 OFFCURVE",
"172 239 OFFCURVE",
"212 239 CURVE SMOOTH",
"380 239 LINE"
);
}
);
width = 725;
}
);
unicode = FEEB;
},
{
color = 4;
glyphname = "hehgoal-ar.fina";
layers = (
{
anchors = (
{
name = bottom;
position = "{331, -80}";
},
{
name = entry;
position = "{650, 41}";
},
{
name = top;
position = "{331, 550}";
}
);
color = 1;
hints = (
{
horizontal = 1;
origin = "{0, 3}";
target = "{1, 4}";
},
{
horizontal = 1;
origin = "{0, 15}";
target = "{0, 8}";
},
{
origin = "{0, 3}";
target = "{0, 4}";
},
{
origin = "{1, 1}";
target = "{1, 4}";
}
);
layerId = "4B38D994-FE59-4B2C-A746-78B1495748E0";
paths = (
{
closed = 1;
nodes = (
"148 479 OFFCURVE",
"99 444 OFFCURVE",
"99 343 CURVE SMOOTH",
"99 0 LINE",
"171 0 LINE",
"171 387 LINE",
"215 395 OFFCURVE",
"268 399 OFFCURVE",
"332 399 CURVE SMOOTH",
"391 399 OFFCURVE",
"476 391 OFFCURVE",
"538 375 CURVE",
"547 450 LINE",
"502 467 OFFCURVE",
"396 479 OFFCURVE",
"315 479 CURVE SMOOTH"
);
},
{
closed = 1;
nodes = (
"475 450 LINE",
"475 0 LINE",
"670 0 LINE",
"670 81 LINE",
"547 81 LINE",
"547 450 LINE"
);
}
);
width = 650;
}
);
unicode = FBA7;
},
{
color = 4;
glyphname = "hehgoal-ar.medi";
layers = (
{
anchors = (
{
name = bottom;
position = "{359, -415}";
},
{
name = entry;
position = "{648, 41}";
},
{
name = exit;
position = "{0, 41}";
},
{
name = top;
position = "{359, 550}";
}
);
hints = (
{
horizontal = 1;
origin = "{0, 19}";
target = "{0, 4}";
},
{
horizontal = 1;
origin = "{2, 3}";
target = "{2, 2}";
},
{
origin = "{0, 13}";
target = "{0, 10}";
},
{
origin = "{0, 1}";
target = "{0, 22}";
}
);
layerId = "4B38D994-FE59-4B2C-A746-78B1495748E0";
paths = (
{
closed = 1;
nodes = (
"476 16 LINE",
"476 -279 LINE",
"445 -287 OFFCURVE",
"405 -291 OFFCURVE",
"360 -291 CURVE SMOOTH",
"322 -291 OFFCURVE",
"277 -285 OFFCURVE",
"231 -276 CURVE",
"213 -223 OFFCURVE",
"201 -163 OFFCURVE",
"201 -108 CURVE SMOOTH",
"201 0 LINE",
"128 0 LINE",
"128 -107 LINE SMOOTH",
"128 -189 OFFCURVE",
"147 -275 OFFCURVE",
"173 -336 CURVE",
"229 -362 OFFCURVE",
"309 -375 OFFCURVE",
"377 -375 CURVE SMOOTH",
"511 -375 OFFCURVE",
"547 -340 OFFCURVE",
"547 -238 CURVE SMOOTH",
"547 16 LINE"
);
},
{
closed = 1;
nodes = (
"671 0 LINE",
"671 81 LINE",
"476 81 LINE",
"476 0 LINE"
);
},
{
closed = 1;
nodes = (
"201 0 LINE",
"201 81 LINE",
"-20 81 LINE",
"-20 0 LINE"
);
}
);
width = 648;
}
);
unicode = FBA9;
},
{
color = 4;
glyphname = "hehDoachashmee-ar";
layers = (
{
anchors = (
{
name = bottom;
position = "{317, -79}";
},
{
name = top;
position = "{317, 645}";
}
);
hints = (
{
horizontal = 1;
origin = "{0, 12}";
target = "{0, 11}";
},
{
horizontal = 1;
origin = "{2, 5}";
target = "{1, 3}";
},
{
horizontal = 1;
origin = "{0, 6}";
target = "{0, 5}";
},
{
origin = "{1, 6}";
target = "{2, 1}";
},
{
origin = "{2, 0}";
target = "{1, 0}";
}
);
layerId = "4B38D994-FE59-4B2C-A746-78B1495748E0";
paths = (
{
closed = 1;
nodes = (
"675 0 LINE",
"675 62 LINE",
"611 310 LINE SMOOTH",
"564 497 OFFCURVE",
"453 542 OFFCURVE",
"245 542 CURVE",
"240 464 LINE",
"415 464 OFFCURVE",
"506 424 OFFCURVE",
"545 282 CURVE SMOOTH",
"597 81 LINE",
"20 81 LINE",
"20 0 LINE"
);
},
{
closed = 1;
nodes = (
"443 62 LINE",
"443 275 OFFCURVE",
"428 297 OFFCURVE",
"264 297 CURVE SMOOTH",
"111 297 OFFCURVE",
"96 275 OFFCURVE",
"96 62 CURVE"
);
},
{
closed = 1;
nodes = (
"380 62 LINE",
"159 62 LINE",
"159 199 LINE SMOOTH",
"159 229 OFFCURVE",
"172 239 OFFCURVE",
"212 239 CURVE SMOOTH",
"380 239 LINE"
);
}
);
width = 725;
}
);
unicode = 06BE;
},
{
color = 4;
glyphname = "hehDoachashmee-ar.fina";
layers = (
{
anchors = (
{
name = bottom;
position = "{317, -79}";
},
{
name = entry;
position = "{725, 39}";
},
{
name = top;
position = "{317, 645}";
}
);
components = (
{
name = "hehDoachashmee-ar";
}
);
hints = (
{
horizontal = 1;
origin = "{0, 0}";
target = "{0, 3}";
},
{
origin = "{0, 0}";
target = "{0, 1}";
}
);
layerId = "4B38D994-FE59-4B2C-A746-78B1495748E0";
paths = (
{
closed = 1;
nodes = (
"639 -1 LINE",
"745 -1 LINE",
"745 80 LINE",
"639 80 LINE"
);
}
);
width = 725;
}
);
unicode = FBAB;
},
{
color = 1;
glyphname = "waw-ar";
layers = (
{
anchors = (
{
name = bottom;
position = "{293, -330}";
},
{
name = top;
position = "{293, 550}";
}
);
hints = (
{
horizontal = 1;
origin = "{0, 11}";
target = "{1, 0}";
},
{
horizontal = 1;
origin = "{0, 5}";
target = "{1, 4}";
},
{
origin = "{0, 8}";
target = "{1, 0}";
},
{
origin = "{2, 3}";
target = "{0, 1}";
},
{
horizontal = 1;
origin = "{2, 7}";
target = up;
type = BottomGhost;
}
);
layerId = "4B38D994-FE59-4B2C-A746-78B1495748E0";
paths = (
{
closed = 1;
nodes = (
"468 0 LINE",
"500 81 LINE",
"500 449 LINE",
"432 472 OFFCURVE",
"377 479 OFFCURVE",
"294 479 CURVE SMOOTH",
"126 479 OFFCURVE",
"89 436 OFFCURVE",
"89 239 CURVE SMOOTH",
"89 47 OFFCURVE",
"116 0 OFFCURVE",
"227 0 CURVE SMOOTH"
);
},
{
closed = 1;
nodes = (
"165 81 LINE",
"165 342 LINE SMOOTH",
"165 387 OFFCURVE",
"175 399 OFFCURVE",
"210 399 CURVE SMOOTH",
"427 399 LINE",
"427 132 LINE SMOOTH",
"427 93 OFFCURVE",
"416 81 OFFCURVE",
"381 81 CURVE SMOOTH"
);
},
{
closed = 1;
nodes = (
"402 -186 OFFCURVE",
"499 -27 OFFCURVE",
"499 81 CURVE",
"427 81 LINE",
"427 -5 OFFCURVE",
"342 -133 OFFCURVE",
"244 -209 CURVE",
"288 -265 LINE"
);
}
);
width = 602;
}
);
unicode = 0648;
},
{
color = 4;
glyphname = "waw-ar.fina";
layers = (
{
anchors = (
{
name = bottom;
position = "{293, -330}";
},
{
name = entry;
position = "{612, 41}";
},
{
name = top;
position = "{293, 550}";
}
);
components = (
{
name = "waw-ar";
}
);
hints = (
{
horizontal = 1;
origin = "{0, 0}";
target = "{0, 3}";
}
);
layerId = "4B38D994-FE59-4B2C-A746-78B1495748E0";
paths = (
{
closed = 1;
nodes = (
"473 0 LINE",
"632 0 LINE",
"632 81 LINE",
"473 81 LINE"
);
}
);
width = 612;
}
);
unicode = FEEE;
},
{
color = 4;
glyphname = "alefMaksura-ar";
layers = (
{
anchors = (
{
name = bottom;
position = "{436, -330}";
},
{
name = top;
position = "{168, 240}";
}
);
color = 1;
hints = (
{
horizontal = 1;
origin = "{0, 2}";
target = "{0, 33}";
},
{
horizontal = 1;
origin = "{0, 21}";
target = "{0, 14}";
},
{
horizontal = 1;
origin = "{0, 21}";
target = down;
type = TopGhost;
},
{
origin = "{0, 43}";
target = "{0, 36}";
},
{
origin = "{0, 24}";
target = "{0, 10}";
},
{
origin = "{0, 29}";
target = "{0, 5}";
},
{
horizontal = 1;
origin = "{0, 40}";
target = down;
type = TopGhost;
}
);
layerId = "4B38D994-FE59-4B2C-A746-78B1495748E0";
paths = (
{
closed = 1;
nodes = (
"71 -261 OFFCURVE",
"133 -274 OFFCURVE",
"394 -274 CURVE SMOOTH",
"696 -274 OFFCURVE",
"756 -234 OFFCURVE",
"756 -85 CURVE SMOOTH",
"756 -15 LINE SMOOTH",
"756 110 OFFCURVE",
"730 160 OFFCURVE",
"623 171 CURVE SMOOTH",
"457 189 LINE",
"457 394 LINE",
"487 398 OFFCURVE",
"518 399 OFFCURVE",
"559 399 CURVE SMOOTH",
"614 399 OFFCURVE",
"664 395 OFFCURVE",
"726 384 CURVE",
"740 462 LINE",
"675 474 OFFCURVE",
"616 480 OFFCURVE",
"554 480 CURVE SMOOTH",
"421 480 OFFCURVE",
"380 428 OFFCURVE",
"380 288 CURVE SMOOTH",
"380 158 OFFCURVE",
"410 116 OFFCURVE",
"543 100 CURVE SMOOTH",
"684 83 LINE",
"684 -140 LINE SMOOTH",
"684 -183 OFFCURVE",
"629 -193 OFFCURVE",
"439 -193 CURVE SMOOTH",
"155 -193 LINE",
"146 -154 OFFCURVE",
"143 -121 OFFCURVE",
"143 -69 CURVE SMOOTH",
"143 -12 OFFCURVE",
"155 56 OFFCURVE",
"171 128 CURVE",
"101 141 LINE",
"83 84 OFFCURVE",
"71 -13 OFFCURVE",
"71 -91 CURVE SMOOTH"
);
}
);
width = 848;
}
);
unicode = 0649;
},
{
color = 4;
glyphname = "alefMaksura-ar.fina";
layers = (
{
anchors = (
{
name = bottom;
position = "{436, -330}";
},
{
name = entry;
position = "{859, 41}";
},
{
name = top;
position = "{168, 240}";
}
);
color = 1;
hints = (
{
horizontal = 1;
origin = "{0, 22}";
target = "{0, 9}";
},
{
horizontal = 1;
origin = "{1, 9}";
target = "{1, 2}";
},
{
origin = "{0, 19}";
target = "{0, 12}";
},
{
origin = "{0, 5}";
target = "{0, 2}";
}
);
layerId = "4B38D994-FE59-4B2C-A746-78B1495748E0";
paths = (
{
closed = 1;
nodes = (
"696 -274 OFFCURVE",
"756 -234 OFFCURVE",
"756 -85 CURVE SMOOTH",
"756 0 LINE",
"684 0 LINE",
"684 -140 LINE SMOOTH",
"684 -183 OFFCURVE",
"629 -193 OFFCURVE",
"439 -193 CURVE SMOOTH",
"155 -193 LINE",
"146 -154 OFFCURVE",
"143 -121 OFFCURVE",
"143 -69 CURVE SMOOTH",
"143 -12 OFFCURVE",
"155 56 OFFCURVE",
"171 128 CURVE",
"101 141 LINE",
"83 84 OFFCURVE",
"71 -13 OFFCURVE",
"71 -91 CURVE SMOOTH",
"71 -261 OFFCURVE",
"133 -274 OFFCURVE",
"394 -274 CURVE SMOOTH"
);
},
{
closed = 1;
nodes = (
"879 0 LINE",
"879 81 LINE",
"614 81 LINE SMOOTH",
"565 81 OFFCURVE",
"506 89 OFFCURVE",
"446 105 CURVE",
"434 30 LINE",
"482 12 OFFCURVE",
"563 0 OFFCURVE",
"629 0 CURVE"
);
}
);
width = 859;
}
);
unicode = FEF0;
},
{
color = 4;
glyphname = "yehbarree-ar";
layers = (
{
anchors = (
{
name = bottom;
position = "{371, -370}";
},
{
name = top;
position = "{305, 175}";
}
);
hints = (
{
horizontal = 1;
origin = "{1, 15}";
target = "{1, 6}";
},
{
horizontal = 1;
origin = "{0, 15}";
target = "{0, 14}";
},
{
origin = "{1, 12}";
target = "{1, 9}";
},
{
origin = "{0, 10}";
target = "{0, 3}";
},
{
horizontal = 1;
origin = "{0, 7}";
target = down;
type = TopGhost;
}
);
layerId = "4B38D994-FE59-4B2C-A746-78B1495748E0";
paths = (
{
closed = 1;
nodes = (
"507 0 LINE SMOOTH",
"651 0 OFFCURVE",
"684 49 OFFCURVE",
"684 262 CURVE SMOOTH",
"684 283 OFFCURVE",
"683 305 OFFCURVE",
"681 329 CURVE",
"609 329 LINE",
"611 299 OFFCURVE",
"612 271 OFFCURVE",
"612 245 CURVE SMOOTH",
"612 171 OFFCURVE",
"609 126 OFFCURVE",
"599 85 CURVE",
"51 85 LINE",
"51 0 LINE"
);
},
{
closed = 1;
nodes = (
"463 -274 OFFCURVE",
"576 -261 OFFCURVE",
"639 -244 CURVE",
"627 -169 LINE",
"513 -189 OFFCURVE",
"465 -193 OFFCURVE",
"342 -193 CURVE SMOOTH",
"172 -193 OFFCURVE",
"123 -183 OFFCURVE",
"123 -140 CURVE SMOOTH",
"123 0 LINE",
"51 0 LINE",
"51 -81 LINE SMOOTH",
"51 -237 OFFCURVE",
"105 -274 OFFCURVE",
"371 -274 CURVE SMOOTH"
);
}
);
width = 767;
}
);
unicode = 06D2;
},
{
color = 4;
glyphname = "yehbarree-ar.fina";
layers = (
{
anchors = (
{
name = bottom;
position = "{371, -370}";
},
{
name = entry;
position = "{684, 41}";
},
{
name = top;
position = "{305, 193}";
}
);
hints = (
{
horizontal = 1;
origin = "{1, 15}";
target = "{1, 6}";
},
{
horizontal = 1;
origin = "{0, 3}";
target = "{0, 2}";
},
{
origin = "{1, 12}";
target = "{1, 9}";
}
);
layerId = "4B38D994-FE59-4B2C-A746-78B1495748E0";
paths = (
{
closed = 1;
nodes = (
"704 0 LINE",
"704 81 LINE",
"51 81 LINE",
"51 0 LINE"
);
},
{
closed = 1;
nodes = (
"463 -274 OFFCURVE",
"576 -261 OFFCURVE",
"639 -244 CURVE",
"627 -169 LINE",
"513 -189 OFFCURVE",
"465 -193 OFFCURVE",
"342 -193 CURVE SMOOTH",
"172 -193 OFFCURVE",
"123 -183 OFFCURVE",
"123 -140 CURVE SMOOTH",
"123 0 LINE",
"51 0 LINE",
"51 -81 LINE SMOOTH",
"51 -237 OFFCURVE",
"105 -274 OFFCURVE",
"371 -274 CURVE SMOOTH"
);
}
);
width = 684;
}
);
unicode = FBAF;
},
{
color = 4;
glyphname = "kashida-ar";
layers = (
{
anchors = (
{
name = bottom;
position = "{122, -224}";
},
{
name = entry;
position = "{244, 41}";
},
{
name = exit;
position = "{0, 41}";
},
{
name = top;
position = "{122, 573}";
}
);
hints = (
{
horizontal = 1;
origin = "{0, 3}";
target = "{0, 2}";
}
);
layerId = "4B38D994-FE59-4B2C-A746-78B1495748E0";
paths = (
{
closed = 1;
nodes = (
"264 0 LINE",
"264 81 LINE",
"-20 81 LINE",
"-20 0 LINE"
);
}
);
width = 244;
}
);
unicode = 0640;
},
{
color = 4;
glyphname = "lam_alef-ar";
layers = (
{
anchors = (
{
name = bottom_1;
position = "{490, -80}";
},
{
name = bottom_2;
position = "{119, -80}";
},
{
name = caret_1;
position = "{332, 0}";
},
{
name = top_1;
position = "{490, 730}";
},
{
name = top_2;
position = "{173, 625}";
}
);
hints = (
{
horizontal = 1;
origin = "{0, 6}";
target = "{1, 9}";
},
{
horizontal = 1;
origin = "{0, 18}";
target = down;
type = TopGhost;
},
{
origin = "{0, 3}";
target = "{1, 9}";
},
{
origin = "{0, 19}";
target = "{0, 16}";
},
{
origin = "{1, 5}";
target = "{0, 9}";
}
);
layerId = "4B38D994-FE59-4B2C-A746-78B1495748E0";
paths = (
{
closed = 1;
nodes = (
"215 293 LINE SMOOTH",
"97 248 OFFCURVE",
"72 219 OFFCURVE",
"72 127 CURVE SMOOTH",
"72 21 OFFCURVE",
"122 -15 OFFCURVE",
"294 -15 CURVE SMOOTH",
"473 -15 OFFCURVE",
"550 36 OFFCURVE",
"550 152 CURVE SMOOTH",
"550 209 OFFCURVE",
"530 248 OFFCURVE",
"465 302 CURVE",
"465 309 LINE",
"511 326 OFFCURVE",
"526 368 OFFCURVE",
"526 425 CURVE SMOOTH",
"526 630 LINE",
"454 630 LINE",
"454 383 LINE"
);
},
{
closed = 1;
nodes = (
"148 186 LINE",
"378 273 LINE",
"427 233 LINE SMOOTH",
"456 210 OFFCURVE",
"473 177 OFFCURVE",
"473 147 CURVE SMOOTH",
"473 105 OFFCURVE",
"438 66 OFFCURVE",
"354 66 CURVE SMOOTH",
"148 66 LINE"
);
},
{
closed = 1;
nodes = (
"416 337 LINE",
"145 555 LINE",
"98 497 LINE",
"333 307 LINE"
);
}
);
width = 631;
}
);
unicode = FEFB;
},
{
color = 4;
glyphname = "lam_alef-ar.fina";
layers = (
{
anchors = (
{
name = bottom_1;
position = "{493, -80}";
},
{
name = bottom_2;
position = "{227, -80}";
},
{
name = caret_1;
position = "{335, 0}";
},
{
name = entry;
position = "{632, 41}";
},
{
name = top_1;
position = "{493, 730}";
},
{
name = top_2;
position = "{177, 625}";
}
);
color = 1;
hints = (
{
horizontal = 1;
origin = "{2, 1}";
target = "{2, 0}";
},
{
horizontal = 1;
origin = "{0, 2}";
target = down;
type = TopGhost;
},
{
horizontal = 1;
origin = "{1, 2}";
target = down;
type = TopGhost;
},
{
origin = "{1, 3}";
target = "{1, 0}";
}
);
layerId = "4B38D994-FE59-4B2C-A746-78B1495748E0";
paths = (
{
closed = 1;
nodes = (
"257 47 LINE",
"213 545 LINE",
"141 545 LINE",
"185 47 LINE"
);
},
{
closed = 1;
nodes = (
"529 47 LINE",
"529 630 LINE",
"457 630 LINE",
"457 47 LINE"
);
},
{
closed = 1;
nodes = (
"20 81 LINE",
"20 0 LINE",
"652 0 LINE",
"652 81 LINE"
);
}
);
width = 632;
}
);
note = "Inclinacion barra inicial 5 - bottom_2 - 50 derecha en regular";
unicode = FEFC;
},
{
color = 4;
glyphname = "seen_reh-ar";
lastChange = "2016-02-27 16:04:48 +0000";
layers = (
{
anchors = (
{
name = bottom;
position = "{113, -330}";
},
{
name = bottom_1;
position = "{797, -80}";
},
{
name = caret_1;
position = "{544, 0}";
},
{
name = top;
position = "{169, 550}";
},
{
name = top_1;
position = "{797, 550}";
}
);
hints = (
{
horizontal = 1;
origin = "{2, 5}";
target = "{4, 9}";
},
{
horizontal = 1;
origin = "{2, 4}";
target = "{1, 0}";
},
{
origin = "{2, 5}";
target = "{2, 2}";
},
{
origin = "{0, 3}";
target = "{0, 0}";
},
{
origin = "{4, 5}";
target = "{3, 16}";
},
{
origin = "{3, 9}";
target = "{3, 2}";
},
{
horizontal = 1;
origin = "{3, 18}";
target = down;
type = TopGhost;
}
);
layerId = "4B38D994-FE59-4B2C-A746-78B1495748E0";
paths = (
{
closed = 1;
nodes = (
"535 0 LINE",
"535 470 LINE",
"463 470 LINE",
"463 0 LINE"
);
},
{
closed = 1;
nodes = (
"205 389 LINE",
"463 389 LINE",
"463 470 LINE",
"205 470 LINE"
);
},
{
closed = 1;
nodes = (
"163 -206 OFFCURVE",
"205 -131 OFFCURVE",
"205 -3 CURVE SMOOTH",
"205 470 LINE",
"133 470 LINE",
"133 -3 LINE SMOOTH",
"133 -106 OFFCURVE",
"106 -156 OFFCURVE",
"29 -194 CURVE",
"61 -256 LINE"
);
},
{
closed = 1;
nodes = (
"1102 0 OFFCURVE",
"1131 60 OFFCURVE",
"1131 258 CURVE SMOOTH",
"1131 319 OFFCURVE",
"1117 416 OFFCURVE",
"1104 468 CURVE",
"1033 456 LINE",
"1049 384 OFFCURVE",
"1059 314 OFFCURVE",
"1059 256 CURVE SMOOTH",
"1059 183 OFFCURVE",
"1056 131 OFFCURVE",
"1047 81 CURVE",
"911 81 LINE SMOOTH",
"855 81 OFFCURVE",
"833 91 OFFCURVE",
"833 134 CURVE SMOOTH",
"833 380 LINE",
"761 380 LINE",
"761 182 LINE SMOOTH",
"761 34 OFFCURVE",
"792 0 OFFCURVE",
"960 0 CURVE SMOOTH"
);
},
{
closed = 1;
nodes = (
"804 0 OFFCURVE",
"833 34 OFFCURVE",
"833 182 CURVE SMOOTH",
"833 380 LINE",
"761 380 LINE",
"761 134 LINE SMOOTH",
"761 91 OFFCURVE",
"739 81 OFFCURVE",
"683 81 CURVE SMOOTH",
"535 81 LINE",
"535 0 LINE",
"637 0 LINE SMOOTH"
);
}
);
width = 1223;
}
);
leftMetricsKey = "=reh-ar";
rightMetricsKey = "=seen-ar.init";
unicode = FD0E;
},
{
color = 4;
glyphname = "seen_reh-ar.fina";
layers = (
{
anchors = (
{
name = bottom;
position = "{113, -330}";
},
{
name = bottom_1;
position = "{797, -80}";
},
{
name = caret_1;
position = "{544, 0}";
},
{
name = entry;
position = "{1234, 41}";
},
{
name = top;
position = "{169, 550}";
},
{
name = top_1;
position = "{797, 550}";
}
);
color = 1;
components = (
{
name = "seen_reh-ar";
}
);
hints = (
{
horizontal = 1;
origin = "{0, 3}";
target = "{0, 2}";
}
);
layerId = "4B38D994-FE59-4B2C-A746-78B1495748E0";
paths = (
{
closed = 1;
nodes = (
"1254 0 LINE",
"1254 81 LINE",
"1069 81 LINE",
"960 0 LINE"
);
}
);
width = 1234;
}
);
leftMetricsKey = "=reh-ar";
unicode = FD2A;
},
{
color = 4;
glyphname = "seen_alefMaksura-ar";
layers = (
{
anchors = (
{
name = bottom;
position = "{1285, -80}";
},
{
name = bottom_2;
position = "{436, -330}";
},
{
name = caret_1;
position = "{771, 0}";
},
{
name = top;
position = "{1285, 550}";
},
{
name = top_2;
position = "{168, 240}";
}
);
hints = (
{
horizontal = 1;
origin = "{1, 2}";
target = "{1, 26}";
},
{
horizontal = 1;
origin = "{0, 3}";
target = "{3, 9}";
},
{
horizontal = 1;
origin = "{1, 14}";
target = "{1, 11}";
},
{
origin = "{1, 36}";
target = "{1, 29}";
},
{
origin = "{1, 17}";
target = "{1, 10}";
},
{
origin = "{1, 22}";
target = "{1, 5}";
},
{
origin = "{0, 3}";
target = "{0, 0}";
},
{
origin = "{3, 5}";
target = "{2, 16}";
},
{
origin = "{2, 9}";
target = "{2, 2}";
},
{
horizontal = 1;
origin = "{2, 18}";
target = down;
type = TopGhost;
}
);
layerId = "4B38D994-FE59-4B2C-A746-78B1495748E0";
paths = (
{
closed = 1;
nodes = (
"1023 0 LINE",
"1023 470 LINE",
"951 470 LINE",
"951 0 LINE"
);
},
{
closed = 1;
nodes = (
"71 -261 OFFCURVE",
"133 -274 OFFCURVE",
"394 -274 CURVE SMOOTH",
"696 -274 OFFCURVE",
"756 -234 OFFCURVE",
"756 -85 CURVE SMOOTH",
"756 -15 LINE SMOOTH",
"756 110 OFFCURVE",
"730 160 OFFCURVE",
"623 171 CURVE SMOOTH",
"457 189 LINE",
"457 389 LINE",
"951 389 LINE",
"951 470 LINE",
"554 470 LINE",
"421 470 OFFCURVE",
"380 420 OFFCURVE",
"380 288 CURVE SMOOTH",
"380 162 OFFCURVE",
"410 116 OFFCURVE",
"543 100 CURVE SMOOTH",
"684 83 LINE",
"684 -140 LINE SMOOTH",
"684 -183 OFFCURVE",
"629 -193 OFFCURVE",
"439 -193 CURVE SMOOTH",
"155 -193 LINE",
"146 -154 OFFCURVE",
"143 -121 OFFCURVE",
"143 -69 CURVE SMOOTH",
"143 -12 OFFCURVE",
"155 56 OFFCURVE",
"171 128 CURVE",
"101 141 LINE",
"83 84 OFFCURVE",
"71 -13 OFFCURVE",
"71 -91 CURVE SMOOTH"
);
},
{
closed = 1;
nodes = (
"1590 0 OFFCURVE",
"1619 60 OFFCURVE",
"1619 258 CURVE SMOOTH",
"1619 319 OFFCURVE",
"1605 416 OFFCURVE",
"1592 468 CURVE",
"1521 456 LINE",
"1537 384 OFFCURVE",
"1547 314 OFFCURVE",
"1547 256 CURVE SMOOTH",
"1547 183 OFFCURVE",
"1544 131 OFFCURVE",
"1535 81 CURVE",
"1399 81 LINE SMOOTH",
"1343 81 OFFCURVE",
"1321 91 OFFCURVE",
"1321 134 CURVE SMOOTH",
"1321 380 LINE",
"1249 380 LINE",
"1249 182 LINE SMOOTH",
"1249 34 OFFCURVE",
"1280 0 OFFCURVE",
"1448 0 CURVE SMOOTH"
);
},
{
closed = 1;
nodes = (
"1292 0 OFFCURVE",
"1321 34 OFFCURVE",
"1321 182 CURVE SMOOTH",
"1321 380 LINE",
"1249 380 LINE",
"1249 134 LINE SMOOTH",
"1249 91 OFFCURVE",
"1227 81 OFFCURVE",
"1171 81 CURVE SMOOTH",
"1023 81 LINE",
"1023 0 LINE",
"1125 0 LINE SMOOTH"
);
}
);
width = 1711;
}
);
leftMetricsKey = "alefMaksura-ar";
rightMetricsKey = "seen-ar.init";
unicode = FCFB;
},
{
color = 4;
glyphname = "seen_alefMaksura-ar.fina";
layers = (
{
anchors = (
{
name = bottom;
position = "{1285, -80}";
},
{
name = bottom_2;
position = "{436, -330}";
},
{
name = caret_1;
position = "{771, 0}";
},
{
name = entry;
position = "{1721, 41}";
},
{
name = top;
position = "{1285, 550}";
},
{
name = top_2;
position = "{168, 240}";
}
);
color = 1;
components = (
{
name = "seen_alefMaksura-ar";
}
);
hints = (
{
horizontal = 1;
origin = "{0, 0}";
target = "{0, 3}";
}
);
layerId = "4B38D994-FE59-4B2C-A746-78B1495748E0";
paths = (
{
closed = 1;
nodes = (
"1447 0 LINE",
"1741 0 LINE",
"1741 81 LINE",
"1556 81 LINE"
);
}
);
width = 1722;
}
);
leftMetricsKey = "alefMaksura-ar";
unicode = FD17;
},
{
color = 4;
glyphname = "sad_reh-ar";
layers = (
{
anchors = (
{
name = bottom;
position = "{113, -330}";
},
{
name = bottom_1;
position = "{789, -80}";
},
{
name = caret_1;
position = "{544, 0}";
},
{
name = top;
position = "{169, 550}";
},
{
name = top_1;
position = "{789, 550}";
}
);
hints = (
{
horizontal = 1;
origin = "{1, 5}";
target = "{2, 0}";
},
{
horizontal = 1;
origin = "{3, 4}";
target = "{3, 14}";
},
{
horizontal = 1;
origin = "{1, 4}";
target = "{0, 0}";
},
{
origin = "{1, 5}";
target = "{1, 2}";
},
{
origin = "{2, 1}";
target = "{3, 11}";
},
{
origin = "{3, 18}";
target = "{2, 2}";
}
);
layerId = "4B38D994-FE59-4B2C-A746-78B1495748E0";
paths = (
{
closed = 1;
nodes = (
"205 389 LINE",
"463 389 LINE",
"463 470 LINE",
"205 470 LINE"
);
},
{
closed = 1;
nodes = (
"163 -206 OFFCURVE",
"205 -131 OFFCURVE",
"205 -3 CURVE SMOOTH",
"205 470 LINE",
"133 470 LINE",
"133 -3 LINE SMOOTH",
"133 -106 OFFCURVE",
"106 -156 OFFCURVE",
"29 -194 CURVE",
"61 -256 LINE"
);
},
{
closed = 1;
nodes = (
"463 81 LINE",
"463 0 LINE",
"1027 0 LINE",
"1027 81 LINE"
);
},
{
closed = 1;
nodes = (
"1027 0 LINE",
"1027 367 LINE SMOOTH",
"1027 453 OFFCURVE",
"990 480 OFFCURVE",
"879 480 CURVE SMOOTH",
"703 480 OFFCURVE",
"581 409 OFFCURVE",
"535 280 CURVE",
"535 470 LINE",
"463 470 LINE",
"463 47 LINE",
"535 47 LINE",
"535 286 OFFCURVE",
"635 399 OFFCURVE",
"845 399 CURVE SMOOTH",
"896 399 OFFCURVE",
"933 395 OFFCURVE",
"955 388 CURVE",
"955 0 LINE"
);
}
);
width = 1125;
}
);
leftMetricsKey = "=reh-ar";
rightMetricsKey = "=sad-ar.init";
unicode = FD0F;
},
{
color = 4;
glyphname = "sad_reh-ar.fina";
layers = (
{
anchors = (
{
name = bottom;
position = "{111, -330}";
},
{
name = bottom_1;
position = "{787, -80}";
},
{
name = caret_1;
position = "{542, 0}";
},
{
name = entry;
position = "{1130, 41}";
},
{
name = top;
position = "{169, 550}";
},
{
name = top_1;
position = "{787, 550}";
}
);
components = (
{
name = "sad_reh-ar";
}
);
hints = (
{
horizontal = 1;
origin = "{0, 0}";
target = "{0, 3}";
}
);
layerId = "4B38D994-FE59-4B2C-A746-78B1495748E0";
paths = (
{
closed = 1;
nodes = (
"1027 0 LINE",
"1150 0 LINE",
"1150 81 LINE",
"1027 81 LINE"
);
}
);
width = 1130;
}
);
leftMetricsKey = "=reh-ar";
rightMetricsKey = "reh-ar.fina";
unicode = FD2B;
},
{
color = 4;
glyphname = "meem_reh-ar.fina";
layers = (
{
anchors = (
{
name = bottom;
position = "{114, -330}";
},
{
name = bottom_1;
position = "{664, -80}";
},
{
name = caret_1;
position = "{428, 0}";
},
{
name = top;
position = "{168, 550}";
},
{
name = top_1;
position = "{664, 550}";
}
);
components = (
{
name = "reh-ar";
}
);
hints = (
{
horizontal = 1;
place = "{-11, 87}";
},
{
horizontal = 1;
place = "{517, -77}";
},
{
place = "{471.9, 105.6}";
},
{
place = "{851.4, 111}";
}
);
layerId = "4B38D994-FE59-4B2C-A746-78B1495748E0";
paths = (
{
closed = 1;
nodes = (
"452 389 LINE",
"446 353 OFFCURVE",
"443 304 OFFCURVE",
"443 214 CURVE SMOOTH",
"443 37 OFFCURVE",
"479 -9 OFFCURVE",
"648 -9 CURVE SMOOTH",
"718 -9 OFFCURVE",
"773 -2 OFFCURVE",
"854 21 CURVE",
"854 470 LINE",
"205 470 LINE SMOOTH",
"205 389 LINE"
);
},
{
closed = 1;
nodes = (
"781 389 LINE",
"781 130 LINE SMOOTH",
"781 85 OFFCURVE",
"771 74 OFFCURVE",
"735 74 CURVE SMOOTH",
"519 74 LINE",
"519 338 LINE SMOOTH",
"519 377 OFFCURVE",
"530 389 OFFCURVE",
"566 389 CURVE SMOOTH"
);
}
);
width = 953;
}
);
leftMetricsKey = "=reh-ar";
rightMetricsKey = "meem-ar.init";
},
{
color = 4;
glyphname = "alefMaksura_reh-ar.fina";
layers = (
{
anchors = (
{
name = bottom;
position = "{113, -330}";
},
{
name = bottom_1;
position = "{500, -80}";
},
{
name = caret_1;
position = "{334, 0}";
},
{
name = entry;
position = "{639, 41}";
},
{
name = top;
position = "{169, 550}";
},
{
name = top_1;
position = "{500, 550}";
}
);
hints = (
{
horizontal = 1;
place = "{-253, 90.2}";
},
{
horizontal = 1;
origin = "{0, 5}";
target = "{0, 2}";
},
{
horizontal = 1;
origin = "{1, 3}";
target = "{1, 0}";
},
{
place = "{133.1, 110}";
},
{
origin = "{0, 5}";
target = "{0, 2}";
}
);
layerId = "4B38D994-FE59-4B2C-A746-78B1495748E0";
paths = (
{
closed = 1;
nodes = (
"658 0 LINE",
"658 81 LINE",
"535 81 LINE",
"535 470 LINE",
"463 470 LINE",
"463 0 LINE"
);
},
{
closed = 1;
nodes = (
"205 389 LINE",
"463 389 LINE",
"463 470 LINE",
"205 470 LINE"
);
},
{
closed = 1;
nodes = (
"163 -206 OFFCURVE",
"205 -131 OFFCURVE",
"205 -3 CURVE SMOOTH",
"205 470 LINE",
"133 470 LINE",
"133 -3 LINE SMOOTH",
"133 -106 OFFCURVE",
"106 -156 OFFCURVE",
"29 -194 CURVE",
"61 -256 LINE"
);
}
);
width = 638;
}
);
leftMetricsKey = "=reh-ar";
rightMetricsKey = "reh-ar.fina";
},
{
color = 4;
glyphname = "alefMaksura_meem-ar.init";
layers = (
{
anchors = (
{
name = bottom;
position = "{320, -330}";
},
{
name = bottom_1;
position = "{852, -80}";
},
{
name = caret_1;
position = "{567, 0}";
},
{
name = entry;
position = "{992, 41}";
},
{
name = top;
position = "{318, 719}";
},
{
name = top_1;
position = "{852, 550}";
}
);
color = 1;
components = (
{
name = "noonghunna-ar";
},
{
name = "dotabove-ar";
transform = "{1, 0, 0, 1, 227, 0}";
}
);
hints = (
{
horizontal = 1;
origin = "{0, 5}";
target = "{0, 2}";
},
{
horizontal = 1;
origin = "{1, 3}";
target = "{1, 0}";
},
{
origin = "{0, 5}";
target = "{0, 2}";
}
);
layerId = "4B38D994-FE59-4B2C-A746-78B1495748E0";
paths = (
{
closed = 1;
nodes = (
"1009 0 LINE",
"1009 81 LINE",
"886 81 LINE",
"886 470 LINE",
"814 470 LINE",
"814 0 LINE"
);
},
{
closed = 1;
nodes = (
"556 389 LINE",
"814 389 LINE",
"814 470 LINE",
"556 470 LINE"
);
}
);
width = 989;
}
);
leftMetricsKey = "noonghunna-ar";
rightMetricsKey = "meem-ar.fina";
},
{
color = 10;
glyphname = zero;
layers = (
{
hints = (
{
horizontal = 1;
origin = "{0, 2}";
target = "{1, 5}";
},
{
horizontal = 1;
origin = "{0, 8}";
target = "{1, 9}";
},
{
origin = "{0, 11}";
target = "{1, 8}";
},
{
origin = "{1, 4}";
target = "{0, 5}";
},
{
horizontal = 1;
origin = "{0, 2}";
target = up;
type = BottomGhost;
},
{
horizontal = 1;
origin = "{0, 8}";
target = down;
type = TopGhost;
}
);
layerId = "4B38D994-FE59-4B2C-A746-78B1495748E0";
paths = (
{
closed = 1;
nodes = (
"62 25 OFFCURVE",
"92 -15 OFFCURVE",
"309 -15 CURVE SMOOTH",
"527 -15 OFFCURVE",
"556 25 OFFCURVE",
"556 312 CURVE SMOOTH",
"556 595 OFFCURVE",
"522 640 OFFCURVE",
"309 640 CURVE SMOOTH",
"96 640 OFFCURVE",
"62 594 OFFCURVE",
"62 312 CURVE SMOOTH"
);
},
{
closed = 1;
nodes = (
"357 564 LINE SMOOTH",
"439 564 OFFCURVE",
"459 553 OFFCURVE",
"459 511 CURVE SMOOTH",
"459 61 LINE",
"254 61 LINE SMOOTH",
"176 61 OFFCURVE",
"158 71 OFFCURVE",
"158 114 CURVE SMOOTH",
"158 564 LINE"
);
}
);
width = 618;
}
);
leftKerningGroup = zero;
rightKerningGroup = zero;
unicode = 0030;
},
{
color = 10;
glyphname = one;
layers = (
{
hints = (
{
horizontal = 1;
origin = "{0, 9}";
target = "{0, 8}";
},
{
origin = "{0, 7}";
target = "{0, 2}";
},
{
horizontal = 1;
origin = "{0, 9}";
target = up;
type = BottomGhost;
},
{
horizontal = 1;
origin = "{0, 3}";
target = down;
type = TopGhost;
}
);
layerId = "4B38D994-FE59-4B2C-A746-78B1495748E0";
paths = (
{
closed = 1;
nodes = (
"394 0 LINE",
"394 75 LINE",
"272 75 LINE",
"272 640 LINE",
"26 610 LINE",
"26 531 LINE",
"182 550 LINE",
"182 75 LINE",
"36 75 LINE",
"36 0 LINE"
);
}
);
width = 425;
}
);
leftKerningGroup = one;
rightKerningGroup = one;
unicode = 0031;
},
{
color = 10;
glyphname = two;
layers = (
{
hints = (
{
horizontal = 1;
origin = "{0, 24}";
target = "{0, 2}";
},
{
horizontal = 1;
origin = "{0, 9}";
target = "{0, 16}";
},
{
origin = "{0, 24}";
target = "{0, 2}";
},
{
origin = "{0, 20}";
target = "{0, 6}";
},
{
horizontal = 1;
origin = "{0, 24}";
target = up;
type = BottomGhost;
},
{
horizontal = 1;
origin = "{0, 9}";
target = down;
type = TopGhost;
}
);
layerId = "4B38D994-FE59-4B2C-A746-78B1495748E0";
paths = (
{
closed = 1;
nodes = (
"472 0 LINE",
"472 75 LINE",
"142 75 LINE",
"142 197 LINE",
"448 325 OFFCURVE",
"483 354 OFFCURVE",
"483 483 CURVE SMOOTH",
"483 592 OFFCURVE",
"419 640 OFFCURVE",
"274 640 CURVE SMOOTH",
"199 640 OFFCURVE",
"127 631 OFFCURVE",
"72 615 CURVE",
"84 545 LINE",
"151 557 OFFCURVE",
"229 564 OFFCURVE",
"293 564 CURVE SMOOTH",
"339 564 OFFCURVE",
"366 562 OFFCURVE",
"387 557 CURVE",
"387 390 LINE",
"81 263 OFFCURVE",
"57 239 OFFCURVE",
"57 79 CURVE SMOOTH",
"57 0 LINE"
);
}
);
width = 546;
}
);
leftKerningGroup = two;
rightKerningGroup = two;
unicode = 0032;
},
{
color = 10;
glyphname = three;
layers = (
{
hints = (
{
horizontal = 1;
origin = "{0, 37}";
target = "{0, 30}";
},
{
horizontal = 1;
origin = "{0, 12}";
target = "{0, 19}";
},
{
origin = "{0, 27}";
target = "{0, 2}";
},
{
horizontal = 1;
origin = "{0, 37}";
target = up;
type = BottomGhost;
},
{
horizontal = 1;
origin = "{0, 12}";
target = down;
type = TopGhost;
}
);
layerId = "4B38D994-FE59-4B2C-A746-78B1495748E0";
paths = (
{
closed = 1;
nodes = (
"387 -15 OFFCURVE",
"444 30 OFFCURVE",
"444 163 CURVE SMOOTH",
"444 238 OFFCURVE",
"420 285 OFFCURVE",
"368 314 CURVE",
"368 319 LINE",
"416 346 OFFCURVE",
"444 402 OFFCURVE",
"444 470 CURVE SMOOTH",
"444 584 OFFCURVE",
"379 640 OFFCURVE",
"250 640 CURVE SMOOTH",
"174 640 OFFCURVE",
"105 631 OFFCURVE",
"55 615 CURVE",
"65 545 LINE",
"120 557 OFFCURVE",
"196 564 OFFCURVE",
"260 564 CURVE SMOOTH",
"303 564 OFFCURVE",
"329 562 OFFCURVE",
"347 557 CURVE",
"347 369 LINE",
"173 341 LINE",
"173 293 LINE",
"347 272 LINE",
"347 68 LINE",
"328 63 OFFCURVE",
"294 61 OFFCURVE",
"237 61 CURVE SMOOTH",
"173 61 OFFCURVE",
"98 68 OFFCURVE",
"43 80 CURVE",
"32 10 LINE",
"79 -6 OFFCURVE",
"145 -15 OFFCURVE",
"218 -15 CURVE SMOOTH"
);
}
);
width = 496;
}
);
leftKerningGroup = three;
rightKerningGroup = three;
unicode = 0033;
},
{
color = 10;
glyphname = four;
layers = (
{
hints = (
{
horizontal = 1;
origin = "{0, 9}";
target = "{1, 3}";
},
{
horizontal = 1;
origin = "{0, 7}";
target = "{1, 0}";
},
{
origin = "{0, 0}";
target = "{0, 1}";
},
{
horizontal = 1;
origin = "{0, 0}";
target = up;
type = BottomGhost;
},
{
horizontal = 1;
origin = "{0, 7}";
target = down;
type = TopGhost;
}
);
layerId = "4B38D994-FE59-4B2C-A746-78B1495748E0";
paths = (
{
closed = 1;
nodes = (
"362 0 LINE",
"452 0 LINE",
"452 142 LINE",
"517 142 LINE",
"517 217 LINE",
"452 217 LINE",
"452 625 LINE",
"266 625 LINE",
"32 185 LINE",
"32 142 LINE",
"362 142 LINE"
);
},
{
closed = 1;
nodes = (
"322 558 LINE",
"362 558 LINE",
"362 217 LINE",
"141 217 LINE"
);
}
);
width = 569;
}
);
leftKerningGroup = four;
rightKerningGroup = four;
unicode = 0034;
},
{
color = 10;
glyphname = five;
layers = (
{
hints = (
{
horizontal = 1;
origin = "{0, 26}";
target = "{0, 19}";
},
{
horizontal = 1;
origin = "{0, 7}";
target = "{0, 10}";
},
{
origin = "{0, 11}";
target = "{0, 6}";
},
{
origin = "{0, 16}";
target = "{0, 2}";
},
{
horizontal = 1;
origin = "{0, 26}";
target = up;
type = BottomGhost;
},
{
horizontal = 1;
origin = "{0, 10}";
target = down;
type = TopGhost;
}
);
layerId = "4B38D994-FE59-4B2C-A746-78B1495748E0";
paths = (
{
closed = 1;
nodes = (
"408 -15 OFFCURVE",
"472 39 OFFCURVE",
"472 162 CURVE SMOOTH",
"472 284 OFFCURVE",
"422 322 OFFCURVE",
"241 340 CURVE SMOOTH",
"182 346 LINE",
"182 550 LINE",
"438 550 LINE",
"445 625 LINE",
"92 625 LINE",
"82 381 LINE",
"82 294 OFFCURVE",
"116 274 OFFCURVE",
"292 255 CURVE SMOOTH",
"376 247 LINE",
"376 68 LINE",
"353 63 OFFCURVE",
"323 61 OFFCURVE",
"273 61 CURVE SMOOTH",
"211 61 OFFCURVE",
"136 68 OFFCURVE",
"74 80 CURVE",
"62 10 LINE",
"115 -6 OFFCURVE",
"187 -15 OFFCURVE",
"263 -15 CURVE SMOOTH"
);
}
);
width = 524;
}
);
leftKerningGroup = five;
rightKerningGroup = five;
unicode = 0035;
},
{
color = 10;
glyphname = six;
layers = (
{
hints = (
{
horizontal = 1;
origin = "{1, 20}";
target = "{0, 4}";
},
{
horizontal = 1;
origin = "{0, 8}";
target = "{1, 3}";
},
{
horizontal = 1;
origin = "{1, 14}";
target = "{1, 7}";
},
{
origin = "{1, 17}";
target = "{0, 4}";
},
{
origin = "{0, 0}";
target = "{1, 23}";
},
{
horizontal = 1;
origin = "{1, 20}";
target = up;
type = BottomGhost;
},
{
horizontal = 1;
origin = "{1, 14}";
target = down;
type = TopGhost;
}
);
layerId = "4B38D994-FE59-4B2C-A746-78B1495748E0";
paths = (
{
closed = 1;
nodes = (
"406 98 LINE SMOOTH",
"406 64 OFFCURVE",
"393 56 OFFCURVE",
"340 56 CURVE SMOOTH",
"153 56 LINE",
"153 247 LINE SMOOTH",
"153 281 OFFCURVE",
"165 289 OFFCURVE",
"218 289 CURVE SMOOTH",
"406 289 LINE"
);
},
{
closed = 1;
nodes = (
"502 308 OFFCURVE",
"443 362 OFFCURVE",
"308 362 CURVE SMOOTH",
"153 362 LINE",
"153 557 LINE",
"170 561 OFFCURVE",
"227 564 OFFCURVE",
"284 564 CURVE SMOOTH",
"342 564 OFFCURVE",
"417 556 OFFCURVE",
"464 545 CURVE",
"476 615 LINE",
"439 627 OFFCURVE",
"350 640 OFFCURVE",
"300 640 CURVE SMOOTH",
"105 640 OFFCURVE",
"57 575 OFFCURVE",
"57 312 CURVE SMOOTH",
"57 36 OFFCURVE",
"91 -15 OFFCURVE",
"280 -15 CURVE SMOOTH",
"445 -15 OFFCURVE",
"502 36 OFFCURVE",
"502 184 CURVE SMOOTH"
);
}
);
width = 559;
}
);
leftKerningGroup = six;
rightKerningGroup = six;
unicode = 0036;
},
{
color = 10;
glyphname = seven;
layers = (
{
hints = (
{
horizontal = 1;
origin = "{0, 3}";
target = "{0, 2}";
},
{
horizontal = 1;
origin = "{0, 5}";
target = up;
type = BottomGhost;
},
{
horizontal = 1;
origin = "{0, 2}";
target = down;
type = TopGhost;
}
);
layerId = "4B38D994-FE59-4B2C-A746-78B1495748E0";
paths = (
{
closed = 1;
nodes = (
"422 569 LINE",
"422 625 LINE",
"27 625 LINE",
"34 550 LINE",
"324 550 LINE",
"119 0 LINE",
"210 0 LINE"
);
}
);
width = 464;
}
);
leftKerningGroup = seven;
rightKerningGroup = seven;
unicode = 0037;
},
{
color = 10;
glyphname = eight;
layers = (
{
hints = (
{
horizontal = 1;
origin = "{0, 12}";
target = "{1, 5}";
},
{
horizontal = 1;
origin = "{0, 25}";
target = "{2, 4}";
},
{
origin = "{0, 9}";
target = "{1, 5}";
},
{
origin = "{1, 0}";
target = "{0, 22}";
},
{
origin = "{1, 1}";
target = "{0, 15}";
},
{
horizontal = 1;
origin = "{0, 12}";
target = up;
type = BottomGhost;
},
{
horizontal = 1;
origin = "{0, 25}";
target = down;
type = TopGhost;
}
);
layerId = "4B38D994-FE59-4B2C-A746-78B1495748E0";
paths = (
{
closed = 1;
nodes = (
"126 640 OFFCURVE",
"66 594 OFFCURVE",
"66 470 CURVE SMOOTH",
"66 413 OFFCURVE",
"84 365 OFFCURVE",
"114 338 CURVE",
"114 331 LINE",
"79 302 OFFCURVE",
"57 238 OFFCURVE",
"57 171 CURVE SMOOTH",
"57 20 OFFCURVE",
"101 -15 OFFCURVE",
"289 -15 CURVE SMOOTH",
"477 -15 OFFCURVE",
"519 19 OFFCURVE",
"519 171 CURVE SMOOTH",
"519 224 OFFCURVE",
"499 272 OFFCURVE",
"467 294 CURVE",
"467 301 LINE",
"494 337 OFFCURVE",
"511 402 OFFCURVE",
"511 470 CURVE SMOOTH",
"511 595 OFFCURVE",
"452 640 OFFCURVE",
"289 640 CURVE SMOOTH"
);
},
{
closed = 1;
nodes = (
"423 229 LINE",
"422 99 LINE SMOOTH",
"422 64 OFFCURVE",
"407 56 OFFCURVE",
"349 56 CURVE SMOOTH",
"153 56 LINE",
"153 297 LINE SMOOTH",
"153 309 OFFCURVE",
"157 314 OFFCURVE",
"165 314 CURVE SMOOTH",
"171 314 OFFCURVE",
"178 312 OFFCURVE",
"188 308 CURVE SMOOTH"
);
},
{
closed = 1;
nodes = (
"153 406 LINE",
"153 526 LINE SMOOTH",
"153 561 OFFCURVE",
"168 569 OFFCURVE",
"226 569 CURVE SMOOTH",
"423 569 LINE",
"423 343 LINE SMOOTH",
"423 333 OFFCURVE",
"413 325 OFFCURVE",
"400 325 CURVE SMOOTH",
"396 325 OFFCURVE",
"390 327 OFFCURVE",
"383 329 CURVE SMOOTH"
);
}
);
width = 576;
}
);
leftKerningGroup = eight;
rightKerningGroup = eight;
unicode = 0038;
},
{
color = 10;
glyphname = nine;
layers = (
{
hints = (
{
horizontal = 1;
origin = "{1, 14}";
target = "{1, 7}";
},
{
horizontal = 1;
origin = "{1, 2}";
target = "{0, 5}";
},
{
horizontal = 1;
origin = "{0, 9}";
target = "{1, 20}";
},
{
origin = "{1, 23}";
target = "{0, 8}";
},
{
origin = "{1, 4}";
target = "{1, 17}";
},
{
horizontal = 1;
origin = "{1, 14}";
target = up;
type = BottomGhost;
},
{
horizontal = 1;
origin = "{1, 20}";
target = down;
type = TopGhost;
}
);
layerId = "4B38D994-FE59-4B2C-A746-78B1495748E0";
paths = (
{
closed = 1;
nodes = (
"351 570 LINE SMOOTH",
"394 570 OFFCURVE",
"406 562 OFFCURVE",
"406 528 CURVE SMOOTH",
"406 338 LINE",
"207 338 LINE SMOOTH",
"163 338 OFFCURVE",
"153 346 OFFCURVE",
"153 380 CURVE SMOOTH",
"153 570 LINE"
);
},
{
closed = 1;
nodes = (
"57 319 OFFCURVE",
"116 265 OFFCURVE",
"251 265 CURVE SMOOTH",
"406 265 LINE",
"406 69 LINE",
"389 65 OFFCURVE",
"330 62 OFFCURVE",
"273 62 CURVE SMOOTH",
"213 62 OFFCURVE",
"133 70 OFFCURVE",
"84 82 CURVE",
"73 12 LINE",
"112 -2 OFFCURVE",
"206 -15 OFFCURVE",
"258 -15 CURVE SMOOTH",
"453 -15 OFFCURVE",
"502 50 OFFCURVE",
"502 314 CURVE SMOOTH",
"502 590 OFFCURVE",
"468 640 OFFCURVE",
"279 640 CURVE SMOOTH",
"114 640 OFFCURVE",
"57 589 OFFCURVE",
"57 443 CURVE SMOOTH"
);
}
);
width = 559;
}
);
leftKerningGroup = nine;
rightKerningGroup = nine;
unicode = 0039;
},
{
color = 10;
glyphname = fraction;
layers = (
{
layerId = "4B38D994-FE59-4B2C-A746-78B1495748E0";
paths = (
{
closed = 1;
nodes = (
"248 665 LINE",
"230 665 LINE",
"202 665 OFFCURVE",
"193 657 OFFCURVE",
"187 640 CURVE SMOOTH",
"-49 -40 LINE",
"-31 -40 LINE SMOOTH",
"-3 -40 OFFCURVE",
"3 -31 OFFCURVE",
"12 -15 CURVE"
);
}
);
width = 199;
}
);
leftKerningGroup = fraction;
rightKerningGroup = fraction;
unicode = 2044;
},
{
color = 10;
glyphname = zero.dnom;
layers = (
{
layerId = "4B38D994-FE59-4B2C-A746-78B1495748E0";
paths = (
{
closed = 1;
nodes = (
"67 17 OFFCURVE",
"87 -10 OFFCURVE",
"239 -10 CURVE SMOOTH",
"390 -10 OFFCURVE",
"409 17 OFFCURVE",
"409 203 CURVE SMOOTH",
"409 387 OFFCURVE",
"387 416 OFFCURVE",
"239 416 CURVE SMOOTH",
"89 416 OFFCURVE",
"67 386 OFFCURVE",
"67 203 CURVE SMOOTH"
);
},
{
closed = 1;
nodes = (
"273 366 LINE SMOOTH",
"332 366 OFFCURVE",
"347 359 OFFCURVE",
"347 331 CURVE SMOOTH",
"347 41 LINE",
"199 41 LINE SMOOTH",
"142 41 OFFCURVE",
"130 47 OFFCURVE",
"130 75 CURVE SMOOTH",
"130 366 LINE"
);
}
);
width = 476;
}
);
leftKerningGroup = zero.dnom;
rightKerningGroup = zero.dnom;
userData = {
RMXScaler = {
source = zero;
};
};
},
{
color = 10;
glyphname = one.dnom;
layers = (
{
hints = (
{
horizontal = 1;
origin = "{0, 9}";
target = "{0, 8}";
},
{
origin = "{0, 7}";
target = "{0, 2}";
}
);
layerId = "4B38D994-FE59-4B2C-A746-78B1495748E0";
paths = (
{
closed = 1;
nodes = (
"298 0 LINE",
"298 49 LINE",
"212 49 LINE",
"212 416 LINE",
"46 397 LINE",
"46 344 LINE",
"155 356 LINE",
"155 49 LINE",
"53 49 LINE",
"53 0 LINE"
);
}
);
width = 349;
}
);
leftKerningGroup = one.dnom;
rightKerningGroup = one.dnom;
userData = {
RMXScaler = {
source = one;
};
};
},
{
color = 10;
glyphname = two.dnom;
layers = (
{
hints = (
{
horizontal = 1;
origin = "{0, 24}";
target = "{0, 2}";
},
{
horizontal = 1;
origin = "{0, 16}";
target = "{0, 9}";
},
{
origin = "{0, 24}";
target = "{0, 2}";
},
{
origin = "{0, 20}";
target = "{0, 6}";
}
);
layerId = "4B38D994-FE59-4B2C-A746-78B1495748E0";
paths = (
{
closed = 1;
nodes = (
"351 0 LINE",
"351 49 LINE",
"121 49 LINE",
"121 128 LINE",
"343 214 OFFCURVE",
"359 232 OFFCURVE",
"359 314 CURVE SMOOTH",
"359 384 OFFCURVE",
"315 416 OFFCURVE",
"215 416 CURVE SMOOTH",
"164 416 OFFCURVE",
"114 410 OFFCURVE",
"76 399 CURVE",
"83 353 LINE",
"132 361 OFFCURVE",
"188 366 OFFCURVE",
"231 366 CURVE SMOOTH",
"262 366 OFFCURVE",
"282 364 OFFCURVE",
"297 361 CURVE",
"297 253 LINE",
"80 172 OFFCURVE",
"65 156 OFFCURVE",
"65 51 CURVE SMOOTH",
"65 0 LINE"
);
}
);
width = 426;
}
);
leftKerningGroup = two.dnom;
rightKerningGroup = two.dnom;
userData = {
RMXScaler = {
source = two;
};
};
},
{
color = 10;
glyphname = three.dnom;
layers = (
{
hints = (
{
horizontal = 1;
origin = "{0, 37}";
target = "{0, 30}";
},
{
horizontal = 1;
origin = "{0, 19}";
target = "{0, 12}";
},
{
origin = "{0, 27}";
target = "{0, 2}";
}
);
layerId = "4B38D994-FE59-4B2C-A746-78B1495748E0";
paths = (
{
closed = 1;
nodes = (
"309 -10 OFFCURVE",
"334 29 OFFCURVE",
"334 106 CURVE SMOOTH",
"334 155 OFFCURVE",
"318 185 OFFCURVE",
"282 204 CURVE",
"282 207 LINE",
"315 225 OFFCURVE",
"334 261 OFFCURVE",
"334 306 CURVE SMOOTH",
"334 380 OFFCURVE",
"290 416 OFFCURVE",
"202 416 CURVE SMOOTH",
"150 416 OFFCURVE",
"102 410 OFFCURVE",
"68 399 CURVE",
"74 353 LINE",
"115 361 OFFCURVE",
"169 366 OFFCURVE",
"211 366 CURVE SMOOTH",
"241 366 OFFCURVE",
"259 364 OFFCURVE",
"272 361 CURVE",
"272 240 LINE",
"150 222 LINE",
"150 191 LINE",
"272 176 LINE",
"272 45 LINE",
"258 42 OFFCURVE",
"232 41 OFFCURVE",
"194 41 CURVE SMOOTH",
"153 41 OFFCURVE",
"99 45 OFFCURVE",
"57 53 CURVE",
"51 7 LINE",
"84 -4 OFFCURVE",
"129 -10 OFFCURVE",
"177 -10 CURVE SMOOTH"
);
}
);
width = 397;
}
);
leftKerningGroup = three.dnom;
rightKerningGroup = three.dnom;
userData = {
RMXScaler = {
source = three;
};
};
},
{
color = 10;
glyphname = four.dnom;
layers = (
{
hints = (
{
horizontal = 1;
origin = "{0, 9}";
target = "{1, 3}";
},
{
horizontal = 1;
origin = "{1, 0}";
target = "{0, 7}";
},
{
origin = "{0, 0}";
target = "{0, 1}";
},
{
horizontal = 1;
origin = "{0, 0}";
target = up;
type = BottomGhost;
}
);
layerId = "4B38D994-FE59-4B2C-A746-78B1495748E0";
paths = (
{
closed = 1;
nodes = (
"283 0 LINE",
"340 0 LINE",
"340 92 LINE",
"386 92 LINE",
"386 141 LINE",
"340 141 LINE",
"340 406 LINE",
"218 406 LINE",
"51 121 LINE",
"51 92 LINE",
"283 92 LINE"
);
},
{
closed = 1;
nodes = (
"254 362 LINE",
"283 362 LINE",
"283 141 LINE",
"123 141 LINE"
);
}
);
width = 448;
}
);
leftKerningGroup = four.dnom;
rightKerningGroup = four.dnom;
userData = {
RMXScaler = {
source = four;
};
};
},
{
color = 10;
glyphname = five.dnom;
layers = (
{
hints = (
{
horizontal = 1;
origin = "{0, 26}";
target = "{0, 19}";
},
{
horizontal = 1;
place = "{177.1, 71.5}";
},
{
horizontal = 1;
origin = "{0, 7}";
target = "{0, 10}";
},
{
origin = "{0, 11}";
target = "{0, 6}";
},
{
origin = "{0, 16}";
target = "{0, 2}";
}
);
layerId = "4B38D994-FE59-4B2C-A746-78B1495748E0";
paths = (
{
closed = 1;
nodes = (
"305 -10 OFFCURVE",
"350 26 OFFCURVE",
"350 106 CURVE SMOOTH",
"350 185 OFFCURVE",
"314 210 OFFCURVE",
"187 222 CURVE SMOOTH",
"146 226 LINE",
"147 357 LINE",
"327 357 LINE",
"331 406 LINE",
"88 406 LINE",
"81 247 LINE",
"81 191 OFFCURVE",
"105 178 OFFCURVE",
"228 166 CURVE SMOOTH",
"288 159 LINE",
"288 45 LINE",
"272 42 OFFCURVE",
"251 41 OFFCURVE",
"216 41 CURVE SMOOTH",
"172 41 OFFCURVE",
"119 45 OFFCURVE",
"75 53 CURVE",
"67 7 LINE",
"105 -4 OFFCURVE",
"155 -10 OFFCURVE",
"205 -10 CURVE SMOOTH"
);
}
);
width = 411;
}
);
leftKerningGroup = five.dnom;
rightKerningGroup = five.dnom;
userData = {
RMXScaler = {
source = five;
};
};
},
{
color = 10;
glyphname = six.dnom;
layers = (
{
hints = (
{
horizontal = 1;
origin = "{1, 20}";
target = "{0, 4}";
},
{
horizontal = 1;
origin = "{0, 8}";
target = "{1, 3}";
},
{
horizontal = 1;
origin = "{1, 7}";
target = "{1, 14}";
},
{
origin = "{1, 17}";
target = "{0, 4}";
},
{
origin = "{0, 0}";
target = "{1, 23}";
}
);
layerId = "4B38D994-FE59-4B2C-A746-78B1495748E0";
paths = (
{
closed = 1;
nodes = (
"310 65 LINE SMOOTH",
"310 43 OFFCURVE",
"301 38 OFFCURVE",
"263 38 CURVE SMOOTH",
"127 38 LINE",
"127 161 LINE SMOOTH",
"127 183 OFFCURVE",
"136 188 OFFCURVE",
"174 188 CURVE SMOOTH",
"310 188 LINE"
);
},
{
closed = 1;
nodes = (
"372 200 OFFCURVE",
"332 235 OFFCURVE",
"240 235 CURVE SMOOTH",
"127 235 LINE",
"127 361 LINE",
"139 364 OFFCURVE",
"181 366 OFFCURVE",
"220 366 CURVE SMOOTH",
"260 366 OFFCURVE",
"314 361 OFFCURVE",
"347 353 CURVE",
"354 399 LINE",
"327 408 OFFCURVE",
"265 416 OFFCURVE",
"231 416 CURVE SMOOTH",
"97 416 OFFCURVE",
"65 373 OFFCURVE",
"65 203 CURVE SMOOTH",
"65 23 OFFCURVE",
"87 -10 OFFCURVE",
"218 -10 CURVE SMOOTH",
"333 -10 OFFCURVE",
"372 23 OFFCURVE",
"372 119 CURVE SMOOTH"
);
}
);
width = 437;
}
);
leftKerningGroup = six.dnom;
rightKerningGroup = six.dnom;
userData = {
RMXScaler = {
source = six;
};
};
},
{
color = 10;
glyphname = seven.dnom;
layers = (
{
hints = (
{
horizontal = 1;
origin = "{0, 3}";
target = "{0, 2}";
},
{
horizontal = 1;
origin = "{0, 5}";
target = up;
type = BottomGhost;
}
);
layerId = "4B38D994-FE59-4B2C-A746-78B1495748E0";
paths = (
{
closed = 1;
nodes = (
"321 370 LINE",
"321 406 LINE",
"48 406 LINE",
"53 357 LINE",
"258 357 LINE",
"114 0 LINE",
"172 0 LINE"
);
}
);
width = 377;
}
);
leftKerningGroup = seven.dnom;
rightKerningGroup = seven.dnom;
userData = {
RMXScaler = {
source = seven;
};
};
},
{
color = 10;
glyphname = eight.dnom;
layers = (
{
hints = (
{
horizontal = 1;
origin = "{0, 12}";
target = "{1, 5}";
},
{
horizontal = 1;
origin = "{2, 4}";
target = "{0, 25}";
},
{
origin = "{0, 9}";
target = "{1, 5}";
},
{
origin = "{1, 0}";
target = "{0, 22}";
},
{
origin = "{0, 2}";
target = "{1, 5}";
},
{
origin = "{1, 1}";
target = "{0, 15}";
}
);
layerId = "4B38D994-FE59-4B2C-A746-78B1495748E0";
paths = (
{
closed = 1;
nodes = (
"128 416 OFFCURVE",
"70 398 OFFCURVE",
"70 306 CURVE SMOOTH",
"70 269 OFFCURVE",
"83 237 OFFCURVE",
"104 219 CURVE",
"104 215 LINE",
"82 197 OFFCURVE",
"65 156 OFFCURVE",
"65 111 CURVE SMOOTH",
"65 11 OFFCURVE",
"97 -10 OFFCURVE",
"226 -10 CURVE SMOOTH",
"355 -10 OFFCURVE",
"385 11 OFFCURVE",
"385 111 CURVE SMOOTH",
"385 146 OFFCURVE",
"371 176 OFFCURVE",
"350 191 CURVE",
"350 195 LINE",
"366 218 OFFCURVE",
"379 258 OFFCURVE",
"379 306 CURVE SMOOTH",
"379 398 OFFCURVE",
"322 416 OFFCURVE",
"226 416 CURVE SMOOTH"
);
},
{
closed = 1;
nodes = (
"323 148 LINE",
"322 65 LINE SMOOTH",
"322 40 OFFCURVE",
"304 38 OFFCURVE",
"270 38 CURVE SMOOTH",
"127 38 LINE",
"127 193 LINE SMOOTH",
"127 200 OFFCURVE",
"130 204 OFFCURVE",
"136 204 CURVE SMOOTH",
"141 204 OFFCURVE",
"147 202 OFFCURVE",
"152 200 CURVE SMOOTH"
);
},
{
closed = 1;
nodes = (
"127 264 LINE",
"127 341 LINE SMOOTH",
"127 367 OFFCURVE",
"145 369 OFFCURVE",
"180 369 CURVE SMOOTH",
"323 369 LINE",
"323 223 LINE SMOOTH",
"323 217 OFFCURVE",
"316 212 OFFCURVE",
"307 212 CURVE SMOOTH",
"304 212 OFFCURVE",
"300 213 OFFCURVE",
"295 214 CURVE SMOOTH"
);
}
);
width = 450;
}
);
leftKerningGroup = eight.dnom;
rightKerningGroup = eight.dnom;
userData = {
RMXScaler = {
source = eight;
};
};
},
{
color = 10;
glyphname = nine.dnom;
layers = (
{
hints = (
{
horizontal = 1;
origin = "{1, 14}";
target = "{1, 7}";
},
{
horizontal = 1;
origin = "{1, 2}";
target = "{0, 5}";
},
{
horizontal = 1;
origin = "{0, 9}";
target = "{1, 20}";
},
{
origin = "{1, 23}";
target = "{0, 8}";
},
{
origin = "{1, 4}";
target = "{1, 17}";
}
);
layerId = "4B38D994-FE59-4B2C-A746-78B1495748E0";
paths = (
{
closed = 1;
nodes = (
"271 371 LINE SMOOTH",
"302 371 OFFCURVE",
"310 366 OFFCURVE",
"310 344 CURVE SMOOTH",
"310 221 LINE",
"166 221 LINE SMOOTH",
"134 221 OFFCURVE",
"127 226 OFFCURVE",
"127 248 CURVE SMOOTH",
"127 371 LINE"
);
},
{
closed = 1;
nodes = (
"65 207 OFFCURVE",
"105 172 OFFCURVE",
"197 172 CURVE SMOOTH",
"310 172 LINE",
"310 46 LINE",
"298 43 OFFCURVE",
"256 41 OFFCURVE",
"216 41 CURVE SMOOTH",
"173 41 OFFCURVE",
"118 46 OFFCURVE",
"83 54 CURVE",
"76 8 LINE",
"105 -1 OFFCURVE",
"170 -9 OFFCURVE",
"205 -9 CURVE SMOOTH",
"340 -9 OFFCURVE",
"372 33 OFFCURVE",
"372 204 CURVE SMOOTH",
"372 384 OFFCURVE",
"350 417 OFFCURVE",
"218 417 CURVE SMOOTH",
"104 417 OFFCURVE",
"65 384 OFFCURVE",
"65 288 CURVE SMOOTH"
);
}
);
width = 437;
}
);
leftKerningGroup = nine.dnom;
rightKerningGroup = nine.dnom;
userData = {
RMXScaler = {
source = nine;
};
};
},
{
color = 4;
glyphname = "zero-ar";
layers = (
{
layerId = "4B38D994-FE59-4B2C-A746-78B1495748E0";
paths = (
{
closed = 1;
nodes = (
"60 280 OFFCURVE",
"74 266 OFFCURVE",
"117 266 CURVE SMOOTH",
"160 266 OFFCURVE",
"174 281 OFFCURVE",
"174 327 CURVE SMOOTH",
"174 371 OFFCURVE",
"159 387 OFFCURVE",
"117 387 CURVE SMOOTH",
"74 387 OFFCURVE",
"60 372 OFFCURVE",
"60 327 CURVE SMOOTH"
);
}
);
width = 233;
}
);
leftMetricsKey = "=dotcenter-ar+30";
rightMetricsKey = "=dotcenter-ar+30";
unicode = 0660;
},
{
color = 4;
glyphname = "one-ar";
layers = (
{
hints = (
{
horizontal = 1;
origin = "{0, 3}";
target = down;
type = TopGhost;
},
{
origin = "{0, 0}";
target = "{0, 1}";
}
);
layerId = "4B38D994-FE59-4B2C-A746-78B1495748E0";
paths = (
{
closed = 1;
nodes = (
"94 0 LINE",
"166 0 LINE",
"166 625 LINE",
"94 625 LINE"
);
}
);
width = 260;
}
);
leftMetricsKey = H;
rightMetricsKey = H;
unicode = 0661;
},
{
color = 4;
glyphname = "two-ar";
layers = (
{
hints = (
{
horizontal = 1;
origin = "{0, 7}";
target = up;
type = BottomGhost;
},
{
horizontal = 1;
origin = "{0, 12}";
target = "{0, 1}";
},
{
horizontal = 1;
origin = "{0, 6}";
target = down;
type = TopGhost;
},
{
origin = "{0, 7}";
target = "{0, 8}";
},
{
origin = "{0, 0}";
target = "{0, 15}";
}
);
layerId = "4B38D994-FE59-4B2C-A746-78B1495748E0";
paths = (
{
closed = 1;
nodes = (
"395 268 LINE",
"266 268 LINE SMOOTH",
"196 268 OFFCURVE",
"166 281 OFFCURVE",
"166 327 CURVE SMOOTH",
"166 625 LINE",
"94 625 LINE",
"94 0 LINE",
"166 0 LINE",
"166 226 LINE",
"212 199 OFFCURVE",
"271 186 OFFCURVE",
"335 186 CURVE SMOOTH",
"428 186 OFFCURVE",
"467 213 OFFCURVE",
"467 267 CURVE SMOOTH",
"467 625 LINE",
"395 625 LINE"
);
}
);
width = 528;
}
);
leftMetricsKey = H;
unicode = 0662;
},
{
color = 4;
glyphname = "three-ar";
layers = (
{
hints = (
{
horizontal = 1;
origin = "{0, 30}";
target = up;
type = BottomGhost;
},
{
horizontal = 1;
origin = "{0, 4}";
target = "{0, 24}";
},
{
horizontal = 1;
origin = "{0, 29}";
target = down;
type = TopGhost;
},
{
origin = "{0, 30}";
target = "{0, 0}";
},
{
origin = "{0, 23}";
target = "{0, 21}";
},
{
origin = "{0, 16}";
target = "{0, 13}";
}
);
layerId = "4B38D994-FE59-4B2C-A746-78B1495748E0";
paths = (
{
closed = 1;
nodes = (
"166 0 LINE",
"166 218 LINE",
"209 189 OFFCURVE",
"260 175 OFFCURVE",
"325 175 CURVE SMOOTH",
"395 175 OFFCURVE",
"437 192 OFFCURVE",
"451 226 CURVE",
"495 190 OFFCURVE",
"547 175 OFFCURVE",
"615 175 CURVE SMOOTH",
"703 175 OFFCURVE",
"747 201 OFFCURVE",
"747 256 CURVE SMOOTH",
"747 625 LINE",
"675 625 LINE",
"675 255 LINE",
"556 255 LINE SMOOTH",
"482 255 OFFCURVE",
"457 270 OFFCURVE",
"457 315 CURVE SMOOTH",
"457 625 LINE",
"385 625 LINE",
"385 255 LINE",
"266 255 LINE SMOOTH",
"192 255 OFFCURVE",
"166 270 OFFCURVE",
"166 315 CURVE SMOOTH",
"166 625 LINE",
"94 625 LINE",
"94 0 LINE"
);
}
);
width = 808;
}
);
leftMetricsKey = H;
unicode = 0663;
},
{
color = 4;
glyphname = "four-ar";
layers = (
{
hints = (
{
horizontal = 1;
origin = "{1, 3}";
target = "{1, 6}";
},
{
horizontal = 1;
origin = "{0, 14}";
target = "{0, 7}";
},
{
origin = "{0, 17}";
target = "{0, 0}";
},
{
horizontal = 1;
origin = "{0, 1}";
target = "{0, 2}";
}
);
layerId = "4B38D994-FE59-4B2C-A746-78B1495748E0";
paths = (
{
closed = 1;
nodes = (
"164 293 LINE",
"334 293 LINE",
"334 341 LINE",
"150 369 LINE",
"150 552 LINE",
"168 557 OFFCURVE",
"204 559 OFFCURVE",
"247 559 CURVE SMOOTH",
"307 559 OFFCURVE",
"383 552 OFFCURVE",
"442 540 CURVE",
"451 615 LINE",
"399 631 OFFCURVE",
"330 640 OFFCURVE",
"256 640 CURVE SMOOTH",
"125 640 OFFCURVE",
"73 583 OFFCURVE",
"73 471 CURVE SMOOTH",
"73 403 OFFCURVE",
"88 346 OFFCURVE",
"139 319 CURVE",
"139 314 LINE"
);
},
{
closed = 1;
nodes = (
"86 231 OFFCURVE",
"54 146 OFFCURVE",
"41 63 CURVE",
"41 0 LINE",
"467 0 LINE",
"467 81 LINE",
"115 81 LINE",
"129 158 OFFCURVE",
"160 237 OFFCURVE",
"213 314 CURVE",
"139 314 LINE"
);
}
);
width = 498;
}
);
unicode = 0664;
},
{
color = 4;
glyphname = "five-ar";
layers = (
{
layerId = "4B38D994-FE59-4B2C-A746-78B1495748E0";
paths = (
{
closed = 1;
nodes = (
"62 25 OFFCURVE",
"82 -15 OFFCURVE",
"300 -15 CURVE SMOOTH",
"517 -15 OFFCURVE",
"536 25 OFFCURVE",
"536 312 CURVE SMOOTH",
"536 595 OFFCURVE",
"512 640 OFFCURVE",
"300 640 CURVE SMOOTH",
"86 640 OFFCURVE",
"62 594 OFFCURVE",
"62 312 CURVE SMOOTH"
);
},
{
closed = 1;
nodes = (
"459 118 LINE SMOOTH",
"459 75 OFFCURVE",
"436 65 OFFCURVE",
"373 65 CURVE SMOOTH",
"138 65 LINE",
"138 507 LINE SMOOTH",
"138 549 OFFCURVE",
"163 560 OFFCURVE",
"230 560 CURVE SMOOTH",
"459 560 LINE"
);
}
);
width = 598;
}
);
leftMetricsKey = zero;
rightMetricsKey = zero;
unicode = 0665;
},
{
color = 4;
glyphname = "six-ar";
layers = (
{
color = 1;
hints = (
{
horizontal = 1;
origin = "{0, 3}";
target = up;
type = BottomGhost;
},
{
horizontal = 1;
origin = "{0, 1}";
target = "{0, 0}";
},
{
origin = "{0, 3}";
target = "{0, 4}";
}
);
layerId = "4B38D994-FE59-4B2C-A746-78B1495748E0";
paths = (
{
closed = 1;
nodes = (
"16 625 LINE",
"16 544 LINE",
"259 544 LINE",
"259 0 LINE",
"331 0 LINE",
"331 625 LINE"
);
}
);
width = 425;
}
);
leftMetricsKey = T;
rightMetricsKey = H;
unicode = 0666;
},
{
color = 4;
glyphname = "seven-ar";
layers = (
{
layerId = "4B38D994-FE59-4B2C-A746-78B1495748E0";
paths = (
{
closed = 1;
nodes = (
"70 417 OFFCURVE",
"131 208 OFFCURVE",
"201 0 CURVE",
"310 0 LINE",
"380 208 OFFCURVE",
"441 417 OFFCURVE",
"491 625 CURVE",
"411 625 LINE",
"370 441 OFFCURVE",
"321 257 OFFCURVE",
"260 73 CURVE",
"251 73 LINE",
"191 257 OFFCURVE",
"141 441 OFFCURVE",
"101 625 CURVE",
"20 625 LINE"
);
}
);
width = 511;
}
);
unicode = 0667;
},
{
color = 4;
glyphname = "nine-ar";
lastChange = "2016-02-27 16:04:48 +0000";
layers = (
{
hints = (
{
horizontal = 1;
origin = "{0, 0}";
target = up;
type = BottomGhost;
},
{
horizontal = 1;
origin = "{0, 9}";
target = "{1, 0}";
},
{
horizontal = 1;
origin = "{1, 7}";
target = "{0, 3}";
},
{
origin = "{0, 6}";
target = "{1, 3}";
},
{
origin = "{0, 0}";
target = "{0, 1}";
}
);
layerId = "4B38D994-FE59-4B2C-A746-78B1495748E0";
paths = (
{
closed = 1;
nodes = (
"341 0 LINE",
"413 0 LINE",
"413 625 LINE",
"181 625 LINE SMOOTH",
"53 625 OFFCURVE",
"21 573 OFFCURVE",
"21 418 CURVE SMOOTH",
"21 271 OFFCURVE",
"53 214 OFFCURVE",
"166 214 CURVE SMOOTH",
"341 214 LINE"
);
},
{
closed = 1;
nodes = (
"147 295 LINE SMOOTH",
"116 295 OFFCURVE",
"98 305 OFFCURVE",
"98 337 CURVE SMOOTH",
"98 504 LINE SMOOTH",
"98 536 OFFCURVE",
"116 546 OFFCURVE",
"147 546 CURVE SMOOTH",
"341 546 LINE",
"341 295 LINE"
);
}
);
width = 507;
}
);
leftMetricsKey = "=|P";
rightMetricsKey = H;
unicode = 0669;
},
{
color = 4;
glyphname = "four-persian";
layers = (
{
hints = (
{
horizontal = 1;
origin = "{0, 26}";
target = up;
type = BottomGhost;
},
{
horizontal = 1;
origin = "{0, 31}";
target = "{0, 20}";
},
{
horizontal = 1;
origin = "{0, 15}";
target = "{0, 8}";
},
{
horizontal = 1;
origin = "{0, 12}";
target = up;
type = BottomGhost;
},
{
horizontal = 1;
origin = "{0, 25}";
target = down;
type = TopGhost;
},
{
origin = "{0, 26}";
target = "{0, 27}";
},
{
origin = "{0, 19}";
target = "{0, 34}";
},
{
origin = "{0, 0}";
target = "{0, 40}";
}
);
layerId = "4B38D994-FE59-4B2C-A746-78B1495748E0";
paths = (
{
closed = 1;
nodes = (
"675 248 LINE",
"555 248 LINE SMOOTH",
"491 248 OFFCURVE",
"457 259 OFFCURVE",
"457 292 CURVE SMOOTH",
"457 547 LINE",
"486 556 OFFCURVE",
"526 559 OFFCURVE",
"572 559 CURVE SMOOTH",
"605 559 OFFCURVE",
"636 557 OFFCURVE",
"666 552 CURVE",
"676 631 LINE",
"646 637 OFFCURVE",
"611 640 OFFCURVE",
"577 640 CURVE SMOOTH",
"416 640 OFFCURVE",
"385 605 OFFCURVE",
"385 459 CURVE SMOOTH",
"385 248 LINE",
"265 248 LINE SMOOTH",
"197 248 OFFCURVE",
"166 261 OFFCURVE",
"166 308 CURVE SMOOTH",
"166 625 LINE",
"94 625 LINE",
"94 0 LINE",
"166 0 LINE",
"166 208 LINE",
"209 180 OFFCURVE",
"265 167 OFFCURVE",
"325 167 CURVE SMOOTH",
"395 167 OFFCURVE",
"440 183 OFFCURVE",
"457 213 CURVE",
"498 181 OFFCURVE",
"548 167 OFFCURVE",
"615 167 CURVE SMOOTH",
"708 167 OFFCURVE",
"747 195 OFFCURVE",
"747 249 CURVE SMOOTH",
"747 416 LINE",
"675 416 LINE"
);
}
);
width = 808;
}
);
leftMetricsKey = H;
unicode = 06F4;
},
{
color = 4;
glyphname = "four-persian.urdu";
layers = (
{
hints = (
{
horizontal = 1;
origin = "{0, 17}";
target = up;
type = BottomGhost;
},
{
horizontal = 1;
origin = "{0, 11}";
target = "{0, 4}";
},
{
horizontal = 1;
origin = "{0, 16}";
target = "{0, 4}";
},
{
origin = "{0, 17}";
target = "{0, 0}";
},
{
origin = "{0, 6}";
target = "{0, 7}";
}
);
layerId = "4B38D994-FE59-4B2C-A746-78B1495748E0";
paths = (
{
closed = 1;
nodes = (
"166 0 LINE",
"166 499 LINE SMOOTH",
"166 546 OFFCURVE",
"197 559 OFFCURVE",
"265 559 CURVE SMOOTH",
"363 559 LINE",
"363 376 LINE",
"435 376 LINE",
"435 549 LINE SMOOTH",
"435 604 OFFCURVE",
"396 640 OFFCURVE",
"303 640 CURVE SMOOTH",
"267 640 OFFCURVE",
"206 628 OFFCURVE",
"166 601 CURVE",
"166 625 LINE",
"94 625 LINE",
"94 0 LINE"
);
},
{
closed = 1;
nodes = (
"435 376 LINE",
"435 499 LINE SMOOTH",
"435 545 OFFCURVE",
"466 559 OFFCURVE",
"533 559 CURVE SMOOTH",
"579 559 LINE",
"594 640 LINE",
"520 640 OFFCURVE",
"466 621 OFFCURVE",
"419 581 CURVE"
);
}
);
width = 610;
}
);
leftMetricsKey = H;
},
{
color = 4;
glyphname = "five-persian";
layers = (
{
color = 1;
layerId = "4B38D994-FE59-4B2C-A746-78B1495748E0";
paths = (
{
closed = 1;
nodes = (
"222 0 LINE SMOOTH",
"271 0 OFFCURVE",
"300 15 OFFCURVE",
"320 52 CURVE",
"323 52 LINE",
"340 19 OFFCURVE",
"377 0 OFFCURVE",
"421 0 CURVE SMOOTH",
"545 0 LINE SMOOTH",
"575 0 OFFCURVE",
"591 13 OFFCURVE",
"591 35 CURVE SMOOTH",
"591 163 OFFCURVE",
"496 427 OFFCURVE",
"380 625 CURVE",
"310 596 LINE",
"409 424 OFFCURVE",
"473 255 OFFCURVE",
"502 81 CURVE",
"393 81 LINE SMOOTH",
"372 81 OFFCURVE",
"360 92 OFFCURVE",
"354 113 CURVE SMOOTH",
"334 203 LINE",
"309 203 LINE",
"289 113 LINE SMOOTH",
"284 92 OFFCURVE",
"272 81 OFFCURVE",
"250 81 CURVE SMOOTH",
"141 81 LINE",
"166 220 OFFCURVE",
"223 356 OFFCURVE",
"309 495 CURVE",
"224 495 LINE",
"134 352 OFFCURVE",
"52 131 OFFCURVE",
"52 35 CURVE SMOOTH",
"52 13 OFFCURVE",
"69 0 OFFCURVE",
"98 0 CURVE SMOOTH"
);
}
);
width = 643;
}
);
unicode = 06F5;
},
{
color = 4;
glyphname = "six-persian";
layers = (
{
hints = (
{
horizontal = 1;
place = "{0, 77}";
},
{
horizontal = 1;
place = "{704, -93.5}";
},
{
origin = "{0, 2}";
target = "{0, 7}";
},
{
horizontal = 1;
origin = "{0, 6}";
target = "{0, 6}";
}
);
layerId = "4B38D994-FE59-4B2C-A746-78B1495748E0";
paths = (
{
closed = 1;
nodes = (
"86 255 OFFCURVE",
"54 162 OFFCURVE",
"41 70 CURVE",
"121 70 LINE",
"134 162 OFFCURVE",
"166 255 OFFCURVE",
"219 346 CURVE",
"139 346 LINE"
);
},
{
closed = 1;
nodes = (
"164 293 LINE",
"334 293 LINE",
"334 341 LINE",
"150 369 LINE",
"150 552 LINE",
"168 557 OFFCURVE",
"204 559 OFFCURVE",
"247 559 CURVE SMOOTH",
"307 559 OFFCURVE",
"383 552 OFFCURVE",
"442 540 CURVE",
"451 615 LINE",
"399 631 OFFCURVE",
"330 640 OFFCURVE",
"256 640 CURVE SMOOTH",
"125 640 OFFCURVE",
"73 583 OFFCURVE",
"73 471 CURVE SMOOTH",
"73 403 OFFCURVE",
"88 346 OFFCURVE",
"139 319 CURVE",
"139 314 LINE"
);
}
);
width = 488;
}
);
unicode = 06F6;
},
{
color = 4;
glyphname = "seven-persian.urdu";
layers = (
{
layerId = "4B38D994-FE59-4B2C-A746-78B1495748E0";
paths = (
{
closed = 1;
nodes = (
"143 435 OFFCURVE",
"73 246 OFFCURVE",
"42 56 CURVE",
"42 0 LINE",
"437 0 LINE",
"429 88 LINE",
"131 88 LINE",
"162 268 OFFCURVE",
"232 445 OFFCURVE",
"339 625 CURVE",
"254 625 LINE"
);
}
);
width = 464;
}
);
leftMetricsKey = "=|seven";
rightMetricsKey = "=|seven";
},
{
color = 10;
glyphname = asterisk;
layers = (
{
layerId = "4B38D994-FE59-4B2C-A746-78B1495748E0";
paths = (
{
closed = 1;
nodes = (
"412 393 LINE",
"384 432 LINE",
"270 538 LINE",
"245 519 LINE",
"310 379 LINE",
"338 339 LINE"
);
},
{
closed = 1;
nodes = (
"205 379 LINE",
"271 519 LINE",
"245 538 LINE",
"132 432 LINE",
"104 393 LINE",
"178 339 LINE"
);
},
{
closed = 1;
nodes = (
"263 543 LINE",
"129 618 LINE",
"81 634 LINE",
"53 548 LINE",
"100 533 LINE",
"254 514 LINE"
);
},
{
closed = 1;
nodes = (
"274 529 LINE",
"304 681 LINE",
"304 730 LINE",
"213 730 LINE",
"213 681 LINE",
"243 529 LINE"
);
},
{
closed = 1;
nodes = (
"417 533 LINE",
"464 548 LINE",
"436 634 LINE",
"388 618 LINE",
"254 543 LINE",
"263 514 LINE"
);
}
);
width = 516;
}
);
leftKerningGroup = asterisk;
rightKerningGroup = asterisk;
unicode = 002A;
},
{
color = 10;
glyphname = backslash;
layers = (
{
layerId = "4B38D994-FE59-4B2C-A746-78B1495748E0";
paths = (
{
closed = 1;
nodes = (
"321 -15 LINE",
"330 -31 OFFCURVE",
"336 -40 OFFCURVE",
"364 -40 CURVE SMOOTH",
"406 -40 LINE",
"83 640 LINE SMOOTH",
"74 656 OFFCURVE",
"68 665 OFFCURVE",
"40 665 CURVE SMOOTH",
"-2 665 LINE"
);
}
);
width = 404;
}
);
leftKerningGroup = backslash;
rightKerningGroup = backslash;
unicode = 005C;
},
{
color = 10;
glyphname = bullet;
layers = (
{
layerId = "4B38D994-FE59-4B2C-A746-78B1495748E0";
paths = (
{
closed = 1;
nodes = (
"67 272 OFFCURVE",
"80 254 OFFCURVE",
"138 254 CURVE SMOOTH",
"193 254 OFFCURVE",
"206 272 OFFCURVE",
"206 321 CURVE SMOOTH",
"206 369 OFFCURVE",
"193 389 OFFCURVE",
"138 389 CURVE SMOOTH",
"80 389 OFFCURVE",
"67 369 OFFCURVE",
"67 321 CURVE SMOOTH"
);
}
);
width = 273;
}
);
leftKerningGroup = bullet;
rightKerningGroup = bullet;
unicode = 2022;
},
{
color = 10;
glyphname = comma;
layers = (
{
layerId = "4B38D994-FE59-4B2C-A746-78B1495748E0";
paths = (
{
closed = 1;
nodes = (
"148 -28 LINE SMOOTH",
"166 15 OFFCURVE",
"174 39 OFFCURVE",
"173 58 CURVE SMOOTH",
"173 107 OFFCURVE",
"158 124 OFFCURVE",
"115 124 CURVE SMOOTH",
"67 124 OFFCURVE",
"52 107 OFFCURVE",
"52 58 CURVE SMOOTH",
"52 16 OFFCURVE",
"61 1 OFFCURVE",
"91 -5 CURVE",
"72 -91 LINE",
"113 -104 LINE"
);
}
);
width = 225;
}
);
leftKerningGroup = period;
rightKerningGroup = period;
unicode = 002C;
},
{
color = 10;
glyphname = exclam;
layers = (
{
components = (
{
name = period;
transform = "{1.013, 0, 0, 1.013, 8, 0}";
}
);
layerId = "4B38D994-FE59-4B2C-A746-78B1495748E0";
paths = (
{
closed = 1;
nodes = (
"150 193 LINE",
"179 628 LINE",
"179 637 OFFCURVE",
"175 645 OFFCURVE",
"156 645 CURVE SMOOTH",
"88 645 LINE SMOOTH",
"69 645 OFFCURVE",
"65 637 OFFCURVE",
"65 628 CURVE",
"94 193 LINE"
);
}
);
width = 245;
}
);
leftKerningGroup = exclam;
rightKerningGroup = exclam;
unicode = 0021;
},
{
color = 10;
glyphname = numbersign;
layers = (
{
layerId = "4B38D994-FE59-4B2C-A746-78B1495748E0";
paths = (
{
closed = 1;
nodes = (
"356 -40 LINE SMOOTH",
"384 -40 OFFCURVE",
"392 -32 OFFCURVE",
"399 -15 CURVE SMOOTH",
"668 665 LINE",
"633 665 LINE SMOOTH",
"605 665 OFFCURVE",
"597 657 OFFCURVE",
"590 640 CURVE SMOOTH",
"321 -40 LINE"
);
},
{
closed = 1;
nodes = (
"550 160 LINE SMOOTH",
"569 160 OFFCURVE",
"580 161 OFFCURVE",
"591 187 CURVE SMOOTH",
"604 219 LINE",
"86 219 LINE SMOOTH",
"67 219 OFFCURVE",
"54 217 OFFCURVE",
"44 192 CURVE SMOOTH",
"31 160 LINE"
);
},
{
closed = 1;
nodes = (
"101 -40 LINE SMOOTH",
"129 -40 OFFCURVE",
"137 -32 OFFCURVE",
"144 -15 CURVE SMOOTH",
"413 665 LINE",
"378 665 LINE SMOOTH",
"350 665 OFFCURVE",
"342 657 OFFCURVE",
"335 640 CURVE SMOOTH",
"66 -40 LINE"
);
},
{
closed = 1;
nodes = (
"649 404 LINE SMOOTH",
"668 404 OFFCURVE",
"679 405 OFFCURVE",
"690 432 CURVE SMOOTH",
"703 464 LINE",
"185 464 LINE SMOOTH",
"166 464 OFFCURVE",
"153 461 OFFCURVE",
"143 436 CURVE SMOOTH",
"130 404 LINE"
);
}
);
width = 731;
}
);
leftKerningGroup = numbersign;
rightKerningGroup = numbersign;
unicode = 0023;
},
{
color = 10;
glyphname = period;
layers = (
{
layerId = "4B38D994-FE59-4B2C-A746-78B1495748E0";
paths = (
{
closed = 1;
nodes = (
"52 12 OFFCURVE",
"62 -6 OFFCURVE",
"113 -6 CURVE SMOOTH",
"162 -6 OFFCURVE",
"173 12 OFFCURVE",
"173 58 CURVE SMOOTH",
"173 104 OFFCURVE",
"162 124 OFFCURVE",
"113 124 CURVE SMOOTH",
"62 124 OFFCURVE",
"52 104 OFFCURVE",
"52 58 CURVE SMOOTH"
);
}
);
width = 225;
}
);
leftKerningGroup = period;
rightKerningGroup = period;
unicode = 002E;
},
{
color = 10;
glyphname = question;
layers = (
{
components = (
{
name = period;
transform = "{1.013, 0, 0, 1.013, 58, 0}";
}
);
layerId = "4B38D994-FE59-4B2C-A746-78B1495748E0";
paths = (
{
closed = 1;
nodes = (
"200 193 LINE",
"205 335 LINE",
"368 393 OFFCURVE",
"387 413 OFFCURVE",
"387 505 CURVE SMOOTH",
"387 604 OFFCURVE",
"335 640 OFFCURVE",
"196 640 CURVE SMOOTH",
"146 640 OFFCURVE",
"91 631 OFFCURVE",
"33 614 CURVE",
"45 553 LINE",
"111 566 OFFCURVE",
"168 573 OFFCURVE",
"202 573 CURVE SMOOTH",
"233 573 OFFCURVE",
"265 571 OFFCURVE",
"293 567 CURVE",
"293 442 LINE",
"198 408 LINE SMOOTH",
"146 390 OFFCURVE",
"132 382 OFFCURVE",
"133 365 CURVE SMOOTH",
"144 193 LINE"
);
}
);
width = 407;
}
);
leftKerningGroup = question;
rightKerningGroup = question;
unicode = 003F;
},
{
color = 10;
glyphname = quotedbl;
layers = (
{
layerId = "4B38D994-FE59-4B2C-A746-78B1495748E0";
paths = (
{
closed = 1;
nodes = (
"303 396 LINE",
"336 568 LINE",
"336 623 LINE SMOOTH",
"336 638 OFFCURVE",
"328 650 OFFCURVE",
"299 650 CURVE SMOOTH",
"271 650 LINE SMOOTH",
"242 650 OFFCURVE",
"234 638 OFFCURVE",
"234 623 CURVE SMOOTH",
"234 568 LINE",
"268 396 LINE"
);
},
{
closed = 1;
nodes = (
"129 396 LINE",
"163 568 LINE",
"163 623 LINE SMOOTH",
"163 638 OFFCURVE",
"155 650 OFFCURVE",
"126 650 CURVE SMOOTH",
"98 650 LINE SMOOTH",
"69 650 OFFCURVE",
"61 638 OFFCURVE",
"61 623 CURVE SMOOTH",
"61 568 LINE",
"95 396 LINE"
);
}
);
width = 398;
}
);
leftKerningGroup = quotedbl;
rightKerningGroup = quotedbl;
unicode = 0022;
},
{
color = 10;
glyphname = quotesingle;
layers = (
{
layerId = "4B38D994-FE59-4B2C-A746-78B1495748E0";
paths = (
{
closed = 1;
nodes = (
"129 396 LINE",
"163 568 LINE",
"163 623 LINE SMOOTH",
"163 638 OFFCURVE",
"155 650 OFFCURVE",
"126 650 CURVE SMOOTH",
"98 650 LINE SMOOTH",
"69 650 OFFCURVE",
"61 638 OFFCURVE",
"61 623 CURVE SMOOTH",
"61 568 LINE",
"95 396 LINE"
);
}
);
width = 225;
}
);
leftKerningGroup = quotedbl;
rightKerningGroup = quotedbl;
unicode = 0027;
},
{
color = 10;
glyphname = slash;
layers = (
{
anchors = (
{
name = _center;
position = "{202, 313}";
}
);
layerId = "4B38D994-FE59-4B2C-A746-78B1495748E0";
paths = (
{
closed = 1;
nodes = (
"404 665 LINE",
"375 665 LINE SMOOTH",
"352 665 OFFCURVE",
"342 660 OFFCURVE",
"332 640 CURVE SMOOTH",
"0 -40 LINE",
"29 -40 LINE SMOOTH",
"52 -40 OFFCURVE",
"62 -35 OFFCURVE",
"72 -15 CURVE SMOOTH"
);
}
);
width = 404;
}
);
leftKerningGroup = slash;
rightKerningGroup = slash;
unicode = 002F;
},
{
color = 10;
glyphname = underscore;
layers = (
{
layerId = "4B38D994-FE59-4B2C-A746-78B1495748E0";
paths = (
{
closed = 1;
nodes = (
"25 -73 LINE",
"402 -73 LINE SMOOTH",
"442 -73 OFFCURVE",
"460 -70 OFFCURVE",
"460 -31 CURVE SMOOTH",
"460 4 LINE",
"83 4 LINE SMOOTH",
"43 4 OFFCURVE",
"25 1 OFFCURVE",
"25 -38 CURVE SMOOTH"
);
}
);
width = 485;
}
);
leftKerningGroup = underscore;
rightKerningGroup = underscore;
unicode = 005F;
},
{
color = 10;
glyphname = braceleft;
layers = (
{
layerId = "4B38D994-FE59-4B2C-A746-78B1495748E0";
paths = (
{
closed = 1;
nodes = (
"195 175 LINE SMOOTH",
"201 236 OFFCURVE",
"181 278 OFFCURVE",
"139 305 CURVE",
"139 317 LINE",
"181 344 OFFCURVE",
"201 386 OFFCURVE",
"195 447 CURVE SMOOTH",
"177 646 LINE",
"260 653 LINE",
"254 724 LINE",
"129 724 OFFCURVE",
"86 719 OFFCURVE",
"92 613 CURVE SMOOTH",
"107 364 LINE",
"42 347 LINE",
"42 275 LINE",
"107 258 LINE",
"92 12 LINE SMOOTH",
"86 -94 OFFCURVE",
"139 -99 OFFCURVE",
"254 -99 CURVE",
"260 -28 LINE",
"177 -21 LINE"
);
}
);
width = 312;
}
);
leftKerningGroup = braceleft;
rightKerningGroup = braceleft;
unicode = 007B;
},
{
color = 10;
glyphname = bracketleft;
layers = (
{
layerId = "4B38D994-FE59-4B2C-A746-78B1495748E0";
paths = (
{
closed = 1;
nodes = (
"72 6 LINE SMOOTH",
"72 -73 OFFCURVE",
"112 -99 OFFCURVE",
"236 -99 CURVE",
"243 -29 LINE",
"160 -21 LINE",
"160 646 LINE",
"243 654 LINE",
"236 724 LINE",
"112 724 OFFCURVE",
"72 698 OFFCURVE",
"72 619 CURVE SMOOTH"
);
}
);
width = 273;
}
);
leftKerningGroup = bracketleft;
rightKerningGroup = bracketleft;
unicode = 005B;
},
{
color = 10;
glyphname = parenleft;
layers = (
{
layerId = "4B38D994-FE59-4B2C-A746-78B1495748E0";
paths = (
{
closed = 1;
nodes = (
"251 -33 LINE",
"184 29 OFFCURVE",
"134 106 OFFCURVE",
"134 312 CURVE SMOOTH",
"134 517 OFFCURVE",
"184 595 OFFCURVE",
"251 656 CURVE",
"238 725 LINE",
"124 675 OFFCURVE",
"42 559 OFFCURVE",
"42 312 CURVE SMOOTH",
"42 65 OFFCURVE",
"124 -51 OFFCURVE",
"238 -101 CURVE"
);
}
);
width = 303;
}
);
leftKerningGroup = parenleft;
rightKerningGroup = parenleft;
unicode = 0028;
},
{
color = 10;
glyphname = emdash;
layers = (
{
layerId = "4B38D994-FE59-4B2C-A746-78B1495748E0";
paths = (
{
closed = 1;
nodes = (
"34 236 LINE",
"705 236 LINE SMOOTH",
"740 236 OFFCURVE",
"754 238 OFFCURVE",
"754 270 CURVE SMOOTH",
"754 314 LINE",
"83 314 LINE SMOOTH",
"49 314 OFFCURVE",
"34 312 OFFCURVE",
"34 281 CURVE SMOOTH"
);
}
);
width = 788;
}
);
leftKerningGroup = hyphen;
rightKerningGroup = hyphen;
unicode = 2014;
},
{
color = 10;
glyphname = endash;
layers = (
{
layerId = "4B38D994-FE59-4B2C-A746-78B1495748E0";
paths = (
{
closed = 1;
nodes = (
"34 236 LINE",
"446 236 LINE SMOOTH",
"481 236 OFFCURVE",
"495 238 OFFCURVE",
"495 270 CURVE SMOOTH",
"495 314 LINE",
"83 314 LINE SMOOTH",
"49 314 OFFCURVE",
"34 312 OFFCURVE",
"34 281 CURVE SMOOTH"
);
}
);
width = 529;
}
);
leftKerningGroup = hyphen;
rightKerningGroup = hyphen;
unicode = 2013;
},
{
color = 10;
glyphname = hyphen;
layers = (
{
layerId = "4B38D994-FE59-4B2C-A746-78B1495748E0";
paths = (
{
closed = 1;
nodes = (
"34 236 LINE",
"267 236 LINE SMOOTH",
"302 236 OFFCURVE",
"316 238 OFFCURVE",
"316 270 CURVE SMOOTH",
"316 314 LINE",
"83 314 LINE SMOOTH",
"49 314 OFFCURVE",
"34 312 OFFCURVE",
"34 281 CURVE SMOOTH"
);
}
);
width = 350;
}
);
leftKerningGroup = hyphen;
rightKerningGroup = hyphen;
unicode = 002D;
},
{
color = 10;
glyphname = guillemotleft;
layers = (
{
layerId = "4B38D994-FE59-4B2C-A746-78B1495748E0";
paths = (
{
closed = 1;
nodes = (
"393 84 LINE",
"298 250 LINE",
"393 416 LINE",
"363 441 LINE",
"216 289 LINE",
"216 210 LINE",
"363 59 LINE"
);
},
{
closed = 1;
nodes = (
"202 84 LINE",
"107 250 LINE",
"202 416 LINE",
"172 441 LINE",
"25 289 LINE",
"25 210 LINE",
"172 59 LINE"
);
}
);
width = 418;
}
);
leftKerningGroup = guillemotleft;
rightKerningGroup = guillemotleft;
unicode = 00AB;
},
{
color = 10;
glyphname = guilsinglleft;
layers = (
{
layerId = "4B38D994-FE59-4B2C-A746-78B1495748E0";
paths = (
{
closed = 1;
nodes = (
"202 84 LINE",
"107 250 LINE",
"202 416 LINE",
"172 441 LINE",
"25 289 LINE",
"25 210 LINE",
"172 59 LINE"
);
}
);
width = 227;
}
);
leftKerningGroup = guillemotleft;
rightKerningGroup = guillemotleft;
unicode = 2039;
},
{
color = 4;
glyphname = "parenleft-ar";
layers = (
{
layerId = "4B38D994-FE59-4B2C-A746-78B1495748E0";
paths = (
{
closed = 1;
nodes = (
"111 236 LINE",
"306 559 LINE",
"227 583 LINE",
"31 261 LINE",
"31 240 LINE",
"227 -82 LINE",
"306 -58 LINE",
"111 265 LINE"
);
}
);
width = 368;
}
);
unicode = FD3E;
},
{
color = 10;
glyphname = Euro;
layers = (
{
components = (
{
name = C;
transform = "{1, 0, 0, 1, 30, 0}";
}
);
layerId = "4B38D994-FE59-4B2C-A746-78B1495748E0";
paths = (
{
closed = 1;
nodes = (
"387 218 LINE",
"393 271 LINE",
"35 271 LINE",
"28 218 LINE"
);
},
{
closed = 1;
nodes = (
"400 355 LINE",
"407 410 LINE",
"49 410 LINE",
"42 355 LINE"
);
}
);
width = 517;
}
);
leftKerningGroup = Euro;
rightKerningGroup = Euro;
rightMetricsKey = C;
unicode = 20AC;
},
{
color = 10;
glyphname = cent;
layers = (
{
components = (
{
name = c;
transform = "{1, 0, 0, 1, 0, 65}";
}
);
layerId = "4B38D994-FE59-4B2C-A746-78B1495748E0";
paths = (
{
closed = 1;
nodes = (
"203 90 LINE",
"185 -130 LINE",
"243 -130 LINE",
"261 90 LINE"
);
},
{
closed = 1;
nodes = (
"302 552 LINE",
"320 754 LINE",
"262 754 LINE",
"244 552 LINE"
);
}
);
width = 453;
}
);
leftKerningGroup = o;
leftMetricsKey = c;
rightKerningGroup = c;
rightMetricsKey = c;
unicode = 00A2;
},
